%TF.GenerationSoftware,KiCad,Pcbnew,(7.0.0)*%
%TF.CreationDate,2023-11-20T19:32:08-05:00*%
%TF.ProjectId,4272MAVproxS_R1,34323732-4d41-4567-9072-6f78535f5231,rev?*%
%TF.SameCoordinates,Original*%
%TF.FileFunction,Copper,L1,Top*%
%TF.FilePolarity,Positive*%
%FSLAX46Y46*%
G04 Gerber Fmt 4.6, Leading zero omitted, Abs format (unit mm)*
G04 Created by KiCad (PCBNEW (7.0.0)) date 2023-11-20 19:32:08*
%MOMM*%
%LPD*%
G01*
G04 APERTURE LIST*
G04 Aperture macros list*
%AMRoundRect*
0 Rectangle with rounded corners*
0 $1 Rounding radius*
0 $2 $3 $4 $5 $6 $7 $8 $9 X,Y pos of 4 corners*
0 Add a 4 corners polygon primitive as box body*
4,1,4,$2,$3,$4,$5,$6,$7,$8,$9,$2,$3,0*
0 Add four circle primitives for the rounded corners*
1,1,$1+$1,$2,$3*
1,1,$1+$1,$4,$5*
1,1,$1+$1,$6,$7*
1,1,$1+$1,$8,$9*
0 Add four rect primitives between the rounded corners*
20,1,$1+$1,$2,$3,$4,$5,0*
20,1,$1+$1,$4,$5,$6,$7,0*
20,1,$1+$1,$6,$7,$8,$9,0*
20,1,$1+$1,$8,$9,$2,$3,0*%
G04 Aperture macros list end*
%TA.AperFunction,SMDPad,CuDef*%
%ADD10RoundRect,0.237500X-0.287500X-0.237500X0.287500X-0.237500X0.287500X0.237500X-0.287500X0.237500X0*%
%TD*%
%TA.AperFunction,SMDPad,CuDef*%
%ADD11RoundRect,0.150000X0.150000X-0.587500X0.150000X0.587500X-0.150000X0.587500X-0.150000X-0.587500X0*%
%TD*%
%TA.AperFunction,SMDPad,CuDef*%
%ADD12RoundRect,0.150000X0.587500X0.150000X-0.587500X0.150000X-0.587500X-0.150000X0.587500X-0.150000X0*%
%TD*%
%TA.AperFunction,SMDPad,CuDef*%
%ADD13RoundRect,0.237500X-0.250000X-0.237500X0.250000X-0.237500X0.250000X0.237500X-0.250000X0.237500X0*%
%TD*%
%TA.AperFunction,ComponentPad*%
%ADD14R,1.635000X1.635000*%
%TD*%
%TA.AperFunction,ComponentPad*%
%ADD15C,1.635000*%
%TD*%
%TA.AperFunction,SMDPad,CuDef*%
%ADD16RoundRect,0.237500X0.237500X-0.300000X0.237500X0.300000X-0.237500X0.300000X-0.237500X-0.300000X0*%
%TD*%
%TA.AperFunction,ViaPad*%
%ADD17C,0.800000*%
%TD*%
%TA.AperFunction,Conductor*%
%ADD18C,0.250000*%
%TD*%
G04 APERTURE END LIST*
D10*
%TO.P,D2,1,K*%
%TO.N,Net-(D2-K)*%
X140290000Y-63675000D03*
%TO.P,D2,2,A*%
%TO.N,Net-(D2-A)*%
X142040000Y-63675000D03*
%TD*%
%TO.P,D1,1,K*%
%TO.N,GND*%
X162890000Y-63675000D03*
%TO.P,D1,2,A*%
%TO.N,Net-(D1-A)*%
X164640000Y-63675000D03*
%TD*%
D11*
%TO.P,U1,1,VCC*%
%TO.N,+3.3V*%
X151415000Y-51712500D03*
%TO.P,U1,2,OUT*%
%TO.N,Net-(Q1-G)*%
X153315000Y-51712500D03*
%TO.P,U1,3,GND*%
%TO.N,GND*%
X152365000Y-49837500D03*
%TD*%
D12*
%TO.P,Q1,1,G*%
%TO.N,Net-(Q1-G)*%
X147402500Y-60825000D03*
%TO.P,Q1,2,S*%
%TO.N,+3.3V*%
X147402500Y-58925000D03*
%TO.P,Q1,3,D*%
%TO.N,Net-(D2-A)*%
X145527500Y-59875000D03*
%TD*%
D13*
%TO.P,R2,1*%
%TO.N,Net-(D2-K)*%
X140352500Y-60575000D03*
%TO.P,R2,2*%
%TO.N,GND*%
X142177500Y-60575000D03*
%TD*%
D14*
%TO.P,P1,1*%
%TO.N,GND*%
X154864999Y-63674999D03*
D15*
%TO.P,P1,2*%
%TO.N,+3.3V*%
X152325000Y-63675000D03*
%TO.P,P1,3*%
%TO.N,Net-(Q1-G)*%
X149785000Y-63675000D03*
%TD*%
D13*
%TO.P,R3,1*%
%TO.N,Net-(Q1-G)*%
X151052500Y-56875000D03*
%TO.P,R3,2*%
%TO.N,+3.3V*%
X152877500Y-56875000D03*
%TD*%
%TO.P,R1,1*%
%TO.N,+3.3V*%
X162852500Y-60575000D03*
%TO.P,R1,2*%
%TO.N,Net-(D1-A)*%
X164677500Y-60575000D03*
%TD*%
D16*
%TO.P,C1,1*%
%TO.N,+3.3V*%
X149365000Y-51637500D03*
%TO.P,C1,2*%
%TO.N,GND*%
X149365000Y-49912500D03*
%TD*%
D17*
%TO.N,+3.3V*%
X154365000Y-56875000D03*
X150458750Y-52668750D03*
X149565000Y-58375000D03*
X160765000Y-60575000D03*
%TD*%
D18*
%TO.N,+3.3V*%
X149565000Y-58375000D02*
X147952500Y-58375000D01*
X147952500Y-58375000D02*
X147402500Y-58925000D01*
X152877500Y-56875000D02*
X154365000Y-56875000D01*
%TO.N,Net-(Q1-G)*%
X151052500Y-58700000D02*
X148927500Y-60825000D01*
X151052500Y-56875000D02*
X151052500Y-58700000D01*
X153315000Y-54612500D02*
X151052500Y-56875000D01*
X153315000Y-51712500D02*
X153315000Y-54612500D01*
%TO.N,+3.3V*%
X150458750Y-52668750D02*
X151415000Y-51712500D01*
X150458750Y-52668750D02*
X150396250Y-52668750D01*
X150396250Y-52668750D02*
X149365000Y-51637500D01*
X162852500Y-60575000D02*
X160765000Y-60575000D01*
%TO.N,Net-(Q1-G)*%
X148927500Y-60825000D02*
X147402500Y-60825000D01*
%TO.N,Net-(D2-A)*%
X145527500Y-60187500D02*
X142040000Y-63675000D01*
X145527500Y-59875000D02*
X145527500Y-60187500D01*
%TO.N,Net-(Q1-G)*%
X147402500Y-61292500D02*
X149785000Y-63675000D01*
X147402500Y-60825000D02*
X147402500Y-61292500D01*
%TO.N,Net-(D2-K)*%
X140352500Y-63612500D02*
X140290000Y-63675000D01*
X140352500Y-60575000D02*
X140352500Y-63612500D01*
%TO.N,Net-(D1-A)*%
X164677500Y-63637500D02*
X164640000Y-63675000D01*
X164677500Y-60575000D02*
X164677500Y-63637500D01*
%TD*%
%TA.AperFunction,Conductor*%
%TO.N,GND*%
G36*
X165503491Y-48191498D02*
G01*
X165548846Y-48236600D01*
X165565688Y-48298306D01*
X165572230Y-49469087D01*
X165629297Y-59684240D01*
X165616034Y-59740733D01*
X165578520Y-59785006D01*
X165524971Y-59807363D01*
X165467113Y-59802907D01*
X165417618Y-59772614D01*
X165398456Y-59753452D01*
X165398456Y-59753451D01*
X165393346Y-59748342D01*
X165387196Y-59744548D01*
X165387194Y-59744547D01*
X165282826Y-59680172D01*
X165244920Y-59656791D01*
X165238062Y-59654518D01*
X165238061Y-59654518D01*
X165085805Y-59604066D01*
X165085799Y-59604064D01*
X165079381Y-59601938D01*
X165072651Y-59601250D01*
X165072649Y-59601250D01*
X164980342Y-59591819D01*
X164980328Y-59591818D01*
X164977213Y-59591500D01*
X164974065Y-59591500D01*
X164380936Y-59591500D01*
X164380916Y-59591500D01*
X164377788Y-59591501D01*
X164374675Y-59591818D01*
X164374655Y-59591820D01*
X164282358Y-59601249D01*
X164282352Y-59601250D01*
X164275619Y-59601938D01*
X164269189Y-59604068D01*
X164269187Y-59604069D01*
X164116938Y-59654518D01*
X164116934Y-59654519D01*
X164110080Y-59656791D01*
X164103932Y-59660582D01*
X164103930Y-59660584D01*
X163967805Y-59744547D01*
X163967799Y-59744551D01*
X163961654Y-59748342D01*
X163956547Y-59753448D01*
X163956543Y-59753452D01*
X163852681Y-59857315D01*
X163797094Y-59889409D01*
X163732906Y-59889409D01*
X163677319Y-59857315D01*
X163573456Y-59753452D01*
X163573456Y-59753451D01*
X163568346Y-59748342D01*
X163562196Y-59744548D01*
X163562194Y-59744547D01*
X163457826Y-59680172D01*
X163419920Y-59656791D01*
X163413062Y-59654518D01*
X163413061Y-59654518D01*
X163260805Y-59604066D01*
X163260799Y-59604064D01*
X163254381Y-59601938D01*
X163247651Y-59601250D01*
X163247649Y-59601250D01*
X163155342Y-59591819D01*
X163155328Y-59591818D01*
X163152213Y-59591500D01*
X163149065Y-59591500D01*
X162555936Y-59591500D01*
X162555916Y-59591500D01*
X162552788Y-59591501D01*
X162549675Y-59591818D01*
X162549655Y-59591820D01*
X162457358Y-59601249D01*
X162457352Y-59601250D01*
X162450619Y-59601938D01*
X162444189Y-59604068D01*
X162444187Y-59604069D01*
X162291938Y-59654518D01*
X162291934Y-59654519D01*
X162285080Y-59656791D01*
X162278932Y-59660582D01*
X162278930Y-59660584D01*
X162142805Y-59744547D01*
X162142799Y-59744551D01*
X162136654Y-59748342D01*
X162131547Y-59753448D01*
X162131543Y-59753452D01*
X162018452Y-59866543D01*
X162018448Y-59866547D01*
X162013342Y-59871654D01*
X162009547Y-59877805D01*
X162009548Y-59877805D01*
X162006591Y-59882599D01*
X161961485Y-59925778D01*
X161901054Y-59941500D01*
X161472309Y-59941500D01*
X161421874Y-59930780D01*
X161385978Y-59904700D01*
X161385429Y-59905310D01*
X161380598Y-59900960D01*
X161376253Y-59896134D01*
X161371003Y-59892319D01*
X161370999Y-59892316D01*
X161227006Y-59787699D01*
X161227004Y-59787697D01*
X161221752Y-59783882D01*
X161215821Y-59781241D01*
X161215817Y-59781239D01*
X161053226Y-59708849D01*
X161053219Y-59708846D01*
X161047288Y-59706206D01*
X161040935Y-59704855D01*
X161040927Y-59704853D01*
X160866849Y-59667852D01*
X160866846Y-59667851D01*
X160860487Y-59666500D01*
X160669513Y-59666500D01*
X160663154Y-59667851D01*
X160663150Y-59667852D01*
X160489072Y-59704853D01*
X160489061Y-59704856D01*
X160482712Y-59706206D01*
X160476782Y-59708845D01*
X160476773Y-59708849D01*
X160314182Y-59781239D01*
X160314174Y-59781243D01*
X160308248Y-59783882D01*
X160302999Y-59787695D01*
X160302993Y-59787699D01*
X160159000Y-59892316D01*
X160158991Y-59892323D01*
X160153747Y-59896134D01*
X160149403Y-59900957D01*
X160149400Y-59900961D01*
X160035971Y-60026938D01*
X160025960Y-60038056D01*
X160022714Y-60043676D01*
X160022711Y-60043682D01*
X159933721Y-60197817D01*
X159933718Y-60197822D01*
X159930473Y-60203444D01*
X159928467Y-60209616D01*
X159928465Y-60209622D01*
X159873465Y-60378892D01*
X159873463Y-60378901D01*
X159871458Y-60385072D01*
X159870780Y-60391522D01*
X159870778Y-60391532D01*
X159861264Y-60482062D01*
X159851496Y-60575000D01*
X159852175Y-60581460D01*
X159870778Y-60758467D01*
X159870779Y-60758475D01*
X159871458Y-60764928D01*
X159873463Y-60771100D01*
X159873465Y-60771107D01*
X159904085Y-60865344D01*
X159930473Y-60946556D01*
X159933720Y-60952180D01*
X159933721Y-60952182D01*
X160010353Y-61084913D01*
X160025960Y-61111944D01*
X160153747Y-61253866D01*
X160158997Y-61257680D01*
X160159000Y-61257683D01*
X160262197Y-61332660D01*
X160308248Y-61366118D01*
X160314181Y-61368759D01*
X160314182Y-61368760D01*
X160475542Y-61440602D01*
X160482712Y-61443794D01*
X160489070Y-61445145D01*
X160489072Y-61445146D01*
X160523435Y-61452450D01*
X160669513Y-61483500D01*
X160853984Y-61483500D01*
X160860487Y-61483500D01*
X161047288Y-61443794D01*
X161221752Y-61366118D01*
X161376253Y-61253866D01*
X161380600Y-61249037D01*
X161385429Y-61244690D01*
X161385978Y-61245299D01*
X161421874Y-61219220D01*
X161472309Y-61208500D01*
X161901054Y-61208500D01*
X161961485Y-61224222D01*
X162006590Y-61267400D01*
X162013342Y-61278346D01*
X162136654Y-61401658D01*
X162285080Y-61493209D01*
X162450619Y-61548062D01*
X162552787Y-61558500D01*
X163152212Y-61558499D01*
X163254381Y-61548062D01*
X163419920Y-61493209D01*
X163568346Y-61401658D01*
X163677319Y-61292684D01*
X163732906Y-61260591D01*
X163797094Y-61260591D01*
X163852681Y-61292685D01*
X163961654Y-61401658D01*
X163985099Y-61416119D01*
X164028278Y-61461225D01*
X164044000Y-61521656D01*
X164044000Y-62682083D01*
X164028278Y-62742514D01*
X163985097Y-62787621D01*
X163892805Y-62844547D01*
X163892799Y-62844551D01*
X163886654Y-62848342D01*
X163881551Y-62853444D01*
X163881542Y-62853452D01*
X163846669Y-62888326D01*
X163791082Y-62920419D01*
X163726895Y-62920419D01*
X163671308Y-62888325D01*
X163643148Y-62860165D01*
X163631886Y-62851260D01*
X163497452Y-62768340D01*
X163484444Y-62762274D01*
X163334075Y-62712447D01*
X163320919Y-62709631D01*
X163229776Y-62700319D01*
X163223500Y-62700000D01*
X163156326Y-62700000D01*
X163143450Y-62703450D01*
X163140000Y-62716326D01*
X163140000Y-64633673D01*
X163143450Y-64646548D01*
X163156326Y-64649999D01*
X163223497Y-64649999D01*
X163229779Y-64649678D01*
X163320912Y-64640369D01*
X163334081Y-64637550D01*
X163484444Y-64587725D01*
X163497452Y-64581659D01*
X163631886Y-64498739D01*
X163643142Y-64489838D01*
X163671306Y-64461675D01*
X163726894Y-64429581D01*
X163791082Y-64429580D01*
X163846670Y-64461673D01*
X163886654Y-64501658D01*
X164035080Y-64593209D01*
X164200619Y-64648062D01*
X164302787Y-64658500D01*
X164977212Y-64658499D01*
X165079381Y-64648062D01*
X165244920Y-64593209D01*
X165393346Y-64501658D01*
X165444730Y-64450273D01*
X165493959Y-64420067D01*
X165551533Y-64415438D01*
X165604958Y-64437393D01*
X165642642Y-64481167D01*
X165656408Y-64537262D01*
X165664303Y-65950307D01*
X165647922Y-66012600D01*
X165602505Y-66058271D01*
X165540305Y-66075000D01*
X154865000Y-66075000D01*
X154864866Y-66075000D01*
X154864781Y-66075001D01*
X139091173Y-66174206D01*
X139028446Y-66157625D01*
X138982678Y-66111637D01*
X138966401Y-66048833D01*
X138989620Y-63959082D01*
X139256500Y-63959082D01*
X139256501Y-63962212D01*
X139256819Y-63965325D01*
X139256820Y-63965344D01*
X139266249Y-64057641D01*
X139266938Y-64064381D01*
X139269069Y-64070812D01*
X139318319Y-64219444D01*
X139321791Y-64229920D01*
X139325584Y-64236069D01*
X139383561Y-64330065D01*
X139413342Y-64378346D01*
X139536654Y-64501658D01*
X139685080Y-64593209D01*
X139850619Y-64648062D01*
X139952787Y-64658500D01*
X140627212Y-64658499D01*
X140729381Y-64648062D01*
X140894920Y-64593209D01*
X141043346Y-64501658D01*
X141077319Y-64467685D01*
X141132906Y-64435591D01*
X141197094Y-64435591D01*
X141252681Y-64467685D01*
X141286654Y-64501658D01*
X141435080Y-64593209D01*
X141600619Y-64648062D01*
X141702787Y-64658500D01*
X142377212Y-64658499D01*
X142479381Y-64648062D01*
X142644920Y-64593209D01*
X142793346Y-64501658D01*
X142916658Y-64378346D01*
X143008209Y-64229920D01*
X143063062Y-64064381D01*
X143073500Y-63962213D01*
X143073499Y-63588764D01*
X143082938Y-63541312D01*
X143109815Y-63501087D01*
X145891084Y-60719819D01*
X145931313Y-60692939D01*
X145978766Y-60683500D01*
X146032500Y-60683500D01*
X146094500Y-60700113D01*
X146139887Y-60745500D01*
X146156500Y-60807500D01*
X146156500Y-61041502D01*
X146156690Y-61043921D01*
X146156691Y-61043936D01*
X146158940Y-61072514D01*
X146158941Y-61072521D01*
X146159438Y-61078831D01*
X146161205Y-61084913D01*
X146201677Y-61224222D01*
X146205855Y-61238601D01*
X146209825Y-61245315D01*
X146209827Y-61245318D01*
X146256373Y-61324022D01*
X146290547Y-61381807D01*
X146408193Y-61499453D01*
X146551399Y-61584145D01*
X146711169Y-61630562D01*
X146748498Y-61633500D01*
X146799384Y-61633500D01*
X146853936Y-61646144D01*
X146895815Y-61680239D01*
X146897958Y-61683862D01*
X146903475Y-61689379D01*
X146903476Y-61689380D01*
X146912389Y-61698293D01*
X146925025Y-61713088D01*
X146932438Y-61723291D01*
X146932443Y-61723296D01*
X146937028Y-61729607D01*
X146971167Y-61757849D01*
X146979808Y-61765712D01*
X148462375Y-63248280D01*
X148494469Y-63303867D01*
X148494469Y-63368053D01*
X148475557Y-63438634D01*
X148475554Y-63438645D01*
X148474157Y-63443863D01*
X148473685Y-63449248D01*
X148473685Y-63449253D01*
X148454407Y-63669605D01*
X148453935Y-63675000D01*
X148474157Y-63906137D01*
X148475554Y-63911352D01*
X148475556Y-63911361D01*
X148532805Y-64125018D01*
X148532808Y-64125026D01*
X148534208Y-64130251D01*
X148536496Y-64135159D01*
X148536497Y-64135160D01*
X148629977Y-64335630D01*
X148629978Y-64335631D01*
X148632264Y-64340533D01*
X148635363Y-64344960D01*
X148635365Y-64344962D01*
X148762239Y-64526157D01*
X148762242Y-64526161D01*
X148765345Y-64530592D01*
X148929408Y-64694655D01*
X149119467Y-64827736D01*
X149329749Y-64925792D01*
X149334980Y-64927193D01*
X149334981Y-64927194D01*
X149378863Y-64938952D01*
X149553863Y-64985843D01*
X149785000Y-65006065D01*
X150016137Y-64985843D01*
X150240251Y-64925792D01*
X150450533Y-64827736D01*
X150640592Y-64694655D01*
X150804655Y-64530592D01*
X150937736Y-64340533D01*
X150942617Y-64330064D01*
X150988374Y-64277888D01*
X151055000Y-64258468D01*
X151121626Y-64277888D01*
X151167382Y-64330064D01*
X151172264Y-64340533D01*
X151175363Y-64344960D01*
X151175365Y-64344962D01*
X151302239Y-64526157D01*
X151302242Y-64526161D01*
X151305345Y-64530592D01*
X151469408Y-64694655D01*
X151659467Y-64827736D01*
X151869749Y-64925792D01*
X151874980Y-64927193D01*
X151874981Y-64927194D01*
X151918863Y-64938952D01*
X152093863Y-64985843D01*
X152325000Y-65006065D01*
X152556137Y-64985843D01*
X152780251Y-64925792D01*
X152990533Y-64827736D01*
X153180592Y-64694655D01*
X153344246Y-64531000D01*
X153400721Y-64498674D01*
X153465794Y-64499399D01*
X153521538Y-64532979D01*
X153552600Y-64590165D01*
X153556612Y-64607142D01*
X153601047Y-64726277D01*
X153609462Y-64741689D01*
X153684998Y-64842592D01*
X153697407Y-64855001D01*
X153798310Y-64930537D01*
X153813722Y-64938952D01*
X153932858Y-64983388D01*
X153947832Y-64986926D01*
X153996385Y-64992146D01*
X154002982Y-64992500D01*
X154598674Y-64992500D01*
X154611549Y-64989049D01*
X154615000Y-64976174D01*
X155115000Y-64976174D01*
X155118450Y-64989049D01*
X155131326Y-64992500D01*
X155727018Y-64992500D01*
X155733614Y-64992146D01*
X155782167Y-64986926D01*
X155797141Y-64983388D01*
X155916277Y-64938952D01*
X155931689Y-64930537D01*
X156032592Y-64855001D01*
X156045001Y-64842592D01*
X156120537Y-64741689D01*
X156128952Y-64726277D01*
X156173388Y-64607141D01*
X156176926Y-64592167D01*
X156182146Y-64543614D01*
X156182500Y-64537018D01*
X156182500Y-63958497D01*
X161865001Y-63958497D01*
X161865321Y-63964779D01*
X161874630Y-64055912D01*
X161877449Y-64069081D01*
X161927274Y-64219444D01*
X161933340Y-64232452D01*
X162016260Y-64366886D01*
X162025165Y-64378148D01*
X162136851Y-64489834D01*
X162148113Y-64498739D01*
X162282547Y-64581659D01*
X162295555Y-64587725D01*
X162445924Y-64637552D01*
X162459080Y-64640368D01*
X162550223Y-64649680D01*
X162556500Y-64650000D01*
X162623674Y-64650000D01*
X162636549Y-64646549D01*
X162640000Y-64633674D01*
X162640000Y-63941326D01*
X162636549Y-63928450D01*
X162623674Y-63925000D01*
X161881327Y-63925000D01*
X161868451Y-63928450D01*
X161865001Y-63941326D01*
X161865001Y-63958497D01*
X156182500Y-63958497D01*
X156182500Y-63941326D01*
X156179049Y-63928450D01*
X156166174Y-63925000D01*
X155131326Y-63925000D01*
X155118450Y-63928450D01*
X155115000Y-63941326D01*
X155115000Y-64976174D01*
X154615000Y-64976174D01*
X154615000Y-63408674D01*
X155115000Y-63408674D01*
X155118450Y-63421549D01*
X155131326Y-63425000D01*
X156166174Y-63425000D01*
X156179049Y-63421549D01*
X156182500Y-63408674D01*
X161865000Y-63408674D01*
X161868450Y-63421549D01*
X161881326Y-63425000D01*
X162623674Y-63425000D01*
X162636549Y-63421549D01*
X162640000Y-63408674D01*
X162640000Y-62716327D01*
X162636549Y-62703451D01*
X162623674Y-62700001D01*
X162556503Y-62700001D01*
X162550220Y-62700321D01*
X162459087Y-62709630D01*
X162445918Y-62712449D01*
X162295555Y-62762274D01*
X162282547Y-62768340D01*
X162148113Y-62851260D01*
X162136851Y-62860165D01*
X162025165Y-62971851D01*
X162016260Y-62983113D01*
X161933340Y-63117547D01*
X161927274Y-63130555D01*
X161877447Y-63280924D01*
X161874631Y-63294080D01*
X161865319Y-63385223D01*
X161865000Y-63391500D01*
X161865000Y-63408674D01*
X156182500Y-63408674D01*
X156182500Y-62812982D01*
X156182146Y-62806385D01*
X156176926Y-62757832D01*
X156173388Y-62742858D01*
X156128952Y-62623722D01*
X156120537Y-62608310D01*
X156045001Y-62507407D01*
X156032592Y-62494998D01*
X155931689Y-62419462D01*
X155916277Y-62411047D01*
X155797141Y-62366611D01*
X155782167Y-62363073D01*
X155733614Y-62357853D01*
X155727018Y-62357500D01*
X155131326Y-62357500D01*
X155118450Y-62360950D01*
X155115000Y-62373826D01*
X155115000Y-63408674D01*
X154615000Y-63408674D01*
X154615000Y-62373826D01*
X154611549Y-62360950D01*
X154598674Y-62357500D01*
X154002982Y-62357500D01*
X153996385Y-62357853D01*
X153947832Y-62363073D01*
X153932858Y-62366611D01*
X153813722Y-62411047D01*
X153798310Y-62419462D01*
X153697407Y-62494998D01*
X153684998Y-62507407D01*
X153609462Y-62608310D01*
X153601047Y-62623722D01*
X153556612Y-62742855D01*
X153552600Y-62759835D01*
X153521538Y-62817020D01*
X153465794Y-62850600D01*
X153400721Y-62851325D01*
X153344243Y-62818996D01*
X153184423Y-62659176D01*
X153184421Y-62659174D01*
X153180592Y-62655345D01*
X153176161Y-62652242D01*
X153176157Y-62652239D01*
X152994962Y-62525365D01*
X152994960Y-62525363D01*
X152990533Y-62522264D01*
X152985636Y-62519980D01*
X152985630Y-62519977D01*
X152785160Y-62426497D01*
X152785159Y-62426496D01*
X152780251Y-62424208D01*
X152775026Y-62422808D01*
X152775018Y-62422805D01*
X152561361Y-62365556D01*
X152561352Y-62365554D01*
X152556137Y-62364157D01*
X152550749Y-62363685D01*
X152550746Y-62363685D01*
X152330395Y-62344407D01*
X152325000Y-62343935D01*
X152319605Y-62344407D01*
X152099253Y-62363685D01*
X152099248Y-62363685D01*
X152093863Y-62364157D01*
X152088649Y-62365554D01*
X152088638Y-62365556D01*
X151874981Y-62422805D01*
X151874969Y-62422809D01*
X151869749Y-62424208D01*
X151864844Y-62426494D01*
X151864839Y-62426497D01*
X151664378Y-62519974D01*
X151664374Y-62519976D01*
X151659468Y-62522264D01*
X151655035Y-62525367D01*
X151655028Y-62525372D01*
X151473843Y-62652239D01*
X151473838Y-62652242D01*
X151469408Y-62655345D01*
X151465584Y-62659168D01*
X151465578Y-62659174D01*
X151309174Y-62815578D01*
X151309168Y-62815584D01*
X151305345Y-62819408D01*
X151302242Y-62823838D01*
X151302239Y-62823843D01*
X151175372Y-63005028D01*
X151175367Y-63005035D01*
X151172264Y-63009468D01*
X151169975Y-63014375D01*
X151169973Y-63014380D01*
X151167381Y-63019939D01*
X151121624Y-63072113D01*
X151055000Y-63091532D01*
X150988376Y-63072113D01*
X150942619Y-63019939D01*
X150941713Y-63017997D01*
X150937736Y-63009468D01*
X150804655Y-62819408D01*
X150640592Y-62655345D01*
X150636161Y-62652242D01*
X150636157Y-62652239D01*
X150454962Y-62525365D01*
X150454960Y-62525363D01*
X150450533Y-62522264D01*
X150445636Y-62519980D01*
X150445630Y-62519977D01*
X150245160Y-62426497D01*
X150245159Y-62426496D01*
X150240251Y-62424208D01*
X150235026Y-62422808D01*
X150235018Y-62422805D01*
X150021361Y-62365556D01*
X150021352Y-62365554D01*
X150016137Y-62364157D01*
X150010749Y-62363685D01*
X150010746Y-62363685D01*
X149790395Y-62344407D01*
X149785000Y-62343935D01*
X149779605Y-62344407D01*
X149559253Y-62363685D01*
X149559248Y-62363685D01*
X149553863Y-62364157D01*
X149548645Y-62365554D01*
X149548634Y-62365557D01*
X149478053Y-62384469D01*
X149413867Y-62384469D01*
X149358280Y-62352375D01*
X148676086Y-61670181D01*
X148645836Y-61620818D01*
X148641294Y-61563102D01*
X148663449Y-61509615D01*
X148707472Y-61472015D01*
X148763767Y-61458500D01*
X148848654Y-61458500D01*
X148859937Y-61459031D01*
X148867409Y-61460702D01*
X148935517Y-61458560D01*
X148939413Y-61458500D01*
X148963458Y-61458500D01*
X148967356Y-61458500D01*
X148971224Y-61458011D01*
X148971447Y-61457983D01*
X148983108Y-61457064D01*
X149027389Y-61455673D01*
X149046990Y-61449977D01*
X149066041Y-61446032D01*
X149086297Y-61443474D01*
X149117522Y-61431110D01*
X149127493Y-61427163D01*
X149138543Y-61423379D01*
X149181093Y-61411018D01*
X149198665Y-61400625D01*
X149216132Y-61392068D01*
X149235117Y-61384552D01*
X149270975Y-61358498D01*
X149280723Y-61352096D01*
X149318862Y-61329542D01*
X149333293Y-61315110D01*
X149348088Y-61302472D01*
X149364607Y-61290472D01*
X149392860Y-61256318D01*
X149400703Y-61247699D01*
X151444717Y-59203686D01*
X151453052Y-59196102D01*
X151459518Y-59192000D01*
X151506191Y-59142295D01*
X151508809Y-59139594D01*
X151528635Y-59119770D01*
X151531160Y-59116513D01*
X151538751Y-59107624D01*
X151569086Y-59075321D01*
X151578923Y-59057425D01*
X151589596Y-59041177D01*
X151602114Y-59025041D01*
X151619715Y-58984364D01*
X151624850Y-58973884D01*
X151642435Y-58941899D01*
X151642434Y-58941899D01*
X151646195Y-58935060D01*
X151651274Y-58915273D01*
X151657570Y-58896885D01*
X151665681Y-58878145D01*
X151672612Y-58834376D01*
X151674982Y-58822939D01*
X151686000Y-58780030D01*
X151686000Y-58759615D01*
X151687527Y-58740217D01*
X151687565Y-58739972D01*
X151690720Y-58720057D01*
X151686550Y-58675942D01*
X151686000Y-58664273D01*
X151686000Y-57821656D01*
X151701722Y-57761225D01*
X151744900Y-57716119D01*
X151768346Y-57701658D01*
X151877319Y-57592685D01*
X151932906Y-57560591D01*
X151997094Y-57560591D01*
X152052681Y-57592685D01*
X152161654Y-57701658D01*
X152310080Y-57793209D01*
X152475619Y-57848062D01*
X152577787Y-57858500D01*
X153177212Y-57858499D01*
X153279381Y-57848062D01*
X153444920Y-57793209D01*
X153593346Y-57701658D01*
X153671560Y-57623443D01*
X153720918Y-57593197D01*
X153778635Y-57588655D01*
X153832122Y-57610810D01*
X153902988Y-57662297D01*
X153902992Y-57662299D01*
X153908248Y-57666118D01*
X153914181Y-57668759D01*
X153914182Y-57668760D01*
X153988072Y-57701658D01*
X154082712Y-57743794D01*
X154089070Y-57745145D01*
X154089072Y-57745146D01*
X154095452Y-57746502D01*
X154269513Y-57783500D01*
X154453984Y-57783500D01*
X154460487Y-57783500D01*
X154647288Y-57743794D01*
X154821752Y-57666118D01*
X154976253Y-57553866D01*
X155104040Y-57411944D01*
X155199527Y-57246556D01*
X155258542Y-57064928D01*
X155278504Y-56875000D01*
X155258542Y-56685072D01*
X155199527Y-56503444D01*
X155104040Y-56338056D01*
X154976253Y-56196134D01*
X154971003Y-56192319D01*
X154970999Y-56192316D01*
X154827006Y-56087699D01*
X154827004Y-56087697D01*
X154821752Y-56083882D01*
X154815821Y-56081241D01*
X154815817Y-56081239D01*
X154653226Y-56008849D01*
X154653219Y-56008846D01*
X154647288Y-56006206D01*
X154640935Y-56004855D01*
X154640927Y-56004853D01*
X154466849Y-55967852D01*
X154466846Y-55967851D01*
X154460487Y-55966500D01*
X154269513Y-55966500D01*
X154263154Y-55967851D01*
X154263150Y-55967852D01*
X154089072Y-56004853D01*
X154089061Y-56004856D01*
X154082712Y-56006206D01*
X154076782Y-56008845D01*
X154076773Y-56008849D01*
X153914182Y-56081239D01*
X153914174Y-56081243D01*
X153908248Y-56083882D01*
X153903001Y-56087693D01*
X153902989Y-56087701D01*
X153832121Y-56139190D01*
X153778634Y-56161344D01*
X153720919Y-56156802D01*
X153671556Y-56126552D01*
X153598456Y-56053452D01*
X153593346Y-56048342D01*
X153587196Y-56044548D01*
X153587194Y-56044547D01*
X153501890Y-55991931D01*
X153444920Y-55956791D01*
X153438062Y-55954518D01*
X153438061Y-55954518D01*
X153285805Y-55904066D01*
X153285799Y-55904064D01*
X153279381Y-55901938D01*
X153272652Y-55901250D01*
X153272650Y-55901250D01*
X153214236Y-55895282D01*
X153150284Y-55869470D01*
X153110013Y-55813485D01*
X153105878Y-55744645D01*
X153139157Y-55684245D01*
X153707212Y-55116190D01*
X153715550Y-55108604D01*
X153722018Y-55104500D01*
X153768706Y-55054779D01*
X153771324Y-55052078D01*
X153791134Y-55032270D01*
X153793664Y-55029008D01*
X153801244Y-55020130D01*
X153831586Y-54987821D01*
X153841422Y-54969927D01*
X153852098Y-54953674D01*
X153864613Y-54937541D01*
X153882206Y-54896885D01*
X153887341Y-54886400D01*
X153908695Y-54847560D01*
X153913773Y-54827783D01*
X153920078Y-54809369D01*
X153928181Y-54790645D01*
X153935112Y-54746876D01*
X153937482Y-54735439D01*
X153948500Y-54692530D01*
X153948500Y-54672115D01*
X153950027Y-54652717D01*
X153950065Y-54652472D01*
X153953220Y-54632557D01*
X153949050Y-54588442D01*
X153948500Y-54576773D01*
X153948500Y-52799122D01*
X153957939Y-52751669D01*
X153979784Y-52718975D01*
X153979155Y-52718487D01*
X153983932Y-52712327D01*
X153989453Y-52706807D01*
X154074145Y-52563601D01*
X154120562Y-52403831D01*
X154123500Y-52366502D01*
X154123500Y-51058498D01*
X154120562Y-51021169D01*
X154074145Y-50861399D01*
X153989453Y-50718193D01*
X153871807Y-50600547D01*
X153856509Y-50591500D01*
X153735318Y-50519827D01*
X153735315Y-50519825D01*
X153728601Y-50515855D01*
X153568831Y-50469438D01*
X153562521Y-50468941D01*
X153562514Y-50468940D01*
X153533936Y-50466691D01*
X153533921Y-50466690D01*
X153531502Y-50466500D01*
X153289000Y-50466500D01*
X153227000Y-50449887D01*
X153181613Y-50404500D01*
X153165000Y-50342500D01*
X153165000Y-50103826D01*
X153161549Y-50090950D01*
X153148674Y-50087500D01*
X152631326Y-50087500D01*
X152618450Y-50090950D01*
X152615000Y-50103826D01*
X152615000Y-50727468D01*
X152597732Y-50790589D01*
X152559827Y-50854681D01*
X152559824Y-50854687D01*
X152555855Y-50861399D01*
X152553679Y-50868888D01*
X152553678Y-50868891D01*
X152511541Y-51013930D01*
X152509438Y-51021169D01*
X152508941Y-51027476D01*
X152508940Y-51027485D01*
X152506691Y-51056063D01*
X152506690Y-51056079D01*
X152506500Y-51058498D01*
X152506500Y-52366502D01*
X152506690Y-52368921D01*
X152506691Y-52368936D01*
X152508940Y-52397514D01*
X152508941Y-52397521D01*
X152509438Y-52403831D01*
X152555855Y-52563601D01*
X152559825Y-52570315D01*
X152559827Y-52570318D01*
X152626574Y-52683180D01*
X152640547Y-52706807D01*
X152646065Y-52712325D01*
X152650845Y-52718487D01*
X152650215Y-52718975D01*
X152672061Y-52751669D01*
X152681500Y-52799122D01*
X152681500Y-54298733D01*
X152672061Y-54346186D01*
X152645181Y-54386414D01*
X151176412Y-55855181D01*
X151136184Y-55882061D01*
X151088731Y-55891500D01*
X150755936Y-55891500D01*
X150755916Y-55891500D01*
X150752788Y-55891501D01*
X150749675Y-55891818D01*
X150749655Y-55891820D01*
X150657358Y-55901249D01*
X150657352Y-55901250D01*
X150650619Y-55901938D01*
X150644189Y-55904068D01*
X150644187Y-55904069D01*
X150491938Y-55954518D01*
X150491934Y-55954519D01*
X150485080Y-55956791D01*
X150478932Y-55960582D01*
X150478930Y-55960584D01*
X150342805Y-56044547D01*
X150342799Y-56044551D01*
X150336654Y-56048342D01*
X150331547Y-56053448D01*
X150331543Y-56053452D01*
X150218452Y-56166543D01*
X150218448Y-56166547D01*
X150213342Y-56171654D01*
X150209551Y-56177799D01*
X150209547Y-56177805D01*
X150125584Y-56313930D01*
X150121791Y-56320080D01*
X150119519Y-56326934D01*
X150119518Y-56326938D01*
X150069066Y-56479194D01*
X150069064Y-56479202D01*
X150066938Y-56485619D01*
X150066250Y-56492347D01*
X150066250Y-56492350D01*
X150056819Y-56584657D01*
X150056818Y-56584672D01*
X150056500Y-56587787D01*
X150056500Y-56590933D01*
X150056500Y-56590934D01*
X150056500Y-57159063D01*
X150056500Y-57159082D01*
X150056501Y-57162212D01*
X150056819Y-57165325D01*
X150056820Y-57165344D01*
X150066249Y-57257641D01*
X150066938Y-57264381D01*
X150069069Y-57270812D01*
X150110657Y-57396321D01*
X150115704Y-57452868D01*
X150095020Y-57505737D01*
X150052941Y-57543847D01*
X149998288Y-57559209D01*
X149942516Y-57548604D01*
X149853226Y-57508849D01*
X149853219Y-57508846D01*
X149847288Y-57506206D01*
X149840935Y-57504855D01*
X149840927Y-57504853D01*
X149666849Y-57467852D01*
X149666846Y-57467851D01*
X149660487Y-57466500D01*
X149469513Y-57466500D01*
X149463154Y-57467851D01*
X149463150Y-57467852D01*
X149289072Y-57504853D01*
X149289061Y-57504856D01*
X149282712Y-57506206D01*
X149276782Y-57508845D01*
X149276773Y-57508849D01*
X149114182Y-57581239D01*
X149114174Y-57581243D01*
X149108248Y-57583882D01*
X149102999Y-57587695D01*
X149102993Y-57587699D01*
X148959000Y-57692316D01*
X148958991Y-57692323D01*
X148953747Y-57696134D01*
X148949402Y-57700958D01*
X148944571Y-57705310D01*
X148944021Y-57704700D01*
X148908126Y-57730780D01*
X148857691Y-57741500D01*
X148031335Y-57741500D01*
X148020060Y-57740968D01*
X148012591Y-57739299D01*
X148004792Y-57739544D01*
X147944501Y-57741439D01*
X147940606Y-57741500D01*
X147912644Y-57741500D01*
X147908790Y-57741986D01*
X147908783Y-57741987D01*
X147908525Y-57742020D01*
X147896903Y-57742934D01*
X147860403Y-57744081D01*
X147860395Y-57744082D01*
X147852610Y-57744327D01*
X147845129Y-57746500D01*
X147845118Y-57746502D01*
X147833005Y-57750022D01*
X147813957Y-57753967D01*
X147801440Y-57755548D01*
X147801436Y-57755548D01*
X147793703Y-57756526D01*
X147786453Y-57759396D01*
X147786450Y-57759397D01*
X147752507Y-57772835D01*
X147741463Y-57776616D01*
X147706401Y-57786803D01*
X147706391Y-57786807D01*
X147698906Y-57788982D01*
X147692196Y-57792949D01*
X147692187Y-57792954D01*
X147681329Y-57799376D01*
X147663861Y-57807933D01*
X147644883Y-57815448D01*
X147638577Y-57820028D01*
X147638574Y-57820031D01*
X147609045Y-57841485D01*
X147599285Y-57847896D01*
X147567852Y-57866486D01*
X147567848Y-57866488D01*
X147561137Y-57870458D01*
X147555621Y-57875973D01*
X147555618Y-57875976D01*
X147546694Y-57884899D01*
X147531911Y-57897525D01*
X147521707Y-57904939D01*
X147521700Y-57904945D01*
X147515393Y-57909528D01*
X147510424Y-57915533D01*
X147510421Y-57915537D01*
X147487157Y-57943658D01*
X147479298Y-57952295D01*
X147351414Y-58080181D01*
X147311185Y-58107061D01*
X147263732Y-58116500D01*
X146748498Y-58116500D01*
X146746079Y-58116690D01*
X146746063Y-58116691D01*
X146717485Y-58118940D01*
X146717476Y-58118941D01*
X146711169Y-58119438D01*
X146705088Y-58121204D01*
X146705086Y-58121205D01*
X146558891Y-58163678D01*
X146558888Y-58163679D01*
X146551399Y-58165855D01*
X146544687Y-58169824D01*
X146544681Y-58169827D01*
X146414910Y-58246574D01*
X146414906Y-58246576D01*
X146408193Y-58250547D01*
X146402678Y-58256061D01*
X146402674Y-58256065D01*
X146296065Y-58362674D01*
X146296061Y-58362678D01*
X146290547Y-58368193D01*
X146286576Y-58374906D01*
X146286574Y-58374910D01*
X146209827Y-58504681D01*
X146209824Y-58504687D01*
X146205855Y-58511399D01*
X146159438Y-58671169D01*
X146158941Y-58677476D01*
X146158940Y-58677485D01*
X146156691Y-58706063D01*
X146156690Y-58706079D01*
X146156500Y-58708498D01*
X146156500Y-58710943D01*
X146156500Y-58942500D01*
X146139887Y-59004500D01*
X146094500Y-59049887D01*
X146032500Y-59066500D01*
X144873498Y-59066500D01*
X144871079Y-59066690D01*
X144871063Y-59066691D01*
X144842485Y-59068940D01*
X144842476Y-59068941D01*
X144836169Y-59069438D01*
X144830088Y-59071204D01*
X144830086Y-59071205D01*
X144683891Y-59113678D01*
X144683888Y-59113679D01*
X144676399Y-59115855D01*
X144669687Y-59119824D01*
X144669681Y-59119827D01*
X144539910Y-59196574D01*
X144539906Y-59196576D01*
X144533193Y-59200547D01*
X144527678Y-59206061D01*
X144527674Y-59206065D01*
X144421065Y-59312674D01*
X144421061Y-59312678D01*
X144415547Y-59318193D01*
X144411576Y-59324906D01*
X144411574Y-59324910D01*
X144334827Y-59454681D01*
X144334824Y-59454687D01*
X144330855Y-59461399D01*
X144328679Y-59468888D01*
X144328678Y-59468891D01*
X144289407Y-59604066D01*
X144284438Y-59621169D01*
X144283941Y-59627476D01*
X144283940Y-59627485D01*
X144281691Y-59656063D01*
X144281690Y-59656079D01*
X144281500Y-59658498D01*
X144281500Y-60091502D01*
X144281690Y-60093921D01*
X144281691Y-60093936D01*
X144283940Y-60122514D01*
X144283941Y-60122521D01*
X144284438Y-60128831D01*
X144330855Y-60288601D01*
X144352381Y-60325000D01*
X144356084Y-60331261D01*
X144372801Y-60382712D01*
X144366020Y-60436385D01*
X144337032Y-60482062D01*
X142163912Y-62655181D01*
X142123684Y-62682061D01*
X142076231Y-62691500D01*
X141705936Y-62691500D01*
X141705916Y-62691500D01*
X141702788Y-62691501D01*
X141699675Y-62691818D01*
X141699655Y-62691820D01*
X141607358Y-62701249D01*
X141607352Y-62701250D01*
X141600619Y-62701938D01*
X141594189Y-62704068D01*
X141594187Y-62704069D01*
X141441938Y-62754518D01*
X141441934Y-62754519D01*
X141435080Y-62756791D01*
X141428932Y-62760582D01*
X141428930Y-62760584D01*
X141292805Y-62844547D01*
X141292799Y-62844551D01*
X141286654Y-62848342D01*
X141281547Y-62853448D01*
X141281543Y-62853452D01*
X141252681Y-62882315D01*
X141197094Y-62914409D01*
X141132906Y-62914409D01*
X141077319Y-62882315D01*
X141048452Y-62853448D01*
X141043346Y-62848342D01*
X141037202Y-62844552D01*
X141033088Y-62841299D01*
X140998391Y-62798066D01*
X140986000Y-62744034D01*
X140986000Y-61521656D01*
X141001722Y-61461225D01*
X141044900Y-61416119D01*
X141068346Y-61401658D01*
X141183332Y-61286671D01*
X141238916Y-61254580D01*
X141303103Y-61254580D01*
X141358691Y-61286674D01*
X141461851Y-61389834D01*
X141473113Y-61398739D01*
X141607547Y-61481659D01*
X141620555Y-61487725D01*
X141770924Y-61537552D01*
X141784080Y-61540368D01*
X141875223Y-61549680D01*
X141881500Y-61550000D01*
X141911174Y-61550000D01*
X141924049Y-61546549D01*
X141927500Y-61533674D01*
X141927500Y-61533673D01*
X142427500Y-61533673D01*
X142430950Y-61546548D01*
X142443826Y-61549999D01*
X142473497Y-61549999D01*
X142479779Y-61549678D01*
X142570912Y-61540369D01*
X142584081Y-61537550D01*
X142734444Y-61487725D01*
X142747452Y-61481659D01*
X142881886Y-61398739D01*
X142893148Y-61389834D01*
X143004834Y-61278148D01*
X143013739Y-61266886D01*
X143096659Y-61132452D01*
X143102725Y-61119444D01*
X143152552Y-60969075D01*
X143155368Y-60955919D01*
X143164680Y-60864776D01*
X143165000Y-60858500D01*
X143165000Y-60841326D01*
X143161549Y-60828450D01*
X143148674Y-60825000D01*
X142443826Y-60825000D01*
X142430950Y-60828450D01*
X142427500Y-60841326D01*
X142427500Y-61533673D01*
X141927500Y-61533673D01*
X141927500Y-60308674D01*
X142427500Y-60308674D01*
X142430950Y-60321549D01*
X142443826Y-60325000D01*
X143148673Y-60325000D01*
X143161548Y-60321549D01*
X143164999Y-60308674D01*
X143164999Y-60291503D01*
X143164678Y-60285220D01*
X143155369Y-60194087D01*
X143152550Y-60180918D01*
X143102725Y-60030555D01*
X143096659Y-60017547D01*
X143013739Y-59883113D01*
X143004834Y-59871851D01*
X142893148Y-59760165D01*
X142881886Y-59751260D01*
X142747452Y-59668340D01*
X142734444Y-59662274D01*
X142584075Y-59612447D01*
X142570919Y-59609631D01*
X142479776Y-59600319D01*
X142473500Y-59600000D01*
X142443826Y-59600000D01*
X142430950Y-59603450D01*
X142427500Y-59616326D01*
X142427500Y-60308674D01*
X141927500Y-60308674D01*
X141927500Y-59616327D01*
X141924049Y-59603451D01*
X141911174Y-59600001D01*
X141881503Y-59600001D01*
X141875220Y-59600321D01*
X141784087Y-59609630D01*
X141770918Y-59612449D01*
X141620555Y-59662274D01*
X141607547Y-59668340D01*
X141473113Y-59751260D01*
X141461856Y-59760161D01*
X141358691Y-59863326D01*
X141303103Y-59895419D01*
X141238916Y-59895419D01*
X141183329Y-59863325D01*
X141073456Y-59753452D01*
X141073456Y-59753451D01*
X141068346Y-59748342D01*
X141062196Y-59744548D01*
X141062194Y-59744547D01*
X140957826Y-59680172D01*
X140919920Y-59656791D01*
X140913062Y-59654518D01*
X140913061Y-59654518D01*
X140760805Y-59604066D01*
X140760799Y-59604064D01*
X140754381Y-59601938D01*
X140747651Y-59601250D01*
X140747649Y-59601250D01*
X140655342Y-59591819D01*
X140655328Y-59591818D01*
X140652213Y-59591500D01*
X140649065Y-59591500D01*
X140055936Y-59591500D01*
X140055916Y-59591500D01*
X140052788Y-59591501D01*
X140049675Y-59591818D01*
X140049655Y-59591820D01*
X139957358Y-59601249D01*
X139957352Y-59601250D01*
X139950619Y-59601938D01*
X139944189Y-59604068D01*
X139944187Y-59604069D01*
X139791938Y-59654518D01*
X139791934Y-59654519D01*
X139785080Y-59656791D01*
X139778932Y-59660582D01*
X139778930Y-59660584D01*
X139642805Y-59744547D01*
X139642799Y-59744551D01*
X139636654Y-59748342D01*
X139631547Y-59753448D01*
X139631543Y-59753452D01*
X139518452Y-59866543D01*
X139518448Y-59866547D01*
X139513342Y-59871654D01*
X139509551Y-59877799D01*
X139509547Y-59877805D01*
X139434246Y-59999887D01*
X139421791Y-60020080D01*
X139419519Y-60026934D01*
X139419518Y-60026938D01*
X139369066Y-60179194D01*
X139369064Y-60179202D01*
X139366938Y-60185619D01*
X139366250Y-60192347D01*
X139366250Y-60192350D01*
X139356819Y-60284657D01*
X139356818Y-60284672D01*
X139356500Y-60287787D01*
X139356500Y-60290933D01*
X139356500Y-60290934D01*
X139356500Y-60859063D01*
X139356500Y-60859082D01*
X139356501Y-60862212D01*
X139356819Y-60865325D01*
X139356820Y-60865344D01*
X139366249Y-60957641D01*
X139366938Y-60964381D01*
X139369069Y-60970812D01*
X139418319Y-61119444D01*
X139421791Y-61129920D01*
X139425584Y-61136069D01*
X139500596Y-61257683D01*
X139513342Y-61278346D01*
X139636654Y-61401658D01*
X139660099Y-61416119D01*
X139703278Y-61461225D01*
X139719000Y-61521656D01*
X139719000Y-62666663D01*
X139703278Y-62727095D01*
X139660097Y-62772201D01*
X139542805Y-62844547D01*
X139542799Y-62844551D01*
X139536654Y-62848342D01*
X139531547Y-62853448D01*
X139531543Y-62853452D01*
X139418452Y-62966543D01*
X139418448Y-62966547D01*
X139413342Y-62971654D01*
X139409551Y-62977799D01*
X139409547Y-62977805D01*
X139325584Y-63113930D01*
X139321791Y-63120080D01*
X139319519Y-63126934D01*
X139319518Y-63126938D01*
X139269066Y-63279194D01*
X139269064Y-63279202D01*
X139266938Y-63285619D01*
X139266250Y-63292347D01*
X139266250Y-63292350D01*
X139256819Y-63384657D01*
X139256818Y-63384672D01*
X139256500Y-63387787D01*
X139256500Y-63390933D01*
X139256500Y-63390934D01*
X139256500Y-63959063D01*
X139256500Y-63959082D01*
X138989620Y-63959082D01*
X139122676Y-51984082D01*
X148381500Y-51984082D01*
X148381501Y-51987212D01*
X148381819Y-51990325D01*
X148381820Y-51990344D01*
X148391249Y-52082641D01*
X148391938Y-52089381D01*
X148446791Y-52254920D01*
X148538342Y-52403346D01*
X148661654Y-52526658D01*
X148810080Y-52618209D01*
X148975619Y-52673062D01*
X149077787Y-52683500D01*
X149435145Y-52683499D01*
X149493359Y-52698013D01*
X149537945Y-52738158D01*
X149558466Y-52794537D01*
X149564528Y-52852216D01*
X149564529Y-52852223D01*
X149565208Y-52858678D01*
X149567215Y-52864857D01*
X149567216Y-52864858D01*
X149608949Y-52993300D01*
X149624223Y-53040306D01*
X149719710Y-53205694D01*
X149847497Y-53347616D01*
X149852747Y-53351430D01*
X149852750Y-53351433D01*
X149995613Y-53455229D01*
X150001998Y-53459868D01*
X150176462Y-53537544D01*
X150182820Y-53538895D01*
X150182822Y-53538896D01*
X150219624Y-53546718D01*
X150363263Y-53577250D01*
X150547734Y-53577250D01*
X150554237Y-53577250D01*
X150741038Y-53537544D01*
X150915502Y-53459868D01*
X151070003Y-53347616D01*
X151197790Y-53205694D01*
X151293277Y-53040306D01*
X151295285Y-53034127D01*
X151296205Y-53032061D01*
X151323347Y-52993300D01*
X151363033Y-52967529D01*
X151409483Y-52958500D01*
X151629057Y-52958500D01*
X151631502Y-52958500D01*
X151668831Y-52955562D01*
X151828601Y-52909145D01*
X151971807Y-52824453D01*
X152089453Y-52706807D01*
X152174145Y-52563601D01*
X152220562Y-52403831D01*
X152223500Y-52366502D01*
X152223500Y-51058498D01*
X152220562Y-51021169D01*
X152174145Y-50861399D01*
X152132268Y-50790589D01*
X152115000Y-50727468D01*
X152115000Y-50103826D01*
X152111549Y-50090950D01*
X152098674Y-50087500D01*
X151581326Y-50087500D01*
X151568450Y-50090950D01*
X151565000Y-50103826D01*
X151565000Y-50251000D01*
X151548387Y-50313000D01*
X151503000Y-50358387D01*
X151441000Y-50375000D01*
X150464000Y-50375000D01*
X150402000Y-50358387D01*
X150356613Y-50313000D01*
X150340000Y-50251000D01*
X150340000Y-50178826D01*
X150336549Y-50165950D01*
X150323674Y-50162500D01*
X148406327Y-50162500D01*
X148393451Y-50165950D01*
X148390001Y-50178826D01*
X148390001Y-50258497D01*
X148390321Y-50264779D01*
X148399630Y-50355912D01*
X148402449Y-50369081D01*
X148452274Y-50519444D01*
X148458340Y-50532452D01*
X148541260Y-50666886D01*
X148550165Y-50678148D01*
X148553324Y-50681307D01*
X148585417Y-50736892D01*
X148585419Y-50801076D01*
X148553330Y-50856663D01*
X148543453Y-50866540D01*
X148543441Y-50866554D01*
X148538342Y-50871654D01*
X148534552Y-50877797D01*
X148534549Y-50877802D01*
X148450584Y-51013930D01*
X148446791Y-51020080D01*
X148444519Y-51026934D01*
X148444518Y-51026938D01*
X148394066Y-51179194D01*
X148394064Y-51179202D01*
X148391938Y-51185619D01*
X148391250Y-51192347D01*
X148391250Y-51192350D01*
X148381819Y-51284657D01*
X148381818Y-51284672D01*
X148381500Y-51287787D01*
X148381500Y-51290933D01*
X148381500Y-51290934D01*
X148381500Y-51984063D01*
X148381500Y-51984082D01*
X139122676Y-51984082D01*
X139148653Y-49646174D01*
X148390000Y-49646174D01*
X148393450Y-49659049D01*
X148406326Y-49662500D01*
X149098674Y-49662500D01*
X149111549Y-49659049D01*
X149115000Y-49646174D01*
X149615000Y-49646174D01*
X149618450Y-49659049D01*
X149631326Y-49662500D01*
X150323673Y-49662500D01*
X150336548Y-49659049D01*
X150339999Y-49646174D01*
X150339999Y-49571174D01*
X151565000Y-49571174D01*
X151568450Y-49584049D01*
X151581326Y-49587500D01*
X152098674Y-49587500D01*
X152111549Y-49584049D01*
X152115000Y-49571174D01*
X152615000Y-49571174D01*
X152618450Y-49584049D01*
X152631326Y-49587500D01*
X153148674Y-49587500D01*
X153161549Y-49584049D01*
X153165000Y-49571174D01*
X153165000Y-49186803D01*
X153164808Y-49181923D01*
X153162597Y-49153826D01*
X153160331Y-49141420D01*
X153118458Y-48997294D01*
X153112310Y-48983087D01*
X153036655Y-48855161D01*
X153027164Y-48842925D01*
X152922074Y-48737835D01*
X152909838Y-48728344D01*
X152781912Y-48652689D01*
X152767705Y-48646541D01*
X152625776Y-48605307D01*
X152618706Y-48606713D01*
X152615000Y-48619856D01*
X152615000Y-49571174D01*
X152115000Y-49571174D01*
X152115000Y-48619856D01*
X152111293Y-48606713D01*
X152104223Y-48605307D01*
X151962294Y-48646541D01*
X151948087Y-48652689D01*
X151820161Y-48728344D01*
X151807925Y-48737835D01*
X151702835Y-48842925D01*
X151693344Y-48855161D01*
X151617689Y-48983087D01*
X151611541Y-48997294D01*
X151569668Y-49141420D01*
X151567402Y-49153826D01*
X151565191Y-49181923D01*
X151565000Y-49186803D01*
X151565000Y-49571174D01*
X150339999Y-49571174D01*
X150339999Y-49566503D01*
X150339678Y-49560220D01*
X150330369Y-49469087D01*
X150327550Y-49455918D01*
X150277725Y-49305555D01*
X150271659Y-49292547D01*
X150188739Y-49158113D01*
X150179834Y-49146851D01*
X150068148Y-49035165D01*
X150056886Y-49026260D01*
X149922452Y-48943340D01*
X149909444Y-48937274D01*
X149759075Y-48887447D01*
X149745919Y-48884631D01*
X149654776Y-48875319D01*
X149648500Y-48875000D01*
X149631326Y-48875000D01*
X149618450Y-48878450D01*
X149615000Y-48891326D01*
X149615000Y-49646174D01*
X149115000Y-49646174D01*
X149115000Y-48891327D01*
X149111549Y-48878451D01*
X149098674Y-48875001D01*
X149081503Y-48875001D01*
X149075220Y-48875321D01*
X148984087Y-48884630D01*
X148970918Y-48887449D01*
X148820555Y-48937274D01*
X148807547Y-48943340D01*
X148673113Y-49026260D01*
X148661851Y-49035165D01*
X148550165Y-49146851D01*
X148541260Y-49158113D01*
X148458340Y-49292547D01*
X148452274Y-49305555D01*
X148402447Y-49455924D01*
X148399631Y-49469080D01*
X148390319Y-49560223D01*
X148390000Y-49566500D01*
X148390000Y-49646174D01*
X139148653Y-49646174D01*
X139163444Y-48314964D01*
X139180453Y-48253650D01*
X139225636Y-48208843D01*
X139287090Y-48192345D01*
X145556388Y-48175000D01*
X165441691Y-48175000D01*
X165503491Y-48191498D01*
G37*
%TD.AperFunction*%
%TD*%
M02*
