%TF.GenerationSoftware,KiCad,Pcbnew,(7.0.0)*%
%TF.CreationDate,2023-11-20T19:32:08-05:00*%
%TF.ProjectId,4272MAVproxS_R1,34323732-4d41-4567-9072-6f78535f5231,rev?*%
%TF.SameCoordinates,Original*%
%TF.FileFunction,Copper,L2,Bot*%
%TF.FilePolarity,Positive*%
%FSLAX46Y46*%
G04 Gerber Fmt 4.6, Leading zero omitted, Abs format (unit mm)*
G04 Created by KiCad (PCBNEW (7.0.0)) date 2023-11-20 19:32:08*
%MOMM*%
%LPD*%
G01*
G04 APERTURE LIST*
%TA.AperFunction,ComponentPad*%
%ADD10R,1.635000X1.635000*%
%TD*%
%TA.AperFunction,ComponentPad*%
%ADD11C,1.635000*%
%TD*%
%TA.AperFunction,ViaPad*%
%ADD12C,0.800000*%
%TD*%
G04 APERTURE END LIST*
D10*
%TO.P,P1,1*%
%TO.N,GND*%
X154864999Y-63674999D03*
D11*
%TO.P,P1,2*%
%TO.N,+3.3V*%
X152325000Y-63675000D03*
%TO.P,P1,3*%
%TO.N,Net-(Q1-G)*%
X149785000Y-63675000D03*
%TD*%
D12*
%TO.N,+3.3V*%
X154365000Y-56875000D03*
X150458750Y-52668750D03*
X149565000Y-58375000D03*
X160765000Y-60575000D03*
%TD*%
%TA.AperFunction,Conductor*%
%TO.N,+3.3V*%
G36*
X165503491Y-48191498D02*
G01*
X165548846Y-48236600D01*
X165565689Y-48298307D01*
X165664310Y-65951535D01*
X165648132Y-66013472D01*
X165603219Y-66059087D01*
X165541540Y-66076222D01*
X155565284Y-66174997D01*
X155564803Y-66175001D01*
X139090438Y-66274244D01*
X139027925Y-66257768D01*
X138982200Y-66212066D01*
X138965693Y-66149561D01*
X138972070Y-64995317D01*
X138979364Y-63675000D01*
X148453935Y-63675000D01*
X148474157Y-63906137D01*
X148475554Y-63911352D01*
X148475556Y-63911361D01*
X148532805Y-64125018D01*
X148532808Y-64125026D01*
X148534208Y-64130251D01*
X148536496Y-64135159D01*
X148536497Y-64135160D01*
X148629977Y-64335630D01*
X148629978Y-64335631D01*
X148632264Y-64340533D01*
X148635363Y-64344960D01*
X148635365Y-64344962D01*
X148762239Y-64526157D01*
X148762242Y-64526161D01*
X148765345Y-64530592D01*
X148929408Y-64694655D01*
X149119467Y-64827736D01*
X149329749Y-64925792D01*
X149334980Y-64927193D01*
X149334981Y-64927194D01*
X149524264Y-64977912D01*
X149553863Y-64985843D01*
X149785000Y-65006065D01*
X150016137Y-64985843D01*
X150240251Y-64925792D01*
X150450533Y-64827736D01*
X150538318Y-64766268D01*
X151590651Y-64766268D01*
X151598084Y-64774379D01*
X151659293Y-64817238D01*
X151668643Y-64822636D01*
X151867757Y-64915485D01*
X151877899Y-64919177D01*
X152090120Y-64976040D01*
X152100735Y-64977912D01*
X152319605Y-64997061D01*
X152330395Y-64997061D01*
X152549264Y-64977912D01*
X152559879Y-64976040D01*
X152772100Y-64919177D01*
X152782242Y-64915485D01*
X152981364Y-64822633D01*
X152990696Y-64817245D01*
X153051916Y-64774378D01*
X153059347Y-64766269D01*
X153053433Y-64756986D01*
X152336542Y-64040095D01*
X152325000Y-64033431D01*
X152313457Y-64040095D01*
X151596562Y-64756989D01*
X151590651Y-64766268D01*
X150538318Y-64766268D01*
X150640592Y-64694655D01*
X150804655Y-64530592D01*
X150937736Y-64340533D01*
X150947307Y-64320007D01*
X150993063Y-64267832D01*
X151059688Y-64248412D01*
X151126314Y-64267832D01*
X151172072Y-64320008D01*
X151177366Y-64331361D01*
X151182761Y-64340706D01*
X151225619Y-64401914D01*
X151233730Y-64409347D01*
X151243009Y-64403436D01*
X151959904Y-63686542D01*
X151966568Y-63675000D01*
X152683431Y-63675000D01*
X152690095Y-63686542D01*
X153406986Y-64403433D01*
X153417622Y-64410209D01*
X153431185Y-64411995D01*
X153486123Y-64433359D01*
X153524989Y-64477677D01*
X153539000Y-64534934D01*
X153539000Y-64541138D01*
X153545511Y-64601701D01*
X153548217Y-64608958D01*
X153548219Y-64608963D01*
X153593511Y-64730394D01*
X153596611Y-64738704D01*
X153601925Y-64745803D01*
X153601926Y-64745804D01*
X153660937Y-64824634D01*
X153684239Y-64855761D01*
X153801296Y-64943389D01*
X153938299Y-64994489D01*
X153998862Y-65001000D01*
X155727828Y-65001000D01*
X155731138Y-65001000D01*
X155791701Y-64994489D01*
X155928704Y-64943389D01*
X156045761Y-64855761D01*
X156133389Y-64738704D01*
X156184489Y-64601701D01*
X156191000Y-64541138D01*
X156191000Y-62808862D01*
X156184489Y-62748299D01*
X156133389Y-62611296D01*
X156045761Y-62494239D01*
X155928704Y-62406611D01*
X155920396Y-62403512D01*
X155920394Y-62403511D01*
X155798963Y-62358219D01*
X155798958Y-62358217D01*
X155791701Y-62355511D01*
X155783997Y-62354682D01*
X155783994Y-62354682D01*
X155734424Y-62349353D01*
X155734418Y-62349352D01*
X155731138Y-62349000D01*
X153998862Y-62349000D01*
X153995582Y-62349352D01*
X153995575Y-62349353D01*
X153946005Y-62354682D01*
X153946000Y-62354682D01*
X153938299Y-62355511D01*
X153931043Y-62358217D01*
X153931036Y-62358219D01*
X153809605Y-62403511D01*
X153809599Y-62403513D01*
X153801296Y-62406611D01*
X153794198Y-62411923D01*
X153794195Y-62411926D01*
X153691335Y-62488926D01*
X153691331Y-62488929D01*
X153684239Y-62494239D01*
X153678929Y-62501331D01*
X153678926Y-62501335D01*
X153601926Y-62604195D01*
X153601923Y-62604198D01*
X153596611Y-62611296D01*
X153593513Y-62619599D01*
X153593511Y-62619605D01*
X153548219Y-62741036D01*
X153548217Y-62741043D01*
X153545511Y-62748299D01*
X153544682Y-62756000D01*
X153544682Y-62756005D01*
X153539353Y-62805575D01*
X153539000Y-62808862D01*
X153539000Y-62812172D01*
X153539000Y-62815066D01*
X153524989Y-62872323D01*
X153486123Y-62916641D01*
X153431185Y-62938005D01*
X153417621Y-62939790D01*
X153406985Y-62946566D01*
X152690095Y-63663457D01*
X152683431Y-63675000D01*
X151966568Y-63675000D01*
X151959904Y-63663457D01*
X151243010Y-62946563D01*
X151233731Y-62940652D01*
X151225620Y-62948085D01*
X151182761Y-63009294D01*
X151177359Y-63018650D01*
X151172070Y-63029994D01*
X151126313Y-63082169D01*
X151059688Y-63101588D01*
X150993064Y-63082168D01*
X150947307Y-63029993D01*
X150947303Y-63029986D01*
X150937736Y-63009468D01*
X150804655Y-62819408D01*
X150640592Y-62655345D01*
X150636161Y-62652242D01*
X150636157Y-62652239D01*
X150538317Y-62583731D01*
X151590652Y-62583731D01*
X151596563Y-62593010D01*
X152313457Y-63309904D01*
X152325000Y-63316568D01*
X152336542Y-63309904D01*
X153053436Y-62593009D01*
X153059347Y-62583730D01*
X153051914Y-62575619D01*
X152990706Y-62532761D01*
X152981356Y-62527363D01*
X152782242Y-62434514D01*
X152772100Y-62430822D01*
X152559879Y-62373959D01*
X152549264Y-62372087D01*
X152330395Y-62352939D01*
X152319605Y-62352939D01*
X152100735Y-62372087D01*
X152090120Y-62373959D01*
X151877899Y-62430822D01*
X151867757Y-62434514D01*
X151668644Y-62527363D01*
X151659294Y-62532761D01*
X151598085Y-62575620D01*
X151590652Y-62583731D01*
X150538317Y-62583731D01*
X150454962Y-62525365D01*
X150454960Y-62525363D01*
X150450533Y-62522264D01*
X150445636Y-62519980D01*
X150445630Y-62519977D01*
X150245160Y-62426497D01*
X150245159Y-62426496D01*
X150240251Y-62424208D01*
X150235026Y-62422808D01*
X150235018Y-62422805D01*
X150021361Y-62365556D01*
X150021352Y-62365554D01*
X150016137Y-62364157D01*
X150010749Y-62363685D01*
X150010746Y-62363685D01*
X149790395Y-62344407D01*
X149785000Y-62343935D01*
X149779605Y-62344407D01*
X149559253Y-62363685D01*
X149559248Y-62363685D01*
X149553863Y-62364157D01*
X149548649Y-62365554D01*
X149548638Y-62365556D01*
X149334981Y-62422805D01*
X149334969Y-62422809D01*
X149329749Y-62424208D01*
X149324844Y-62426494D01*
X149324839Y-62426497D01*
X149124378Y-62519974D01*
X149124374Y-62519976D01*
X149119468Y-62522264D01*
X149115035Y-62525367D01*
X149115028Y-62525372D01*
X148933843Y-62652239D01*
X148933838Y-62652242D01*
X148929408Y-62655345D01*
X148925584Y-62659168D01*
X148925578Y-62659174D01*
X148769174Y-62815578D01*
X148769168Y-62815584D01*
X148765345Y-62819408D01*
X148762242Y-62823838D01*
X148762239Y-62823843D01*
X148635372Y-63005028D01*
X148635367Y-63005035D01*
X148632264Y-63009468D01*
X148629976Y-63014374D01*
X148629974Y-63014378D01*
X148536497Y-63214839D01*
X148536494Y-63214844D01*
X148534208Y-63219749D01*
X148532809Y-63224969D01*
X148532805Y-63224981D01*
X148475556Y-63438638D01*
X148475554Y-63438649D01*
X148474157Y-63443863D01*
X148453935Y-63675000D01*
X138979364Y-63675000D01*
X139064220Y-48315930D01*
X139081002Y-48254323D01*
X139126218Y-48209232D01*
X139187870Y-48192620D01*
X145556388Y-48175000D01*
X165441691Y-48175000D01*
X165503491Y-48191498D01*
G37*
%TD.AperFunction*%
%TD*%
M02*
