%TF.GenerationSoftware,KiCad,Pcbnew,(6.0.7)*%
%TF.CreationDate,2022-11-15T19:19:08-05:00*%
%TF.ProjectId,4272Pwr_Sub_Dist,34323732-5077-4725-9f53-75625f446973,rev?*%
%TF.SameCoordinates,Original*%
%TF.FileFunction,Copper,L2,Bot*%
%TF.FilePolarity,Positive*%
%FSLAX46Y46*%
G04 Gerber Fmt 4.6, Leading zero omitted, Abs format (unit mm)*
G04 Created by KiCad (PCBNEW (6.0.7)) date 2022-11-15 19:19:08*
%MOMM*%
%LPD*%
G01*
G04 APERTURE LIST*
G04 Aperture macros list*
%AMRoundRect*
0 Rectangle with rounded corners*
0 $1 Rounding radius*
0 $2 $3 $4 $5 $6 $7 $8 $9 X,Y pos of 4 corners*
0 Add a 4 corners polygon primitive as box body*
4,1,4,$2,$3,$4,$5,$6,$7,$8,$9,$2,$3,0*
0 Add four circle primitives for the rounded corners*
1,1,$1+$1,$2,$3*
1,1,$1+$1,$4,$5*
1,1,$1+$1,$6,$7*
1,1,$1+$1,$8,$9*
0 Add four rect primitives between the rounded corners*
20,1,$1+$1,$2,$3,$4,$5,0*
20,1,$1+$1,$4,$5,$6,$7,0*
20,1,$1+$1,$6,$7,$8,$9,0*
20,1,$1+$1,$8,$9,$2,$3,0*%
G04 Aperture macros list end*
%TA.AperFunction,ComponentPad*%
%ADD10C,5.400000*%
%TD*%
%TA.AperFunction,ConnectorPad*%
%ADD11C,10.000000*%
%TD*%
%TA.AperFunction,ComponentPad*%
%ADD12RoundRect,0.250000X-0.620000X-0.620000X0.620000X-0.620000X0.620000X0.620000X-0.620000X0.620000X0*%
%TD*%
%TA.AperFunction,ComponentPad*%
%ADD13C,1.740000*%
%TD*%
%TA.AperFunction,ComponentPad*%
%ADD14RoundRect,0.250000X0.620000X0.620000X-0.620000X0.620000X-0.620000X-0.620000X0.620000X-0.620000X0*%
%TD*%
G04 APERTURE END LIST*
D10*
%TO.P,REF\u002A\u002A,1*%
%TO.N,N/C*%
X165800000Y-60000000D03*
D11*
X165800000Y-60000000D03*
%TD*%
D12*
%TO.P,P6,1,Pin_1*%
%TO.N,GND*%
X147730000Y-63000000D03*
D13*
%TO.P,P6,2,Pin_2*%
%TO.N,+5V*%
X150270000Y-63000000D03*
%TD*%
D12*
%TO.P,P5,1,Pin_1*%
%TO.N,GND*%
X139230000Y-63000000D03*
D13*
%TO.P,P5,2,Pin_2*%
%TO.N,+5V*%
X141770000Y-63000000D03*
%TD*%
D12*
%TO.P,P4,1,Pin_1*%
%TO.N,GND*%
X130730000Y-63000000D03*
D13*
%TO.P,P4,2,Pin_2*%
%TO.N,+5V*%
X133270000Y-63000000D03*
%TD*%
D14*
%TO.P,P3,1,Pin_1*%
%TO.N,GND*%
X150270000Y-57000000D03*
D13*
%TO.P,P3,2,Pin_2*%
%TO.N,+5V*%
X147730000Y-57000000D03*
%TD*%
D14*
%TO.P,P2,1,Pin_1*%
%TO.N,GND*%
X141770000Y-57000000D03*
D13*
%TO.P,P2,2,Pin_2*%
%TO.N,+5V*%
X139230000Y-57000000D03*
%TD*%
D14*
%TO.P,P1,1,Pin_1*%
%TO.N,GND*%
X133270000Y-57000000D03*
D13*
%TO.P,P1,2,Pin_2*%
%TO.N,+5V*%
X130730000Y-57000000D03*
%TD*%
D11*
%TO.P,REF\u002A\u002A,1*%
%TO.N,N/C*%
X115000000Y-60000000D03*
D10*
X115000000Y-60000000D03*
%TD*%
%TA.AperFunction,Conductor*%
%TO.N,GND*%
G36*
X155942121Y-50020002D02*
G01*
X155988614Y-50073658D01*
X156000000Y-50126000D01*
X156000000Y-69374000D01*
X155979998Y-69442121D01*
X155926342Y-69488614D01*
X155874000Y-69500000D01*
X124626000Y-69500000D01*
X124557879Y-69479998D01*
X124511386Y-69426342D01*
X124500000Y-69374000D01*
X124500000Y-63667095D01*
X129352001Y-63667095D01*
X129352338Y-63673614D01*
X129362257Y-63769206D01*
X129365149Y-63782600D01*
X129416588Y-63936784D01*
X129422761Y-63949962D01*
X129508063Y-64087807D01*
X129517099Y-64099208D01*
X129631829Y-64213739D01*
X129643240Y-64222751D01*
X129781243Y-64307816D01*
X129794424Y-64313963D01*
X129948710Y-64365138D01*
X129962086Y-64368005D01*
X130056438Y-64377672D01*
X130062854Y-64378000D01*
X130457885Y-64378000D01*
X130473124Y-64373525D01*
X130474329Y-64372135D01*
X130476000Y-64364452D01*
X130476000Y-64359884D01*
X130984000Y-64359884D01*
X130988475Y-64375123D01*
X130989865Y-64376328D01*
X130997548Y-64377999D01*
X131397095Y-64377999D01*
X131403614Y-64377662D01*
X131499206Y-64367743D01*
X131512600Y-64364851D01*
X131666784Y-64313412D01*
X131679962Y-64307239D01*
X131817807Y-64221937D01*
X131829208Y-64212901D01*
X131943739Y-64098171D01*
X131952751Y-64086760D01*
X132041658Y-63942525D01*
X132043653Y-63943755D01*
X132083121Y-63898930D01*
X132151399Y-63879469D01*
X132219359Y-63900011D01*
X132245636Y-63922967D01*
X132298823Y-63984368D01*
X132298828Y-63984373D01*
X132302209Y-63988276D01*
X132476615Y-64133071D01*
X132481082Y-64135681D01*
X132667867Y-64244829D01*
X132667870Y-64244831D01*
X132672329Y-64247436D01*
X132884093Y-64328301D01*
X132889161Y-64329332D01*
X132889164Y-64329333D01*
X132998172Y-64351511D01*
X133106221Y-64373494D01*
X133111394Y-64373684D01*
X133111397Y-64373684D01*
X133327583Y-64381611D01*
X133327587Y-64381611D01*
X133332747Y-64381800D01*
X133337867Y-64381144D01*
X133337869Y-64381144D01*
X133442478Y-64367743D01*
X133557588Y-64352997D01*
X133562537Y-64351512D01*
X133562543Y-64351511D01*
X133769756Y-64289344D01*
X133769755Y-64289344D01*
X133774706Y-64287859D01*
X133978270Y-64188134D01*
X133982475Y-64185134D01*
X133982481Y-64185131D01*
X134158609Y-64059500D01*
X134158611Y-64059498D01*
X134162813Y-64056501D01*
X134323378Y-63896495D01*
X134335613Y-63879469D01*
X134452636Y-63716613D01*
X134455654Y-63712413D01*
X134478052Y-63667095D01*
X137852001Y-63667095D01*
X137852338Y-63673614D01*
X137862257Y-63769206D01*
X137865149Y-63782600D01*
X137916588Y-63936784D01*
X137922761Y-63949962D01*
X138008063Y-64087807D01*
X138017099Y-64099208D01*
X138131829Y-64213739D01*
X138143240Y-64222751D01*
X138281243Y-64307816D01*
X138294424Y-64313963D01*
X138448710Y-64365138D01*
X138462086Y-64368005D01*
X138556438Y-64377672D01*
X138562854Y-64378000D01*
X138957885Y-64378000D01*
X138973124Y-64373525D01*
X138974329Y-64372135D01*
X138976000Y-64364452D01*
X138976000Y-64359884D01*
X139484000Y-64359884D01*
X139488475Y-64375123D01*
X139489865Y-64376328D01*
X139497548Y-64377999D01*
X139897095Y-64377999D01*
X139903614Y-64377662D01*
X139999206Y-64367743D01*
X140012600Y-64364851D01*
X140166784Y-64313412D01*
X140179962Y-64307239D01*
X140317807Y-64221937D01*
X140329208Y-64212901D01*
X140443739Y-64098171D01*
X140452751Y-64086760D01*
X140541658Y-63942525D01*
X140543653Y-63943755D01*
X140583121Y-63898930D01*
X140651399Y-63879469D01*
X140719359Y-63900011D01*
X140745636Y-63922967D01*
X140798823Y-63984368D01*
X140798828Y-63984373D01*
X140802209Y-63988276D01*
X140976615Y-64133071D01*
X140981082Y-64135681D01*
X141167867Y-64244829D01*
X141167870Y-64244831D01*
X141172329Y-64247436D01*
X141384093Y-64328301D01*
X141389161Y-64329332D01*
X141389164Y-64329333D01*
X141498172Y-64351511D01*
X141606221Y-64373494D01*
X141611394Y-64373684D01*
X141611397Y-64373684D01*
X141827583Y-64381611D01*
X141827587Y-64381611D01*
X141832747Y-64381800D01*
X141837867Y-64381144D01*
X141837869Y-64381144D01*
X141942478Y-64367743D01*
X142057588Y-64352997D01*
X142062537Y-64351512D01*
X142062543Y-64351511D01*
X142269756Y-64289344D01*
X142269755Y-64289344D01*
X142274706Y-64287859D01*
X142478270Y-64188134D01*
X142482475Y-64185134D01*
X142482481Y-64185131D01*
X142658609Y-64059500D01*
X142658611Y-64059498D01*
X142662813Y-64056501D01*
X142823378Y-63896495D01*
X142835613Y-63879469D01*
X142952636Y-63716613D01*
X142955654Y-63712413D01*
X142978052Y-63667095D01*
X146352001Y-63667095D01*
X146352338Y-63673614D01*
X146362257Y-63769206D01*
X146365149Y-63782600D01*
X146416588Y-63936784D01*
X146422761Y-63949962D01*
X146508063Y-64087807D01*
X146517099Y-64099208D01*
X146631829Y-64213739D01*
X146643240Y-64222751D01*
X146781243Y-64307816D01*
X146794424Y-64313963D01*
X146948710Y-64365138D01*
X146962086Y-64368005D01*
X147056438Y-64377672D01*
X147062854Y-64378000D01*
X147457885Y-64378000D01*
X147473124Y-64373525D01*
X147474329Y-64372135D01*
X147476000Y-64364452D01*
X147476000Y-64359884D01*
X147984000Y-64359884D01*
X147988475Y-64375123D01*
X147989865Y-64376328D01*
X147997548Y-64377999D01*
X148397095Y-64377999D01*
X148403614Y-64377662D01*
X148499206Y-64367743D01*
X148512600Y-64364851D01*
X148666784Y-64313412D01*
X148679962Y-64307239D01*
X148817807Y-64221937D01*
X148829208Y-64212901D01*
X148943739Y-64098171D01*
X148952751Y-64086760D01*
X149041658Y-63942525D01*
X149043653Y-63943755D01*
X149083121Y-63898930D01*
X149151399Y-63879469D01*
X149219359Y-63900011D01*
X149245636Y-63922967D01*
X149298823Y-63984368D01*
X149298828Y-63984373D01*
X149302209Y-63988276D01*
X149476615Y-64133071D01*
X149481082Y-64135681D01*
X149667867Y-64244829D01*
X149667870Y-64244831D01*
X149672329Y-64247436D01*
X149884093Y-64328301D01*
X149889161Y-64329332D01*
X149889164Y-64329333D01*
X149998172Y-64351511D01*
X150106221Y-64373494D01*
X150111394Y-64373684D01*
X150111397Y-64373684D01*
X150327583Y-64381611D01*
X150327587Y-64381611D01*
X150332747Y-64381800D01*
X150337867Y-64381144D01*
X150337869Y-64381144D01*
X150442478Y-64367743D01*
X150557588Y-64352997D01*
X150562537Y-64351512D01*
X150562543Y-64351511D01*
X150769756Y-64289344D01*
X150769755Y-64289344D01*
X150774706Y-64287859D01*
X150978270Y-64188134D01*
X150982475Y-64185134D01*
X150982481Y-64185131D01*
X151158609Y-64059500D01*
X151158611Y-64059498D01*
X151162813Y-64056501D01*
X151323378Y-63896495D01*
X151335613Y-63879469D01*
X151452636Y-63716613D01*
X151455654Y-63712413D01*
X151556089Y-63509199D01*
X151621985Y-63292310D01*
X151651573Y-63067570D01*
X151653224Y-63000000D01*
X151647077Y-62925233D01*
X151635074Y-62779235D01*
X151635073Y-62779229D01*
X151634650Y-62774084D01*
X151579428Y-62554234D01*
X151577369Y-62549498D01*
X151491100Y-62351093D01*
X151491098Y-62351090D01*
X151489040Y-62346356D01*
X151476155Y-62326438D01*
X151368722Y-62160373D01*
X151368720Y-62160370D01*
X151365914Y-62156033D01*
X151213356Y-61988374D01*
X151209305Y-61985175D01*
X151209301Y-61985171D01*
X151039519Y-61851085D01*
X151039515Y-61851083D01*
X151035464Y-61847883D01*
X150837015Y-61738334D01*
X150832146Y-61736610D01*
X150832142Y-61736608D01*
X150628214Y-61664393D01*
X150628210Y-61664392D01*
X150623339Y-61662667D01*
X150618246Y-61661760D01*
X150618243Y-61661759D01*
X150545832Y-61648861D01*
X150400173Y-61622915D01*
X150314179Y-61621864D01*
X150178681Y-61620208D01*
X150178679Y-61620208D01*
X150173511Y-61620145D01*
X149949441Y-61654433D01*
X149733979Y-61724857D01*
X149729391Y-61727245D01*
X149729387Y-61727247D01*
X149537502Y-61827136D01*
X149532913Y-61829525D01*
X149528780Y-61832628D01*
X149528777Y-61832630D01*
X149421415Y-61913240D01*
X149351641Y-61965628D01*
X149326255Y-61992193D01*
X149241261Y-62081134D01*
X149179737Y-62116564D01*
X149108824Y-62113107D01*
X149051038Y-62071861D01*
X149041346Y-62056112D01*
X149041094Y-62056268D01*
X148951937Y-61912193D01*
X148942901Y-61900792D01*
X148828171Y-61786261D01*
X148816760Y-61777249D01*
X148678757Y-61692184D01*
X148665576Y-61686037D01*
X148511290Y-61634862D01*
X148497914Y-61631995D01*
X148403562Y-61622328D01*
X148397145Y-61622000D01*
X148002115Y-61622000D01*
X147986876Y-61626475D01*
X147985671Y-61627865D01*
X147984000Y-61635548D01*
X147984000Y-64359884D01*
X147476000Y-64359884D01*
X147476000Y-63272115D01*
X147471525Y-63256876D01*
X147470135Y-63255671D01*
X147462452Y-63254000D01*
X146370116Y-63254000D01*
X146354877Y-63258475D01*
X146353672Y-63259865D01*
X146352001Y-63267548D01*
X146352001Y-63667095D01*
X142978052Y-63667095D01*
X143056089Y-63509199D01*
X143121985Y-63292310D01*
X143151573Y-63067570D01*
X143153224Y-63000000D01*
X143147077Y-62925233D01*
X143135074Y-62779235D01*
X143135073Y-62779229D01*
X143134650Y-62774084D01*
X143123046Y-62727885D01*
X146352000Y-62727885D01*
X146356475Y-62743124D01*
X146357865Y-62744329D01*
X146365548Y-62746000D01*
X147457885Y-62746000D01*
X147473124Y-62741525D01*
X147474329Y-62740135D01*
X147476000Y-62732452D01*
X147476000Y-61640116D01*
X147471525Y-61624877D01*
X147470135Y-61623672D01*
X147462452Y-61622001D01*
X147062905Y-61622001D01*
X147056386Y-61622338D01*
X146960794Y-61632257D01*
X146947400Y-61635149D01*
X146793216Y-61686588D01*
X146780038Y-61692761D01*
X146642193Y-61778063D01*
X146630792Y-61787099D01*
X146516261Y-61901829D01*
X146507249Y-61913240D01*
X146422184Y-62051243D01*
X146416037Y-62064424D01*
X146364862Y-62218710D01*
X146361995Y-62232086D01*
X146352328Y-62326438D01*
X146352000Y-62332855D01*
X146352000Y-62727885D01*
X143123046Y-62727885D01*
X143079428Y-62554234D01*
X143077369Y-62549498D01*
X142991100Y-62351093D01*
X142991098Y-62351090D01*
X142989040Y-62346356D01*
X142976155Y-62326438D01*
X142868722Y-62160373D01*
X142868720Y-62160370D01*
X142865914Y-62156033D01*
X142713356Y-61988374D01*
X142709305Y-61985175D01*
X142709301Y-61985171D01*
X142539519Y-61851085D01*
X142539515Y-61851083D01*
X142535464Y-61847883D01*
X142337015Y-61738334D01*
X142332146Y-61736610D01*
X142332142Y-61736608D01*
X142128214Y-61664393D01*
X142128210Y-61664392D01*
X142123339Y-61662667D01*
X142118246Y-61661760D01*
X142118243Y-61661759D01*
X142045832Y-61648861D01*
X141900173Y-61622915D01*
X141814179Y-61621864D01*
X141678681Y-61620208D01*
X141678679Y-61620208D01*
X141673511Y-61620145D01*
X141449441Y-61654433D01*
X141233979Y-61724857D01*
X141229391Y-61727245D01*
X141229387Y-61727247D01*
X141037502Y-61827136D01*
X141032913Y-61829525D01*
X141028780Y-61832628D01*
X141028777Y-61832630D01*
X140921415Y-61913240D01*
X140851641Y-61965628D01*
X140826255Y-61992193D01*
X140741261Y-62081134D01*
X140679737Y-62116564D01*
X140608824Y-62113107D01*
X140551038Y-62071861D01*
X140541346Y-62056112D01*
X140541094Y-62056268D01*
X140451937Y-61912193D01*
X140442901Y-61900792D01*
X140328171Y-61786261D01*
X140316760Y-61777249D01*
X140178757Y-61692184D01*
X140165576Y-61686037D01*
X140011290Y-61634862D01*
X139997914Y-61631995D01*
X139903562Y-61622328D01*
X139897145Y-61622000D01*
X139502115Y-61622000D01*
X139486876Y-61626475D01*
X139485671Y-61627865D01*
X139484000Y-61635548D01*
X139484000Y-64359884D01*
X138976000Y-64359884D01*
X138976000Y-63272115D01*
X138971525Y-63256876D01*
X138970135Y-63255671D01*
X138962452Y-63254000D01*
X137870116Y-63254000D01*
X137854877Y-63258475D01*
X137853672Y-63259865D01*
X137852001Y-63267548D01*
X137852001Y-63667095D01*
X134478052Y-63667095D01*
X134556089Y-63509199D01*
X134621985Y-63292310D01*
X134651573Y-63067570D01*
X134653224Y-63000000D01*
X134647077Y-62925233D01*
X134635074Y-62779235D01*
X134635073Y-62779229D01*
X134634650Y-62774084D01*
X134623046Y-62727885D01*
X137852000Y-62727885D01*
X137856475Y-62743124D01*
X137857865Y-62744329D01*
X137865548Y-62746000D01*
X138957885Y-62746000D01*
X138973124Y-62741525D01*
X138974329Y-62740135D01*
X138976000Y-62732452D01*
X138976000Y-61640116D01*
X138971525Y-61624877D01*
X138970135Y-61623672D01*
X138962452Y-61622001D01*
X138562905Y-61622001D01*
X138556386Y-61622338D01*
X138460794Y-61632257D01*
X138447400Y-61635149D01*
X138293216Y-61686588D01*
X138280038Y-61692761D01*
X138142193Y-61778063D01*
X138130792Y-61787099D01*
X138016261Y-61901829D01*
X138007249Y-61913240D01*
X137922184Y-62051243D01*
X137916037Y-62064424D01*
X137864862Y-62218710D01*
X137861995Y-62232086D01*
X137852328Y-62326438D01*
X137852000Y-62332855D01*
X137852000Y-62727885D01*
X134623046Y-62727885D01*
X134579428Y-62554234D01*
X134577369Y-62549498D01*
X134491100Y-62351093D01*
X134491098Y-62351090D01*
X134489040Y-62346356D01*
X134476155Y-62326438D01*
X134368722Y-62160373D01*
X134368720Y-62160370D01*
X134365914Y-62156033D01*
X134213356Y-61988374D01*
X134209305Y-61985175D01*
X134209301Y-61985171D01*
X134039519Y-61851085D01*
X134039515Y-61851083D01*
X134035464Y-61847883D01*
X133837015Y-61738334D01*
X133832146Y-61736610D01*
X133832142Y-61736608D01*
X133628214Y-61664393D01*
X133628210Y-61664392D01*
X133623339Y-61662667D01*
X133618246Y-61661760D01*
X133618243Y-61661759D01*
X133545832Y-61648861D01*
X133400173Y-61622915D01*
X133314179Y-61621864D01*
X133178681Y-61620208D01*
X133178679Y-61620208D01*
X133173511Y-61620145D01*
X132949441Y-61654433D01*
X132733979Y-61724857D01*
X132729391Y-61727245D01*
X132729387Y-61727247D01*
X132537502Y-61827136D01*
X132532913Y-61829525D01*
X132528780Y-61832628D01*
X132528777Y-61832630D01*
X132421415Y-61913240D01*
X132351641Y-61965628D01*
X132326255Y-61992193D01*
X132241261Y-62081134D01*
X132179737Y-62116564D01*
X132108824Y-62113107D01*
X132051038Y-62071861D01*
X132041346Y-62056112D01*
X132041094Y-62056268D01*
X131951937Y-61912193D01*
X131942901Y-61900792D01*
X131828171Y-61786261D01*
X131816760Y-61777249D01*
X131678757Y-61692184D01*
X131665576Y-61686037D01*
X131511290Y-61634862D01*
X131497914Y-61631995D01*
X131403562Y-61622328D01*
X131397145Y-61622000D01*
X131002115Y-61622000D01*
X130986876Y-61626475D01*
X130985671Y-61627865D01*
X130984000Y-61635548D01*
X130984000Y-64359884D01*
X130476000Y-64359884D01*
X130476000Y-63272115D01*
X130471525Y-63256876D01*
X130470135Y-63255671D01*
X130462452Y-63254000D01*
X129370116Y-63254000D01*
X129354877Y-63258475D01*
X129353672Y-63259865D01*
X129352001Y-63267548D01*
X129352001Y-63667095D01*
X124500000Y-63667095D01*
X124500000Y-62727885D01*
X129352000Y-62727885D01*
X129356475Y-62743124D01*
X129357865Y-62744329D01*
X129365548Y-62746000D01*
X130457885Y-62746000D01*
X130473124Y-62741525D01*
X130474329Y-62740135D01*
X130476000Y-62732452D01*
X130476000Y-61640116D01*
X130471525Y-61624877D01*
X130470135Y-61623672D01*
X130462452Y-61622001D01*
X130062905Y-61622001D01*
X130056386Y-61622338D01*
X129960794Y-61632257D01*
X129947400Y-61635149D01*
X129793216Y-61686588D01*
X129780038Y-61692761D01*
X129642193Y-61778063D01*
X129630792Y-61787099D01*
X129516261Y-61901829D01*
X129507249Y-61913240D01*
X129422184Y-62051243D01*
X129416037Y-62064424D01*
X129364862Y-62218710D01*
X129361995Y-62232086D01*
X129352328Y-62326438D01*
X129352000Y-62332855D01*
X129352000Y-62727885D01*
X124500000Y-62727885D01*
X124500000Y-56966205D01*
X129347189Y-56966205D01*
X129347486Y-56971358D01*
X129347486Y-56971361D01*
X129353033Y-57067570D01*
X129360237Y-57192508D01*
X129361374Y-57197554D01*
X129361375Y-57197560D01*
X129375417Y-57259865D01*
X129410072Y-57413640D01*
X129495354Y-57623665D01*
X129613793Y-57816940D01*
X129617174Y-57820843D01*
X129758824Y-57984369D01*
X129758828Y-57984373D01*
X129762209Y-57988276D01*
X129936615Y-58133071D01*
X129941082Y-58135681D01*
X130127867Y-58244829D01*
X130127870Y-58244831D01*
X130132329Y-58247436D01*
X130344093Y-58328301D01*
X130349161Y-58329332D01*
X130349164Y-58329333D01*
X130458172Y-58351511D01*
X130566221Y-58373494D01*
X130571394Y-58373684D01*
X130571397Y-58373684D01*
X130787583Y-58381611D01*
X130787587Y-58381611D01*
X130792747Y-58381800D01*
X130797867Y-58381144D01*
X130797869Y-58381144D01*
X130902478Y-58367743D01*
X131017588Y-58352997D01*
X131022537Y-58351512D01*
X131022543Y-58351511D01*
X131229756Y-58289344D01*
X131229755Y-58289344D01*
X131234706Y-58287859D01*
X131438270Y-58188134D01*
X131442475Y-58185134D01*
X131442481Y-58185131D01*
X131618609Y-58059500D01*
X131618611Y-58059498D01*
X131622813Y-58056501D01*
X131761607Y-57918190D01*
X131823978Y-57884274D01*
X131894785Y-57889462D01*
X131951547Y-57932108D01*
X131958614Y-57943913D01*
X131958906Y-57943732D01*
X132048063Y-58087807D01*
X132057099Y-58099208D01*
X132171829Y-58213739D01*
X132183240Y-58222751D01*
X132321243Y-58307816D01*
X132334424Y-58313963D01*
X132488710Y-58365138D01*
X132502086Y-58368005D01*
X132596438Y-58377672D01*
X132602854Y-58378000D01*
X132997885Y-58378000D01*
X133013124Y-58373525D01*
X133014329Y-58372135D01*
X133016000Y-58364452D01*
X133016000Y-58359884D01*
X133524000Y-58359884D01*
X133528475Y-58375123D01*
X133529865Y-58376328D01*
X133537548Y-58377999D01*
X133937095Y-58377999D01*
X133943614Y-58377662D01*
X134039206Y-58367743D01*
X134052600Y-58364851D01*
X134206784Y-58313412D01*
X134219962Y-58307239D01*
X134357807Y-58221937D01*
X134369208Y-58212901D01*
X134483739Y-58098171D01*
X134492751Y-58086760D01*
X134577816Y-57948757D01*
X134583963Y-57935576D01*
X134635138Y-57781290D01*
X134638005Y-57767914D01*
X134647672Y-57673562D01*
X134648000Y-57667146D01*
X134648000Y-57272115D01*
X134643525Y-57256876D01*
X134642135Y-57255671D01*
X134634452Y-57254000D01*
X133542115Y-57254000D01*
X133526876Y-57258475D01*
X133525671Y-57259865D01*
X133524000Y-57267548D01*
X133524000Y-58359884D01*
X133016000Y-58359884D01*
X133016000Y-56966205D01*
X137847189Y-56966205D01*
X137847486Y-56971358D01*
X137847486Y-56971361D01*
X137853033Y-57067570D01*
X137860237Y-57192508D01*
X137861374Y-57197554D01*
X137861375Y-57197560D01*
X137875417Y-57259865D01*
X137910072Y-57413640D01*
X137995354Y-57623665D01*
X138113793Y-57816940D01*
X138117174Y-57820843D01*
X138258824Y-57984369D01*
X138258828Y-57984373D01*
X138262209Y-57988276D01*
X138436615Y-58133071D01*
X138441082Y-58135681D01*
X138627867Y-58244829D01*
X138627870Y-58244831D01*
X138632329Y-58247436D01*
X138844093Y-58328301D01*
X138849161Y-58329332D01*
X138849164Y-58329333D01*
X138958172Y-58351511D01*
X139066221Y-58373494D01*
X139071394Y-58373684D01*
X139071397Y-58373684D01*
X139287583Y-58381611D01*
X139287587Y-58381611D01*
X139292747Y-58381800D01*
X139297867Y-58381144D01*
X139297869Y-58381144D01*
X139402478Y-58367743D01*
X139517588Y-58352997D01*
X139522537Y-58351512D01*
X139522543Y-58351511D01*
X139729756Y-58289344D01*
X139729755Y-58289344D01*
X139734706Y-58287859D01*
X139938270Y-58188134D01*
X139942475Y-58185134D01*
X139942481Y-58185131D01*
X140118609Y-58059500D01*
X140118611Y-58059498D01*
X140122813Y-58056501D01*
X140261607Y-57918190D01*
X140323978Y-57884274D01*
X140394785Y-57889462D01*
X140451547Y-57932108D01*
X140458614Y-57943913D01*
X140458906Y-57943732D01*
X140548063Y-58087807D01*
X140557099Y-58099208D01*
X140671829Y-58213739D01*
X140683240Y-58222751D01*
X140821243Y-58307816D01*
X140834424Y-58313963D01*
X140988710Y-58365138D01*
X141002086Y-58368005D01*
X141096438Y-58377672D01*
X141102854Y-58378000D01*
X141497885Y-58378000D01*
X141513124Y-58373525D01*
X141514329Y-58372135D01*
X141516000Y-58364452D01*
X141516000Y-58359884D01*
X142024000Y-58359884D01*
X142028475Y-58375123D01*
X142029865Y-58376328D01*
X142037548Y-58377999D01*
X142437095Y-58377999D01*
X142443614Y-58377662D01*
X142539206Y-58367743D01*
X142552600Y-58364851D01*
X142706784Y-58313412D01*
X142719962Y-58307239D01*
X142857807Y-58221937D01*
X142869208Y-58212901D01*
X142983739Y-58098171D01*
X142992751Y-58086760D01*
X143077816Y-57948757D01*
X143083963Y-57935576D01*
X143135138Y-57781290D01*
X143138005Y-57767914D01*
X143147672Y-57673562D01*
X143148000Y-57667146D01*
X143148000Y-57272115D01*
X143143525Y-57256876D01*
X143142135Y-57255671D01*
X143134452Y-57254000D01*
X142042115Y-57254000D01*
X142026876Y-57258475D01*
X142025671Y-57259865D01*
X142024000Y-57267548D01*
X142024000Y-58359884D01*
X141516000Y-58359884D01*
X141516000Y-56966205D01*
X146347189Y-56966205D01*
X146347486Y-56971358D01*
X146347486Y-56971361D01*
X146353033Y-57067570D01*
X146360237Y-57192508D01*
X146361374Y-57197554D01*
X146361375Y-57197560D01*
X146375417Y-57259865D01*
X146410072Y-57413640D01*
X146495354Y-57623665D01*
X146613793Y-57816940D01*
X146617174Y-57820843D01*
X146758824Y-57984369D01*
X146758828Y-57984373D01*
X146762209Y-57988276D01*
X146936615Y-58133071D01*
X146941082Y-58135681D01*
X147127867Y-58244829D01*
X147127870Y-58244831D01*
X147132329Y-58247436D01*
X147344093Y-58328301D01*
X147349161Y-58329332D01*
X147349164Y-58329333D01*
X147458172Y-58351511D01*
X147566221Y-58373494D01*
X147571394Y-58373684D01*
X147571397Y-58373684D01*
X147787583Y-58381611D01*
X147787587Y-58381611D01*
X147792747Y-58381800D01*
X147797867Y-58381144D01*
X147797869Y-58381144D01*
X147902478Y-58367743D01*
X148017588Y-58352997D01*
X148022537Y-58351512D01*
X148022543Y-58351511D01*
X148229756Y-58289344D01*
X148229755Y-58289344D01*
X148234706Y-58287859D01*
X148438270Y-58188134D01*
X148442475Y-58185134D01*
X148442481Y-58185131D01*
X148618609Y-58059500D01*
X148618611Y-58059498D01*
X148622813Y-58056501D01*
X148761607Y-57918190D01*
X148823978Y-57884274D01*
X148894785Y-57889462D01*
X148951547Y-57932108D01*
X148958614Y-57943913D01*
X148958906Y-57943732D01*
X149048063Y-58087807D01*
X149057099Y-58099208D01*
X149171829Y-58213739D01*
X149183240Y-58222751D01*
X149321243Y-58307816D01*
X149334424Y-58313963D01*
X149488710Y-58365138D01*
X149502086Y-58368005D01*
X149596438Y-58377672D01*
X149602854Y-58378000D01*
X149997885Y-58378000D01*
X150013124Y-58373525D01*
X150014329Y-58372135D01*
X150016000Y-58364452D01*
X150016000Y-58359884D01*
X150524000Y-58359884D01*
X150528475Y-58375123D01*
X150529865Y-58376328D01*
X150537548Y-58377999D01*
X150937095Y-58377999D01*
X150943614Y-58377662D01*
X151039206Y-58367743D01*
X151052600Y-58364851D01*
X151206784Y-58313412D01*
X151219962Y-58307239D01*
X151357807Y-58221937D01*
X151369208Y-58212901D01*
X151483739Y-58098171D01*
X151492751Y-58086760D01*
X151577816Y-57948757D01*
X151583963Y-57935576D01*
X151635138Y-57781290D01*
X151638005Y-57767914D01*
X151647672Y-57673562D01*
X151648000Y-57667146D01*
X151648000Y-57272115D01*
X151643525Y-57256876D01*
X151642135Y-57255671D01*
X151634452Y-57254000D01*
X150542115Y-57254000D01*
X150526876Y-57258475D01*
X150525671Y-57259865D01*
X150524000Y-57267548D01*
X150524000Y-58359884D01*
X150016000Y-58359884D01*
X150016000Y-56727885D01*
X150524000Y-56727885D01*
X150528475Y-56743124D01*
X150529865Y-56744329D01*
X150537548Y-56746000D01*
X151629884Y-56746000D01*
X151645123Y-56741525D01*
X151646328Y-56740135D01*
X151647999Y-56732452D01*
X151647999Y-56332905D01*
X151647662Y-56326386D01*
X151637743Y-56230794D01*
X151634851Y-56217400D01*
X151583412Y-56063216D01*
X151577239Y-56050038D01*
X151491937Y-55912193D01*
X151482901Y-55900792D01*
X151368171Y-55786261D01*
X151356760Y-55777249D01*
X151218757Y-55692184D01*
X151205576Y-55686037D01*
X151051290Y-55634862D01*
X151037914Y-55631995D01*
X150943562Y-55622328D01*
X150937145Y-55622000D01*
X150542115Y-55622000D01*
X150526876Y-55626475D01*
X150525671Y-55627865D01*
X150524000Y-55635548D01*
X150524000Y-56727885D01*
X150016000Y-56727885D01*
X150016000Y-55640116D01*
X150011525Y-55624877D01*
X150010135Y-55623672D01*
X150002452Y-55622001D01*
X149602905Y-55622001D01*
X149596386Y-55622338D01*
X149500794Y-55632257D01*
X149487400Y-55635149D01*
X149333216Y-55686588D01*
X149320038Y-55692761D01*
X149182193Y-55778063D01*
X149170792Y-55787099D01*
X149056261Y-55901829D01*
X149047249Y-55913240D01*
X148958342Y-56057475D01*
X148956401Y-56056279D01*
X148916784Y-56101275D01*
X148848507Y-56120737D01*
X148780547Y-56100196D01*
X148756311Y-56079540D01*
X148676837Y-55992198D01*
X148676828Y-55992189D01*
X148673356Y-55988374D01*
X148669305Y-55985175D01*
X148669301Y-55985171D01*
X148499519Y-55851085D01*
X148499515Y-55851083D01*
X148495464Y-55847883D01*
X148297015Y-55738334D01*
X148292146Y-55736610D01*
X148292142Y-55736608D01*
X148088214Y-55664393D01*
X148088210Y-55664392D01*
X148083339Y-55662667D01*
X148078246Y-55661760D01*
X148078243Y-55661759D01*
X148005832Y-55648861D01*
X147860173Y-55622915D01*
X147774179Y-55621864D01*
X147638681Y-55620208D01*
X147638679Y-55620208D01*
X147633511Y-55620145D01*
X147409441Y-55654433D01*
X147193979Y-55724857D01*
X147189391Y-55727245D01*
X147189387Y-55727247D01*
X146997502Y-55827136D01*
X146992913Y-55829525D01*
X146988780Y-55832628D01*
X146988777Y-55832630D01*
X146881415Y-55913240D01*
X146811641Y-55965628D01*
X146655033Y-56129509D01*
X146652119Y-56133781D01*
X146652118Y-56133782D01*
X146595078Y-56217400D01*
X146527294Y-56316768D01*
X146431854Y-56522375D01*
X146371277Y-56740810D01*
X146347189Y-56966205D01*
X141516000Y-56966205D01*
X141516000Y-56727885D01*
X142024000Y-56727885D01*
X142028475Y-56743124D01*
X142029865Y-56744329D01*
X142037548Y-56746000D01*
X143129884Y-56746000D01*
X143145123Y-56741525D01*
X143146328Y-56740135D01*
X143147999Y-56732452D01*
X143147999Y-56332905D01*
X143147662Y-56326386D01*
X143137743Y-56230794D01*
X143134851Y-56217400D01*
X143083412Y-56063216D01*
X143077239Y-56050038D01*
X142991937Y-55912193D01*
X142982901Y-55900792D01*
X142868171Y-55786261D01*
X142856760Y-55777249D01*
X142718757Y-55692184D01*
X142705576Y-55686037D01*
X142551290Y-55634862D01*
X142537914Y-55631995D01*
X142443562Y-55622328D01*
X142437145Y-55622000D01*
X142042115Y-55622000D01*
X142026876Y-55626475D01*
X142025671Y-55627865D01*
X142024000Y-55635548D01*
X142024000Y-56727885D01*
X141516000Y-56727885D01*
X141516000Y-55640116D01*
X141511525Y-55624877D01*
X141510135Y-55623672D01*
X141502452Y-55622001D01*
X141102905Y-55622001D01*
X141096386Y-55622338D01*
X141000794Y-55632257D01*
X140987400Y-55635149D01*
X140833216Y-55686588D01*
X140820038Y-55692761D01*
X140682193Y-55778063D01*
X140670792Y-55787099D01*
X140556261Y-55901829D01*
X140547249Y-55913240D01*
X140458342Y-56057475D01*
X140456401Y-56056279D01*
X140416784Y-56101275D01*
X140348507Y-56120737D01*
X140280547Y-56100196D01*
X140256311Y-56079540D01*
X140176837Y-55992198D01*
X140176828Y-55992189D01*
X140173356Y-55988374D01*
X140169305Y-55985175D01*
X140169301Y-55985171D01*
X139999519Y-55851085D01*
X139999515Y-55851083D01*
X139995464Y-55847883D01*
X139797015Y-55738334D01*
X139792146Y-55736610D01*
X139792142Y-55736608D01*
X139588214Y-55664393D01*
X139588210Y-55664392D01*
X139583339Y-55662667D01*
X139578246Y-55661760D01*
X139578243Y-55661759D01*
X139505832Y-55648861D01*
X139360173Y-55622915D01*
X139274179Y-55621864D01*
X139138681Y-55620208D01*
X139138679Y-55620208D01*
X139133511Y-55620145D01*
X138909441Y-55654433D01*
X138693979Y-55724857D01*
X138689391Y-55727245D01*
X138689387Y-55727247D01*
X138497502Y-55827136D01*
X138492913Y-55829525D01*
X138488780Y-55832628D01*
X138488777Y-55832630D01*
X138381415Y-55913240D01*
X138311641Y-55965628D01*
X138155033Y-56129509D01*
X138152119Y-56133781D01*
X138152118Y-56133782D01*
X138095078Y-56217400D01*
X138027294Y-56316768D01*
X137931854Y-56522375D01*
X137871277Y-56740810D01*
X137847189Y-56966205D01*
X133016000Y-56966205D01*
X133016000Y-56727885D01*
X133524000Y-56727885D01*
X133528475Y-56743124D01*
X133529865Y-56744329D01*
X133537548Y-56746000D01*
X134629884Y-56746000D01*
X134645123Y-56741525D01*
X134646328Y-56740135D01*
X134647999Y-56732452D01*
X134647999Y-56332905D01*
X134647662Y-56326386D01*
X134637743Y-56230794D01*
X134634851Y-56217400D01*
X134583412Y-56063216D01*
X134577239Y-56050038D01*
X134491937Y-55912193D01*
X134482901Y-55900792D01*
X134368171Y-55786261D01*
X134356760Y-55777249D01*
X134218757Y-55692184D01*
X134205576Y-55686037D01*
X134051290Y-55634862D01*
X134037914Y-55631995D01*
X133943562Y-55622328D01*
X133937145Y-55622000D01*
X133542115Y-55622000D01*
X133526876Y-55626475D01*
X133525671Y-55627865D01*
X133524000Y-55635548D01*
X133524000Y-56727885D01*
X133016000Y-56727885D01*
X133016000Y-55640116D01*
X133011525Y-55624877D01*
X133010135Y-55623672D01*
X133002452Y-55622001D01*
X132602905Y-55622001D01*
X132596386Y-55622338D01*
X132500794Y-55632257D01*
X132487400Y-55635149D01*
X132333216Y-55686588D01*
X132320038Y-55692761D01*
X132182193Y-55778063D01*
X132170792Y-55787099D01*
X132056261Y-55901829D01*
X132047249Y-55913240D01*
X131958342Y-56057475D01*
X131956401Y-56056279D01*
X131916784Y-56101275D01*
X131848507Y-56120737D01*
X131780547Y-56100196D01*
X131756311Y-56079540D01*
X131676837Y-55992198D01*
X131676828Y-55992189D01*
X131673356Y-55988374D01*
X131669305Y-55985175D01*
X131669301Y-55985171D01*
X131499519Y-55851085D01*
X131499515Y-55851083D01*
X131495464Y-55847883D01*
X131297015Y-55738334D01*
X131292146Y-55736610D01*
X131292142Y-55736608D01*
X131088214Y-55664393D01*
X131088210Y-55664392D01*
X131083339Y-55662667D01*
X131078246Y-55661760D01*
X131078243Y-55661759D01*
X131005832Y-55648861D01*
X130860173Y-55622915D01*
X130774179Y-55621864D01*
X130638681Y-55620208D01*
X130638679Y-55620208D01*
X130633511Y-55620145D01*
X130409441Y-55654433D01*
X130193979Y-55724857D01*
X130189391Y-55727245D01*
X130189387Y-55727247D01*
X129997502Y-55827136D01*
X129992913Y-55829525D01*
X129988780Y-55832628D01*
X129988777Y-55832630D01*
X129881415Y-55913240D01*
X129811641Y-55965628D01*
X129655033Y-56129509D01*
X129652119Y-56133781D01*
X129652118Y-56133782D01*
X129595078Y-56217400D01*
X129527294Y-56316768D01*
X129431854Y-56522375D01*
X129371277Y-56740810D01*
X129347189Y-56966205D01*
X124500000Y-56966205D01*
X124500000Y-50126000D01*
X124520002Y-50057879D01*
X124573658Y-50011386D01*
X124626000Y-50000000D01*
X155874000Y-50000000D01*
X155942121Y-50020002D01*
G37*
%TD.AperFunction*%
%TD*%
M02*
