%TF.GenerationSoftware,KiCad,Pcbnew,(6.0.6)*%
%TF.CreationDate,2022-08-09T20:17:37-04:00*%
%TF.ProjectId,4272ShaftEncoder,34323732-5368-4616-9674-456e636f6465,rev?*%
%TF.SameCoordinates,Original*%
%TF.FileFunction,Copper,L1,Top*%
%TF.FilePolarity,Positive*%
%FSLAX46Y46*%
G04 Gerber Fmt 4.6, Leading zero omitted, Abs format (unit mm)*
G04 Created by KiCad (PCBNEW (6.0.6)) date 2022-08-09 20:17:37*
%MOMM*%
%LPD*%
G01*
G04 APERTURE LIST*
G04 Aperture macros list*
%AMRoundRect*
0 Rectangle with rounded corners*
0 $1 Rounding radius*
0 $2 $3 $4 $5 $6 $7 $8 $9 X,Y pos of 4 corners*
0 Add a 4 corners polygon primitive as box body*
4,1,4,$2,$3,$4,$5,$6,$7,$8,$9,$2,$3,0*
0 Add four circle primitives for the rounded corners*
1,1,$1+$1,$2,$3*
1,1,$1+$1,$4,$5*
1,1,$1+$1,$6,$7*
1,1,$1+$1,$8,$9*
0 Add four rect primitives between the rounded corners*
20,1,$1+$1,$2,$3,$4,$5,0*
20,1,$1+$1,$4,$5,$6,$7,0*
20,1,$1+$1,$6,$7,$8,$9,0*
20,1,$1+$1,$8,$9,$2,$3,0*%
G04 Aperture macros list end*
%TA.AperFunction,ComponentPad*%
%ADD10RoundRect,0.190218X-0.684782X-0.684782X0.684782X-0.684782X0.684782X0.684782X-0.684782X0.684782X0*%
%TD*%
%TA.AperFunction,ComponentPad*%
%ADD11C,1.750000*%
%TD*%
%TA.AperFunction,SMDPad,CuDef*%
%ADD12RoundRect,0.237500X0.237500X-0.250000X0.237500X0.250000X-0.237500X0.250000X-0.237500X-0.250000X0*%
%TD*%
%TA.AperFunction,SMDPad,CuDef*%
%ADD13RoundRect,0.250000X-0.337500X-0.475000X0.337500X-0.475000X0.337500X0.475000X-0.337500X0.475000X0*%
%TD*%
%TA.AperFunction,SMDPad,CuDef*%
%ADD14RoundRect,0.150000X-0.150000X0.587500X-0.150000X-0.587500X0.150000X-0.587500X0.150000X0.587500X0*%
%TD*%
%TA.AperFunction,SMDPad,CuDef*%
%ADD15RoundRect,0.237500X-0.237500X0.250000X-0.237500X-0.250000X0.237500X-0.250000X0.237500X0.250000X0*%
%TD*%
%TA.AperFunction,SMDPad,CuDef*%
%ADD16RoundRect,0.237500X-0.287500X-0.237500X0.287500X-0.237500X0.287500X0.237500X-0.287500X0.237500X0*%
%TD*%
%TA.AperFunction,SMDPad,CuDef*%
%ADD17RoundRect,0.237500X0.237500X-0.300000X0.237500X0.300000X-0.237500X0.300000X-0.237500X-0.300000X0*%
%TD*%
%TA.AperFunction,SMDPad,CuDef*%
%ADD18RoundRect,0.237500X-0.300000X-0.237500X0.300000X-0.237500X0.300000X0.237500X-0.300000X0.237500X0*%
%TD*%
%TA.AperFunction,ViaPad*%
%ADD19C,0.800000*%
%TD*%
%TA.AperFunction,Conductor*%
%ADD20C,0.250000*%
%TD*%
%TA.AperFunction,Conductor*%
%ADD21C,0.500000*%
%TD*%
%TA.AperFunction,Conductor*%
%ADD22C,0.350000*%
%TD*%
%TA.AperFunction,Conductor*%
%ADD23C,0.300000*%
%TD*%
G04 APERTURE END LIST*
D10*
%TO.P,J1,1,Pin_1*%
%TO.N,GND*%
X145500000Y-89500000D03*
D11*
%TO.P,J1,2,Pin_2*%
%TO.N,+3.3V*%
X148040000Y-89500000D03*
%TO.P,J1,3,Pin_3*%
%TO.N,/OUT*%
X150580000Y-89500000D03*
%TD*%
D12*
%TO.P,R1,2*%
%TO.N,Net-(R1-Pad2)*%
X144500000Y-74087500D03*
%TO.P,R1,1*%
%TO.N,+3.3V*%
X144500000Y-75912500D03*
%TD*%
D13*
%TO.P,C2,1*%
%TO.N,+3.3V*%
X152925000Y-78500000D03*
%TO.P,C2,2*%
%TO.N,GND*%
X155000000Y-78500000D03*
%TD*%
D14*
%TO.P,TVS1,3,A*%
%TO.N,GND*%
X143500000Y-86937500D03*
%TO.P,TVS1,2,K*%
%TO.N,/OUT*%
X142550000Y-85062500D03*
%TO.P,TVS1,1,K*%
%TO.N,+3.3V*%
X144450000Y-85062500D03*
%TD*%
D15*
%TO.P,R7,1*%
%TO.N,Net-(R7-Pad1)*%
X153500000Y-74087500D03*
%TO.P,R7,2*%
%TO.N,+3.3V*%
X153500000Y-75912500D03*
%TD*%
D12*
%TO.P,R3,2*%
%TO.N,Net-(LED3-Pad2)*%
X147500000Y-74087500D03*
%TO.P,R3,1*%
%TO.N,+3.3V*%
X147500000Y-75912500D03*
%TD*%
D16*
%TO.P,LED3,1*%
%TO.N,GND*%
X147250000Y-71500000D03*
%TO.P,LED3,2*%
%TO.N,Net-(LED3-Pad2)*%
X149000000Y-71500000D03*
%TD*%
D17*
%TO.P,C3,1*%
%TO.N,/OUT*%
X143000000Y-80500000D03*
%TO.P,C3,2*%
%TO.N,GND*%
X143000000Y-78775000D03*
%TD*%
D15*
%TO.P,R6,2*%
%TO.N,+3.3V*%
X150500000Y-75912500D03*
%TO.P,R6,1*%
%TO.N,Net-(R6-Pad1)*%
X150500000Y-74087500D03*
%TD*%
%TO.P,R2,2*%
%TO.N,GND*%
X141750000Y-75912500D03*
%TO.P,R2,1*%
%TO.N,Net-(R1-Pad2)*%
X141750000Y-74087500D03*
%TD*%
D18*
%TO.P,C1,1*%
%TO.N,+3.3V*%
X152637500Y-80500000D03*
%TO.P,C1,2*%
%TO.N,GND*%
X154362500Y-80500000D03*
%TD*%
D19*
%TO.N,GND*%
X153200000Y-92200000D03*
X153800000Y-82000000D03*
X143800000Y-83400000D03*
X144400000Y-79400000D03*
X145750000Y-85500000D03*
X141250000Y-80500000D03*
X146250000Y-81500000D03*
X155000000Y-76400000D03*
X146000000Y-74500000D03*
%TO.N,/OUT*%
X147500000Y-80000000D03*
%TO.N,Net-(R7-Pad1)*%
X150500000Y-72500000D03*
%TO.N,Net-(R6-Pad1)*%
X149250000Y-74600000D03*
%TO.N,Net-(R1-Pad2)*%
X143162500Y-74087500D03*
%TO.N,+3.3V*%
X151000000Y-80400000D03*
X152000000Y-77000000D03*
%TD*%
D20*
%TO.N,Net-(R6-Pad1)*%
X149250000Y-74600000D02*
X149762500Y-74087500D01*
X149762500Y-74087500D02*
X150500000Y-74087500D01*
D21*
%TO.N,GND*%
X143500000Y-83700000D02*
X143500000Y-86937500D01*
D20*
X143800000Y-83400000D02*
X143500000Y-83700000D01*
D21*
%TO.N,+3.3V*%
X152537500Y-80400000D02*
X152637500Y-80500000D01*
X151000000Y-80400000D02*
X152537500Y-80400000D01*
X149112500Y-80400000D02*
X144450000Y-85062500D01*
X151000000Y-80400000D02*
X149112500Y-80400000D01*
X151000000Y-78000000D02*
X152000000Y-77000000D01*
X151000000Y-80400000D02*
X151000000Y-78000000D01*
D22*
%TO.N,/OUT*%
X142500000Y-90000000D02*
X142500000Y-85112500D01*
X143500000Y-91000000D02*
X142500000Y-90000000D01*
D23*
X149080000Y-91000000D02*
X143500000Y-91000000D01*
D20*
X142500000Y-85112500D02*
X142550000Y-85062500D01*
D22*
X150580000Y-89500000D02*
X149080000Y-91000000D01*
D20*
X146500000Y-80500000D02*
X147000000Y-80000000D01*
X147000000Y-80000000D02*
X147500000Y-80000000D01*
X143000000Y-80500000D02*
X146500000Y-80500000D01*
D21*
%TO.N,+3.3V*%
X152000000Y-76000000D02*
X152000000Y-77000000D01*
D20*
X152087500Y-75912500D02*
X152000000Y-76000000D01*
D21*
X152087500Y-75912500D02*
X153500000Y-75912500D01*
X150500000Y-75912500D02*
X152087500Y-75912500D01*
D20*
%TO.N,Net-(R7-Pad1)*%
X151912500Y-72500000D02*
X150500000Y-72500000D01*
X153500000Y-74087500D02*
X151912500Y-72500000D01*
%TO.N,Net-(R1-Pad2)*%
X143162500Y-74087500D02*
X144500000Y-74087500D01*
X141750000Y-74087500D02*
X143162500Y-74087500D01*
%TO.N,Net-(LED3-Pad2)*%
X149000000Y-72587500D02*
X149000000Y-71500000D01*
X147500000Y-74087500D02*
X149000000Y-72587500D01*
D21*
%TO.N,+3.3V*%
X152000000Y-77575000D02*
X152925000Y-78500000D01*
X152000000Y-77000000D02*
X152000000Y-77575000D01*
X147500010Y-75912497D02*
X150500004Y-75912497D01*
X144500000Y-75912500D02*
X147500000Y-75912500D01*
D20*
%TO.N,/OUT*%
X142550000Y-80950000D02*
X142550000Y-85062500D01*
X143000000Y-80500000D02*
X142550000Y-80950000D01*
%TO.N,+3.3V*%
X144450000Y-85062500D02*
X144450000Y-85910000D01*
D21*
X144450000Y-85910000D02*
X148040000Y-89500000D01*
D20*
%TO.N,GND*%
X143500000Y-87500000D02*
X143500000Y-86937500D01*
D21*
X145500000Y-89500000D02*
X143500000Y-87500000D01*
%TD*%
%TA.AperFunction,Conductor*%
%TO.N,GND*%
G36*
X154558621Y-80266002D02*
G01*
X154605114Y-80319658D01*
X154616500Y-80372000D01*
X154616500Y-81464885D01*
X154620975Y-81480124D01*
X154622365Y-81481329D01*
X154630048Y-81483000D01*
X154675425Y-81483000D01*
X154743546Y-81503002D01*
X154790039Y-81556658D01*
X154800143Y-81626932D01*
X154786601Y-81668294D01*
X154694923Y-81840190D01*
X154691302Y-81846530D01*
X154455714Y-82232499D01*
X154451737Y-82238609D01*
X154446094Y-82246751D01*
X154208793Y-82589129D01*
X154194147Y-82610260D01*
X154189826Y-82616123D01*
X153936575Y-82939657D01*
X153920747Y-82956448D01*
X153908867Y-82966934D01*
X153897190Y-82985429D01*
X153885097Y-83001561D01*
X153870622Y-83017951D01*
X153866807Y-83026076D01*
X153866806Y-83026078D01*
X153856441Y-83048155D01*
X153848931Y-83061869D01*
X153831108Y-83090099D01*
X153828639Y-83098731D01*
X153825094Y-83111122D01*
X153818010Y-83130012D01*
X153808719Y-83149800D01*
X153805291Y-83171816D01*
X153803585Y-83182775D01*
X153800224Y-83198051D01*
X153794273Y-83218853D01*
X153791044Y-83230139D01*
X153791096Y-83239115D01*
X153791096Y-83239117D01*
X153791498Y-83308028D01*
X153791500Y-83308762D01*
X153791500Y-92825500D01*
X153771498Y-92893621D01*
X153717842Y-92940114D01*
X153665500Y-92951500D01*
X152010252Y-92951500D01*
X151942131Y-92931498D01*
X151895638Y-92877842D01*
X151885534Y-92807568D01*
X151889917Y-92788146D01*
X151949835Y-92595178D01*
X151980996Y-92360069D01*
X151972099Y-92123072D01*
X151923397Y-91890962D01*
X151921440Y-91886006D01*
X151921438Y-91886000D01*
X151838242Y-91675337D01*
X151836283Y-91670376D01*
X151713249Y-91467621D01*
X151557811Y-91288495D01*
X151514019Y-91252588D01*
X151378543Y-91141503D01*
X151378537Y-91141499D01*
X151374415Y-91138119D01*
X151168304Y-91020794D01*
X151163284Y-91018972D01*
X151163280Y-91018970D01*
X151132385Y-91007756D01*
X151075176Y-90965712D01*
X151049780Y-90899413D01*
X151064260Y-90829909D01*
X151119942Y-90776166D01*
X151286197Y-90694718D01*
X151290839Y-90692444D01*
X151295043Y-90689446D01*
X151295047Y-90689443D01*
X151471847Y-90563333D01*
X151471849Y-90563331D01*
X151476051Y-90560334D01*
X151637199Y-90399747D01*
X151679054Y-90341500D01*
X151766938Y-90219198D01*
X151766942Y-90219192D01*
X151769956Y-90214997D01*
X151870755Y-90011046D01*
X151936890Y-89793370D01*
X151966585Y-89567815D01*
X151968242Y-89500000D01*
X151949601Y-89273264D01*
X151894178Y-89052617D01*
X151803462Y-88843985D01*
X151679890Y-88652971D01*
X151526779Y-88484704D01*
X151348241Y-88343704D01*
X151310537Y-88322890D01*
X151295869Y-88314793D01*
X151149072Y-88233757D01*
X151144203Y-88232033D01*
X151144199Y-88232031D01*
X150939496Y-88159541D01*
X150939492Y-88159540D01*
X150934621Y-88157815D01*
X150929528Y-88156908D01*
X150929525Y-88156907D01*
X150715734Y-88118825D01*
X150715728Y-88118824D01*
X150710645Y-88117919D01*
X150637196Y-88117022D01*
X150488331Y-88115203D01*
X150488329Y-88115203D01*
X150483161Y-88115140D01*
X150258278Y-88149552D01*
X150042035Y-88220231D01*
X150037447Y-88222619D01*
X150037443Y-88222621D01*
X149844828Y-88322890D01*
X149840239Y-88325279D01*
X149836106Y-88328382D01*
X149836103Y-88328384D01*
X149815699Y-88343704D01*
X149658310Y-88461875D01*
X149501133Y-88626351D01*
X149498218Y-88630625D01*
X149498215Y-88630628D01*
X149413755Y-88754441D01*
X149358844Y-88799444D01*
X149288319Y-88807615D01*
X149224572Y-88776361D01*
X149203875Y-88751877D01*
X149142698Y-88657311D01*
X149142696Y-88657308D01*
X149139890Y-88652971D01*
X148986779Y-88484704D01*
X148808241Y-88343704D01*
X148770537Y-88322890D01*
X148755869Y-88314793D01*
X148609072Y-88233757D01*
X148604203Y-88232033D01*
X148604199Y-88232031D01*
X148399496Y-88159541D01*
X148399492Y-88159540D01*
X148394621Y-88157815D01*
X148389528Y-88156908D01*
X148389525Y-88156907D01*
X148175734Y-88118825D01*
X148175728Y-88118824D01*
X148170645Y-88117919D01*
X148097196Y-88117022D01*
X147948331Y-88115203D01*
X147948329Y-88115203D01*
X147943161Y-88115140D01*
X147938052Y-88115922D01*
X147938049Y-88115922D01*
X147897258Y-88122164D01*
X147819450Y-88134071D01*
X147749089Y-88124604D01*
X147711297Y-88098616D01*
X146436905Y-86824224D01*
X146402879Y-86761912D01*
X146400000Y-86735129D01*
X146400000Y-86400000D01*
X146064871Y-86400000D01*
X145996750Y-86379998D01*
X145975776Y-86363095D01*
X145295405Y-85682724D01*
X145261379Y-85620412D01*
X145258500Y-85593629D01*
X145258500Y-85378871D01*
X145278502Y-85310750D01*
X145295405Y-85289776D01*
X146031218Y-84553963D01*
X146093530Y-84519937D01*
X146164345Y-84525002D01*
X146221181Y-84567549D01*
X146245992Y-84634069D01*
X146244675Y-84663311D01*
X146223300Y-84794559D01*
X146219840Y-85058879D01*
X146255486Y-85320808D01*
X146256795Y-85325298D01*
X146256796Y-85325304D01*
X146267417Y-85361741D01*
X146329457Y-85574590D01*
X146440127Y-85814652D01*
X146442690Y-85818561D01*
X146582499Y-86031805D01*
X146582503Y-86031810D01*
X146585065Y-86035718D01*
X146640440Y-86097760D01*
X146735153Y-86203877D01*
X146761086Y-86232933D01*
X146964324Y-86401964D01*
X147190314Y-86539099D01*
X147194622Y-86540905D01*
X147194623Y-86540906D01*
X147429776Y-86639514D01*
X147429781Y-86639516D01*
X147434091Y-86641323D01*
X147438623Y-86642474D01*
X147438626Y-86642475D01*
X147494197Y-86656588D01*
X147690301Y-86706392D01*
X147909856Y-86728500D01*
X148067108Y-86728500D01*
X148069433Y-86728327D01*
X148069439Y-86728327D01*
X148258964Y-86714243D01*
X148258968Y-86714242D01*
X148263616Y-86713897D01*
X148521441Y-86655557D01*
X148525795Y-86653864D01*
X148763458Y-86561442D01*
X148763460Y-86561441D01*
X148767811Y-86559749D01*
X148800780Y-86540906D01*
X148852448Y-86511375D01*
X148997313Y-86428578D01*
X149204906Y-86264925D01*
X149386030Y-86072385D01*
X149414181Y-86031805D01*
X149534042Y-85859026D01*
X149534045Y-85859021D01*
X149536704Y-85855188D01*
X149538771Y-85850997D01*
X149651555Y-85622294D01*
X149651556Y-85622291D01*
X149653620Y-85618106D01*
X149734209Y-85366347D01*
X149776700Y-85105441D01*
X149780160Y-84841121D01*
X149744514Y-84579192D01*
X149741121Y-84567549D01*
X149685749Y-84377579D01*
X149670543Y-84325410D01*
X149559873Y-84085348D01*
X149468846Y-83946509D01*
X149417501Y-83868195D01*
X149417497Y-83868190D01*
X149414935Y-83864282D01*
X149238914Y-83667067D01*
X149035676Y-83498036D01*
X148809686Y-83360901D01*
X148741106Y-83332143D01*
X148570224Y-83260486D01*
X148570219Y-83260484D01*
X148565909Y-83258677D01*
X148561377Y-83257526D01*
X148561374Y-83257525D01*
X148419540Y-83221504D01*
X148309699Y-83193608D01*
X148090144Y-83171500D01*
X147932892Y-83171500D01*
X147930567Y-83171673D01*
X147930561Y-83171673D01*
X147741036Y-83185757D01*
X147741032Y-83185758D01*
X147736384Y-83186103D01*
X147731836Y-83187132D01*
X147731830Y-83187133D01*
X147725508Y-83188564D01*
X147654653Y-83184089D01*
X147597464Y-83142018D01*
X147572100Y-83075706D01*
X147586613Y-83006209D01*
X147608605Y-82976576D01*
X149389776Y-81195405D01*
X149452088Y-81161379D01*
X149478871Y-81158500D01*
X150457413Y-81158500D01*
X150531472Y-81182563D01*
X150537902Y-81187235D01*
X150537909Y-81187239D01*
X150543248Y-81191118D01*
X150549276Y-81193802D01*
X150549278Y-81193803D01*
X150696325Y-81259272D01*
X150717712Y-81268794D01*
X150792925Y-81284781D01*
X150898056Y-81307128D01*
X150898061Y-81307128D01*
X150904513Y-81308500D01*
X151095487Y-81308500D01*
X151101939Y-81307128D01*
X151101944Y-81307128D01*
X151207075Y-81284781D01*
X151282288Y-81268794D01*
X151303675Y-81259272D01*
X151450722Y-81193803D01*
X151450724Y-81193802D01*
X151456752Y-81191118D01*
X151462091Y-81187239D01*
X151462098Y-81187235D01*
X151468528Y-81182563D01*
X151542587Y-81158500D01*
X151652967Y-81158500D01*
X151721088Y-81178502D01*
X151748380Y-81203217D01*
X151748884Y-81204031D01*
X151754065Y-81209203D01*
X151866816Y-81321758D01*
X151866821Y-81321762D01*
X151871997Y-81326929D01*
X151878227Y-81330769D01*
X151878228Y-81330770D01*
X151978324Y-81392470D01*
X152020080Y-81418209D01*
X152185191Y-81472974D01*
X152192027Y-81473674D01*
X152192030Y-81473675D01*
X152239370Y-81478525D01*
X152287928Y-81483500D01*
X152987072Y-81483500D01*
X152990318Y-81483163D01*
X152990322Y-81483163D01*
X153084235Y-81473419D01*
X153084239Y-81473418D01*
X153091093Y-81472707D01*
X153097629Y-81470526D01*
X153097631Y-81470526D01*
X153230395Y-81426232D01*
X153256107Y-81417654D01*
X153404031Y-81326116D01*
X153411274Y-81318861D01*
X153413038Y-81317895D01*
X153414941Y-81316387D01*
X153415199Y-81316713D01*
X153473554Y-81284781D01*
X153544375Y-81289782D01*
X153589470Y-81318708D01*
X153592131Y-81321364D01*
X153603540Y-81330375D01*
X153739063Y-81413912D01*
X153752241Y-81420056D01*
X153903766Y-81470315D01*
X153917132Y-81473181D01*
X154009770Y-81482672D01*
X154016185Y-81483000D01*
X154090385Y-81483000D01*
X154105624Y-81478525D01*
X154106829Y-81477135D01*
X154108500Y-81469452D01*
X154108500Y-80372000D01*
X154128502Y-80303879D01*
X154182158Y-80257386D01*
X154234500Y-80246000D01*
X154490500Y-80246000D01*
X154558621Y-80266002D01*
G37*
%TD.AperFunction*%
%TA.AperFunction,Conductor*%
G36*
X147157722Y-80842348D02*
G01*
X147164923Y-80845291D01*
X147193826Y-80858159D01*
X147211676Y-80866107D01*
X147211679Y-80866108D01*
X147217712Y-80868794D01*
X147275353Y-80881046D01*
X147282099Y-80882480D01*
X147344573Y-80916209D01*
X147378894Y-80978358D01*
X147374166Y-81049197D01*
X147344997Y-81094822D01*
X144660224Y-83779595D01*
X144597912Y-83813621D01*
X144571129Y-83816500D01*
X144233498Y-83816500D01*
X144231050Y-83816693D01*
X144231042Y-83816693D01*
X144202579Y-83818933D01*
X144202574Y-83818934D01*
X144196169Y-83819438D01*
X144096231Y-83848472D01*
X144044012Y-83863643D01*
X144044010Y-83863644D01*
X144036399Y-83865855D01*
X144029572Y-83869892D01*
X144029573Y-83869892D01*
X143900020Y-83946509D01*
X143900017Y-83946511D01*
X143893193Y-83950547D01*
X143775547Y-84068193D01*
X143771511Y-84075017D01*
X143771509Y-84075020D01*
X143762890Y-84089594D01*
X143690855Y-84211399D01*
X143644438Y-84371169D01*
X143641500Y-84408498D01*
X143641500Y-85716502D01*
X143644438Y-85753831D01*
X143646232Y-85760007D01*
X143646233Y-85760011D01*
X143685087Y-85893748D01*
X143689675Y-85918685D01*
X143701140Y-86059637D01*
X143703394Y-86066596D01*
X143703395Y-86066599D01*
X143747867Y-86203877D01*
X143754000Y-86242708D01*
X143754000Y-86274000D01*
X143733998Y-86342121D01*
X143680342Y-86388614D01*
X143628000Y-86400000D01*
X143372000Y-86400000D01*
X143303879Y-86379998D01*
X143257386Y-86326342D01*
X143246000Y-86274000D01*
X143246000Y-86054842D01*
X143263547Y-85990703D01*
X143305108Y-85920427D01*
X143309145Y-85913601D01*
X143355562Y-85753831D01*
X143358500Y-85716502D01*
X143358500Y-84408498D01*
X143355562Y-84371169D01*
X143309145Y-84211399D01*
X143237110Y-84089594D01*
X143228491Y-84075020D01*
X143228489Y-84075017D01*
X143224453Y-84068193D01*
X143218844Y-84062584D01*
X143213989Y-84056325D01*
X143215496Y-84055156D01*
X143186379Y-84001833D01*
X143183500Y-83975050D01*
X143183500Y-81670349D01*
X143203502Y-81602228D01*
X143257158Y-81555735D01*
X143296497Y-81545022D01*
X143314164Y-81543189D01*
X143384234Y-81535919D01*
X143384237Y-81535918D01*
X143391093Y-81535207D01*
X143397629Y-81533026D01*
X143397631Y-81533026D01*
X143549159Y-81482472D01*
X143556107Y-81480154D01*
X143704031Y-81388616D01*
X143761776Y-81330770D01*
X143821758Y-81270684D01*
X143821762Y-81270679D01*
X143826929Y-81265503D01*
X143871384Y-81193384D01*
X143924156Y-81145891D01*
X143978644Y-81133500D01*
X146421233Y-81133500D01*
X146432416Y-81134027D01*
X146439909Y-81135702D01*
X146447835Y-81135453D01*
X146447836Y-81135453D01*
X146507986Y-81133562D01*
X146511945Y-81133500D01*
X146539856Y-81133500D01*
X146543791Y-81133003D01*
X146543856Y-81132995D01*
X146555693Y-81132062D01*
X146587951Y-81131048D01*
X146591970Y-81130922D01*
X146599889Y-81130673D01*
X146619343Y-81125021D01*
X146638700Y-81121013D01*
X146650930Y-81119468D01*
X146650931Y-81119468D01*
X146658797Y-81118474D01*
X146666168Y-81115555D01*
X146666170Y-81115555D01*
X146699912Y-81102196D01*
X146711142Y-81098351D01*
X146745983Y-81088229D01*
X146745984Y-81088229D01*
X146753593Y-81086018D01*
X146760412Y-81081985D01*
X146760417Y-81081983D01*
X146771028Y-81075707D01*
X146788776Y-81067012D01*
X146807617Y-81059552D01*
X146821427Y-81049519D01*
X146843387Y-81033564D01*
X146853307Y-81027048D01*
X146884535Y-81008580D01*
X146884538Y-81008578D01*
X146891362Y-81004542D01*
X146905683Y-80990221D01*
X146920717Y-80977380D01*
X146930693Y-80970132D01*
X146937107Y-80965472D01*
X146965293Y-80931401D01*
X146973282Y-80922622D01*
X147024595Y-80871309D01*
X147086907Y-80837283D01*
X147157722Y-80842348D01*
G37*
%TD.AperFunction*%
%TA.AperFunction,Conductor*%
G36*
X140927896Y-74812607D02*
G01*
X140950256Y-74830357D01*
X141031141Y-74911101D01*
X141065220Y-74973382D01*
X141060217Y-75044202D01*
X141031296Y-75089291D01*
X140928637Y-75192129D01*
X140919625Y-75203540D01*
X140836088Y-75339063D01*
X140829944Y-75352241D01*
X140779685Y-75503766D01*
X140776819Y-75517132D01*
X140767328Y-75609770D01*
X140767000Y-75616185D01*
X140767000Y-75640385D01*
X140771475Y-75655624D01*
X140772865Y-75656829D01*
X140780548Y-75658500D01*
X142714885Y-75658500D01*
X142730124Y-75654025D01*
X142731329Y-75652635D01*
X142733000Y-75644952D01*
X142733000Y-75616234D01*
X142732663Y-75609718D01*
X142722925Y-75515868D01*
X142720032Y-75502472D01*
X142669512Y-75351047D01*
X142663347Y-75337885D01*
X142579574Y-75202508D01*
X142570540Y-75191110D01*
X142468860Y-75089607D01*
X142434781Y-75027324D01*
X142439784Y-74956504D01*
X142468705Y-74911416D01*
X142469022Y-74911099D01*
X142511236Y-74868811D01*
X142573519Y-74834732D01*
X142644339Y-74839735D01*
X142674470Y-74855893D01*
X142705748Y-74878618D01*
X142711776Y-74881302D01*
X142711778Y-74881303D01*
X142874181Y-74953609D01*
X142880212Y-74956294D01*
X142973613Y-74976147D01*
X143060556Y-74994628D01*
X143060561Y-74994628D01*
X143067013Y-74996000D01*
X143257987Y-74996000D01*
X143264439Y-74994628D01*
X143264444Y-74994628D01*
X143351387Y-74976147D01*
X143444788Y-74956294D01*
X143450819Y-74953609D01*
X143613224Y-74881302D01*
X143613225Y-74881301D01*
X143619252Y-74878618D01*
X143619369Y-74878533D01*
X143686036Y-74862358D01*
X143753128Y-74885576D01*
X143769054Y-74899035D01*
X143780787Y-74910747D01*
X143814865Y-74973025D01*
X143809864Y-75043846D01*
X143780942Y-75088936D01*
X143678246Y-75191812D01*
X143678242Y-75191817D01*
X143673071Y-75196997D01*
X143669231Y-75203227D01*
X143669230Y-75203228D01*
X143586364Y-75337662D01*
X143581791Y-75345080D01*
X143527026Y-75510191D01*
X143516500Y-75612928D01*
X143516500Y-76212072D01*
X143516837Y-76215318D01*
X143516837Y-76215322D01*
X143526571Y-76309132D01*
X143527293Y-76316093D01*
X143582346Y-76481107D01*
X143673884Y-76629031D01*
X143679066Y-76634204D01*
X143791816Y-76746758D01*
X143791821Y-76746762D01*
X143796997Y-76751929D01*
X143945080Y-76843209D01*
X144110191Y-76897974D01*
X144117027Y-76898674D01*
X144117030Y-76898675D01*
X144164370Y-76903525D01*
X144212928Y-76908500D01*
X144674000Y-76908500D01*
X144742121Y-76928502D01*
X144788614Y-76982158D01*
X144800000Y-77034500D01*
X144800000Y-79740500D01*
X144779998Y-79808621D01*
X144726342Y-79855114D01*
X144674000Y-79866500D01*
X143978640Y-79866500D01*
X143910519Y-79846498D01*
X143871497Y-79806804D01*
X143826116Y-79733469D01*
X143818861Y-79726226D01*
X143817895Y-79724462D01*
X143816387Y-79722559D01*
X143816713Y-79722301D01*
X143784781Y-79663946D01*
X143789782Y-79593125D01*
X143818708Y-79548030D01*
X143821364Y-79545369D01*
X143830375Y-79533960D01*
X143913912Y-79398437D01*
X143920056Y-79385259D01*
X143970315Y-79233734D01*
X143973181Y-79220368D01*
X143982672Y-79127730D01*
X143983000Y-79121315D01*
X143983000Y-79047115D01*
X143978525Y-79031876D01*
X143977135Y-79030671D01*
X143969452Y-79029000D01*
X142035115Y-79029000D01*
X142019876Y-79033475D01*
X142018671Y-79034865D01*
X142017000Y-79042548D01*
X142017000Y-79121266D01*
X142017337Y-79127782D01*
X142027075Y-79221632D01*
X142029968Y-79235028D01*
X142080488Y-79386453D01*
X142086653Y-79399615D01*
X142170426Y-79534992D01*
X142179464Y-79546394D01*
X142181139Y-79548067D01*
X142181919Y-79549493D01*
X142184007Y-79552127D01*
X142183556Y-79552484D01*
X142215219Y-79610349D01*
X142210216Y-79681169D01*
X142181299Y-79726254D01*
X142179260Y-79728297D01*
X142173071Y-79734497D01*
X142081791Y-79882580D01*
X142027026Y-80047691D01*
X142016500Y-80150428D01*
X142016500Y-80565194D01*
X142000175Y-80624866D01*
X142000386Y-80624958D01*
X142000386Y-80624959D01*
X141997240Y-80632229D01*
X141997237Y-80632234D01*
X141982826Y-80665537D01*
X141977609Y-80676187D01*
X141956305Y-80714940D01*
X141954334Y-80722615D01*
X141954334Y-80722616D01*
X141951267Y-80734562D01*
X141944863Y-80753266D01*
X141936819Y-80771855D01*
X141935580Y-80779678D01*
X141935577Y-80779688D01*
X141929901Y-80815524D01*
X141927495Y-80827144D01*
X141916500Y-80869970D01*
X141916500Y-80890224D01*
X141914949Y-80909934D01*
X141911780Y-80929943D01*
X141912526Y-80937835D01*
X141915941Y-80973961D01*
X141916500Y-80985819D01*
X141916500Y-82516663D01*
X141896498Y-82584784D01*
X141842842Y-82631277D01*
X141772568Y-82641381D01*
X141707988Y-82611887D01*
X141687424Y-82589129D01*
X141536122Y-82373918D01*
X141448808Y-82249723D01*
X141444806Y-82243664D01*
X141209870Y-81864628D01*
X141206214Y-81858330D01*
X141198125Y-81843416D01*
X140993598Y-81466322D01*
X140990315Y-81459826D01*
X140980060Y-81437989D01*
X140805825Y-81067006D01*
X140800754Y-81056208D01*
X140797846Y-81049519D01*
X140768934Y-80977380D01*
X140631958Y-80635610D01*
X140629446Y-80628779D01*
X140628167Y-80624959D01*
X140515027Y-80287275D01*
X140508500Y-80247246D01*
X140508500Y-78502885D01*
X142017000Y-78502885D01*
X142021475Y-78518124D01*
X142022865Y-78519329D01*
X142030548Y-78521000D01*
X142727885Y-78521000D01*
X142743124Y-78516525D01*
X142744329Y-78515135D01*
X142746000Y-78507452D01*
X142746000Y-78502885D01*
X143254000Y-78502885D01*
X143258475Y-78518124D01*
X143259865Y-78519329D01*
X143267548Y-78521000D01*
X143964885Y-78521000D01*
X143980124Y-78516525D01*
X143981329Y-78515135D01*
X143983000Y-78507452D01*
X143983000Y-78428734D01*
X143982663Y-78422218D01*
X143972925Y-78328368D01*
X143970032Y-78314972D01*
X143919512Y-78163547D01*
X143913347Y-78150385D01*
X143829574Y-78015008D01*
X143820540Y-78003610D01*
X143707871Y-77891137D01*
X143696460Y-77882125D01*
X143560937Y-77798588D01*
X143547759Y-77792444D01*
X143396234Y-77742185D01*
X143382868Y-77739319D01*
X143290230Y-77729828D01*
X143283815Y-77729500D01*
X143272115Y-77729500D01*
X143256876Y-77733975D01*
X143255671Y-77735365D01*
X143254000Y-77743048D01*
X143254000Y-78502885D01*
X142746000Y-78502885D01*
X142746000Y-77747615D01*
X142741525Y-77732376D01*
X142740135Y-77731171D01*
X142732452Y-77729500D01*
X142716234Y-77729500D01*
X142709718Y-77729837D01*
X142615868Y-77739575D01*
X142602472Y-77742468D01*
X142451047Y-77792988D01*
X142437885Y-77799153D01*
X142302508Y-77882926D01*
X142291110Y-77891960D01*
X142178637Y-78004629D01*
X142169625Y-78016040D01*
X142086088Y-78151563D01*
X142079944Y-78164741D01*
X142029685Y-78316266D01*
X142026819Y-78329632D01*
X142017328Y-78422270D01*
X142017000Y-78428685D01*
X142017000Y-78502885D01*
X140508500Y-78502885D01*
X140508500Y-76208766D01*
X140767000Y-76208766D01*
X140767337Y-76215282D01*
X140777075Y-76309132D01*
X140779968Y-76322528D01*
X140830488Y-76473953D01*
X140836653Y-76487115D01*
X140920426Y-76622492D01*
X140929460Y-76633890D01*
X141042129Y-76746363D01*
X141053540Y-76755375D01*
X141189063Y-76838912D01*
X141202241Y-76845056D01*
X141353766Y-76895315D01*
X141367132Y-76898181D01*
X141459770Y-76907672D01*
X141466185Y-76908000D01*
X141477885Y-76908000D01*
X141493124Y-76903525D01*
X141494329Y-76902135D01*
X141496000Y-76894452D01*
X141496000Y-76889885D01*
X142004000Y-76889885D01*
X142008475Y-76905124D01*
X142009865Y-76906329D01*
X142017548Y-76908000D01*
X142033766Y-76908000D01*
X142040282Y-76907663D01*
X142134132Y-76897925D01*
X142147528Y-76895032D01*
X142298953Y-76844512D01*
X142312115Y-76838347D01*
X142447492Y-76754574D01*
X142458890Y-76745540D01*
X142571363Y-76632871D01*
X142580375Y-76621460D01*
X142663912Y-76485937D01*
X142670056Y-76472759D01*
X142720315Y-76321234D01*
X142723181Y-76307868D01*
X142732672Y-76215230D01*
X142733000Y-76208815D01*
X142733000Y-76184615D01*
X142728525Y-76169376D01*
X142727135Y-76168171D01*
X142719452Y-76166500D01*
X142022115Y-76166500D01*
X142006876Y-76170975D01*
X142005671Y-76172365D01*
X142004000Y-76180048D01*
X142004000Y-76889885D01*
X141496000Y-76889885D01*
X141496000Y-76184615D01*
X141491525Y-76169376D01*
X141490135Y-76168171D01*
X141482452Y-76166500D01*
X140785115Y-76166500D01*
X140769876Y-76170975D01*
X140768671Y-76172365D01*
X140767000Y-76180048D01*
X140767000Y-76208766D01*
X140508500Y-76208766D01*
X140508500Y-75509846D01*
X140515949Y-75467164D01*
X140517944Y-75461623D01*
X140664664Y-75054105D01*
X140667891Y-75046030D01*
X140668851Y-75043850D01*
X140745918Y-74868767D01*
X140791668Y-74814479D01*
X140859507Y-74793543D01*
X140927896Y-74812607D01*
G37*
%TD.AperFunction*%
%TA.AperFunction,Conductor*%
G36*
X154692012Y-74081852D02*
G01*
X154718860Y-74114494D01*
X154831310Y-74310997D01*
X154835222Y-74318393D01*
X155058040Y-74775739D01*
X155061453Y-74783379D01*
X155253427Y-75254510D01*
X155256324Y-75262356D01*
X155387830Y-75658500D01*
X155390545Y-75666679D01*
X155396962Y-75706524D01*
X155395383Y-77034500D01*
X155395256Y-77141150D01*
X155375173Y-77209247D01*
X155321462Y-77255676D01*
X155280200Y-77264626D01*
X155256876Y-77271475D01*
X155255671Y-77272865D01*
X155254000Y-77280548D01*
X155254000Y-78628000D01*
X155233998Y-78696121D01*
X155180342Y-78742614D01*
X155128000Y-78754000D01*
X154872000Y-78754000D01*
X154803879Y-78733998D01*
X154757386Y-78680342D01*
X154746000Y-78628000D01*
X154746000Y-77285116D01*
X154741525Y-77269877D01*
X154740135Y-77268672D01*
X154732452Y-77267001D01*
X154615405Y-77267001D01*
X154608886Y-77267338D01*
X154513294Y-77277257D01*
X154499900Y-77280149D01*
X154345716Y-77331588D01*
X154332538Y-77337761D01*
X154194693Y-77423063D01*
X154183292Y-77432099D01*
X154068762Y-77546828D01*
X154061706Y-77555762D01*
X154003788Y-77596823D01*
X153932865Y-77600053D01*
X153871454Y-77564426D01*
X153864654Y-77556593D01*
X153860978Y-77550652D01*
X153735803Y-77425695D01*
X153729572Y-77421854D01*
X153591468Y-77336725D01*
X153591466Y-77336724D01*
X153585238Y-77332885D01*
X153505495Y-77306436D01*
X153423889Y-77279368D01*
X153423887Y-77279368D01*
X153417361Y-77277203D01*
X153410525Y-77276503D01*
X153410522Y-77276502D01*
X153367469Y-77272091D01*
X153312900Y-77266500D01*
X153025431Y-77266500D01*
X152957310Y-77246498D01*
X152910817Y-77192842D01*
X152900121Y-77127329D01*
X152913504Y-76999999D01*
X152914843Y-77000140D01*
X152932816Y-76938928D01*
X152986472Y-76892435D01*
X153056746Y-76882331D01*
X153078476Y-76887455D01*
X153110191Y-76897974D01*
X153117027Y-76898674D01*
X153117030Y-76898675D01*
X153164370Y-76903525D01*
X153212928Y-76908500D01*
X153787072Y-76908500D01*
X153790318Y-76908163D01*
X153790322Y-76908163D01*
X153884235Y-76898419D01*
X153884239Y-76898418D01*
X153891093Y-76897707D01*
X153897629Y-76895526D01*
X153897631Y-76895526D01*
X154030395Y-76851232D01*
X154056107Y-76842654D01*
X154204031Y-76751116D01*
X154209597Y-76745540D01*
X154321758Y-76633184D01*
X154321762Y-76633179D01*
X154326929Y-76628003D01*
X154330962Y-76621460D01*
X154414369Y-76486150D01*
X154414370Y-76486148D01*
X154418209Y-76479920D01*
X154472974Y-76314809D01*
X154483500Y-76212072D01*
X154483500Y-75612928D01*
X154475802Y-75538736D01*
X154473419Y-75515765D01*
X154473418Y-75515761D01*
X154472707Y-75508907D01*
X154458781Y-75467164D01*
X154419972Y-75350841D01*
X154417654Y-75343893D01*
X154326116Y-75195969D01*
X154264037Y-75133998D01*
X154219214Y-75089253D01*
X154185135Y-75026970D01*
X154190138Y-74956150D01*
X154219059Y-74911063D01*
X154321754Y-74808188D01*
X154321758Y-74808183D01*
X154326929Y-74803003D01*
X154334989Y-74789928D01*
X154414369Y-74661150D01*
X154414370Y-74661148D01*
X154418209Y-74654920D01*
X154472974Y-74489809D01*
X154483500Y-74387072D01*
X154483500Y-74177076D01*
X154503502Y-74108955D01*
X154557158Y-74062462D01*
X154627432Y-74052358D01*
X154692012Y-74081852D01*
G37*
%TD.AperFunction*%
%TA.AperFunction,Conductor*%
G36*
X146426076Y-70528502D02*
G01*
X146472569Y-70582158D01*
X146482673Y-70652432D01*
X146453179Y-70717012D01*
X146447128Y-70723517D01*
X146378641Y-70792124D01*
X146369625Y-70803540D01*
X146286088Y-70939063D01*
X146279944Y-70952241D01*
X146229685Y-71103766D01*
X146226819Y-71117132D01*
X146217328Y-71209770D01*
X146217000Y-71216185D01*
X146217000Y-71227885D01*
X146221475Y-71243124D01*
X146222865Y-71244329D01*
X146230548Y-71246000D01*
X147378000Y-71246000D01*
X147446121Y-71266002D01*
X147492614Y-71319658D01*
X147504000Y-71372000D01*
X147504000Y-72464885D01*
X147508475Y-72480124D01*
X147509865Y-72481329D01*
X147517548Y-72483000D01*
X147583766Y-72483000D01*
X147590282Y-72482663D01*
X147684132Y-72472925D01*
X147697528Y-72470032D01*
X147848953Y-72419512D01*
X147862115Y-72413347D01*
X147997492Y-72329574D01*
X148008895Y-72320536D01*
X148035525Y-72293860D01*
X148097807Y-72259781D01*
X148168627Y-72264784D01*
X148213731Y-72293721D01*
X148216648Y-72296634D01*
X148250716Y-72358923D01*
X148245700Y-72429742D01*
X148216709Y-72474886D01*
X147637000Y-73054595D01*
X147574688Y-73088621D01*
X147547905Y-73091500D01*
X147212928Y-73091500D01*
X147209682Y-73091837D01*
X147209678Y-73091837D01*
X147115765Y-73101581D01*
X147115761Y-73101582D01*
X147108907Y-73102293D01*
X147102371Y-73104474D01*
X147102369Y-73104474D01*
X147015368Y-73133500D01*
X146943893Y-73157346D01*
X146795969Y-73248884D01*
X146790796Y-73254066D01*
X146678242Y-73366816D01*
X146678238Y-73366821D01*
X146673071Y-73371997D01*
X146669231Y-73378227D01*
X146669230Y-73378228D01*
X146586364Y-73512662D01*
X146581791Y-73520080D01*
X146527026Y-73685191D01*
X146516500Y-73787928D01*
X146516500Y-74387072D01*
X146527293Y-74491093D01*
X146582346Y-74656107D01*
X146673884Y-74804031D01*
X146679066Y-74809204D01*
X146780786Y-74910747D01*
X146814865Y-74973030D01*
X146809862Y-75043850D01*
X146780941Y-75088938D01*
X146752910Y-75117018D01*
X146690628Y-75151097D01*
X146663737Y-75154000D01*
X145336200Y-75154000D01*
X145268079Y-75133998D01*
X145247181Y-75117172D01*
X145219213Y-75089252D01*
X145185135Y-75026969D01*
X145190139Y-74956149D01*
X145219059Y-74911063D01*
X145321754Y-74808188D01*
X145321758Y-74808183D01*
X145326929Y-74803003D01*
X145334989Y-74789928D01*
X145414369Y-74661150D01*
X145414370Y-74661148D01*
X145418209Y-74654920D01*
X145472974Y-74489809D01*
X145483500Y-74387072D01*
X145483500Y-73787928D01*
X145477615Y-73731206D01*
X145473419Y-73690765D01*
X145473418Y-73690761D01*
X145472707Y-73683907D01*
X145417654Y-73518893D01*
X145326116Y-73370969D01*
X145281960Y-73326890D01*
X145208184Y-73253242D01*
X145208179Y-73253238D01*
X145203003Y-73248071D01*
X145159720Y-73221391D01*
X145061150Y-73160631D01*
X145061148Y-73160630D01*
X145054920Y-73156791D01*
X144889809Y-73102026D01*
X144882973Y-73101326D01*
X144882970Y-73101325D01*
X144831474Y-73096049D01*
X144787072Y-73091500D01*
X144212928Y-73091500D01*
X144209682Y-73091837D01*
X144209678Y-73091837D01*
X144115765Y-73101581D01*
X144115761Y-73101582D01*
X144108907Y-73102293D01*
X144102371Y-73104474D01*
X144102369Y-73104474D01*
X144015368Y-73133500D01*
X143943893Y-73157346D01*
X143795969Y-73248884D01*
X143790796Y-73254066D01*
X143790791Y-73254070D01*
X143769141Y-73275758D01*
X143706859Y-73309838D01*
X143636039Y-73304835D01*
X143621412Y-73297951D01*
X143619252Y-73296382D01*
X143613224Y-73293698D01*
X143613222Y-73293697D01*
X143450819Y-73221391D01*
X143450818Y-73221391D01*
X143444788Y-73218706D01*
X143332254Y-73194786D01*
X143264444Y-73180372D01*
X143264439Y-73180372D01*
X143257987Y-73179000D01*
X143067013Y-73179000D01*
X143060561Y-73180372D01*
X143060556Y-73180372D01*
X142992746Y-73194786D01*
X142880212Y-73218706D01*
X142874182Y-73221391D01*
X142874181Y-73221391D01*
X142711779Y-73293697D01*
X142705748Y-73296382D01*
X142700411Y-73300259D01*
X142700405Y-73300263D01*
X142674462Y-73319112D01*
X142607594Y-73342970D01*
X142538443Y-73326890D01*
X142511383Y-73306349D01*
X142458184Y-73253242D01*
X142458179Y-73253238D01*
X142453003Y-73248071D01*
X142409720Y-73221391D01*
X142311150Y-73160631D01*
X142311148Y-73160630D01*
X142304920Y-73156791D01*
X142139809Y-73102026D01*
X142132975Y-73101326D01*
X142132971Y-73101325D01*
X142060227Y-73093872D01*
X141994500Y-73067030D01*
X141953718Y-73008915D01*
X141950830Y-72937978D01*
X141975970Y-72888231D01*
X142067467Y-72777587D01*
X142073240Y-72771077D01*
X142205323Y-72632117D01*
X142437470Y-72387884D01*
X142443678Y-72381789D01*
X142503557Y-72326929D01*
X142833484Y-72024653D01*
X142840098Y-72019001D01*
X143135429Y-71783766D01*
X146217000Y-71783766D01*
X146217337Y-71790282D01*
X146227075Y-71884132D01*
X146229968Y-71897528D01*
X146280488Y-72048953D01*
X146286653Y-72062115D01*
X146370426Y-72197492D01*
X146379460Y-72208890D01*
X146492129Y-72321363D01*
X146503540Y-72330375D01*
X146639063Y-72413912D01*
X146652241Y-72420056D01*
X146803766Y-72470315D01*
X146817132Y-72473181D01*
X146909770Y-72482672D01*
X146916185Y-72483000D01*
X146977885Y-72483000D01*
X146993124Y-72478525D01*
X146994329Y-72477135D01*
X146996000Y-72469452D01*
X146996000Y-71772115D01*
X146991525Y-71756876D01*
X146990135Y-71755671D01*
X146982452Y-71754000D01*
X146235115Y-71754000D01*
X146219876Y-71758475D01*
X146218671Y-71759865D01*
X146217000Y-71767548D01*
X146217000Y-71783766D01*
X143135429Y-71783766D01*
X143253626Y-71689620D01*
X143260616Y-71684437D01*
X143695884Y-71384388D01*
X143703214Y-71379700D01*
X144158151Y-71110409D01*
X144165788Y-71106237D01*
X144638241Y-70868982D01*
X144646147Y-70865348D01*
X144927868Y-70747460D01*
X145133854Y-70661264D01*
X145141968Y-70658194D01*
X145563269Y-70515186D01*
X145603769Y-70508500D01*
X146357956Y-70508500D01*
X146426076Y-70528502D01*
G37*
%TD.AperFunction*%
%TD*%
M02*
