%TF.GenerationSoftware,KiCad,Pcbnew,(6.0.6)*%
%TF.CreationDate,2022-08-09T20:17:38-04:00*%
%TF.ProjectId,4272ShaftEncoder,34323732-5368-4616-9674-456e636f6465,rev?*%
%TF.SameCoordinates,Original*%
%TF.FileFunction,Legend,Top*%
%TF.FilePolarity,Positive*%
%FSLAX46Y46*%
G04 Gerber Fmt 4.6, Leading zero omitted, Abs format (unit mm)*
G04 Created by KiCad (PCBNEW (6.0.6)) date 2022-08-09 20:17:38*
%MOMM*%
%LPD*%
G01*
G04 APERTURE LIST*
%ADD10C,0.125000*%
%ADD11C,0.100000*%
%ADD12C,0.150000*%
%ADD13C,0.120000*%
G04 APERTURE END LIST*
D10*
X150100000Y-90726190D02*
X150195238Y-90726190D01*
X150242857Y-90750000D01*
X150290476Y-90797619D01*
X150314285Y-90892857D01*
X150314285Y-91059523D01*
X150290476Y-91154761D01*
X150242857Y-91202380D01*
X150195238Y-91226190D01*
X150100000Y-91226190D01*
X150052380Y-91202380D01*
X150004761Y-91154761D01*
X149980952Y-91059523D01*
X149980952Y-90892857D01*
X150004761Y-90797619D01*
X150052380Y-90750000D01*
X150100000Y-90726190D01*
X150528571Y-90726190D02*
X150528571Y-91130952D01*
X150552380Y-91178571D01*
X150576190Y-91202380D01*
X150623809Y-91226190D01*
X150719047Y-91226190D01*
X150766666Y-91202380D01*
X150790476Y-91178571D01*
X150814285Y-91130952D01*
X150814285Y-90726190D01*
X150980952Y-90726190D02*
X151266666Y-90726190D01*
X151123809Y-91226190D02*
X151123809Y-90726190D01*
X147461904Y-90726190D02*
X147771428Y-90726190D01*
X147604761Y-90916666D01*
X147676190Y-90916666D01*
X147723809Y-90940476D01*
X147747619Y-90964285D01*
X147771428Y-91011904D01*
X147771428Y-91130952D01*
X147747619Y-91178571D01*
X147723809Y-91202380D01*
X147676190Y-91226190D01*
X147533333Y-91226190D01*
X147485714Y-91202380D01*
X147461904Y-91178571D01*
X147985714Y-91178571D02*
X148009523Y-91202380D01*
X147985714Y-91226190D01*
X147961904Y-91202380D01*
X147985714Y-91178571D01*
X147985714Y-91226190D01*
X148176190Y-90726190D02*
X148485714Y-90726190D01*
X148319047Y-90916666D01*
X148390476Y-90916666D01*
X148438095Y-90940476D01*
X148461904Y-90964285D01*
X148485714Y-91011904D01*
X148485714Y-91130952D01*
X148461904Y-91178571D01*
X148438095Y-91202380D01*
X148390476Y-91226190D01*
X148247619Y-91226190D01*
X148200000Y-91202380D01*
X148176190Y-91178571D01*
X148628571Y-90726190D02*
X148795238Y-91226190D01*
X148961904Y-90726190D01*
X145219047Y-90800000D02*
X145171428Y-90776190D01*
X145100000Y-90776190D01*
X145028571Y-90800000D01*
X144980952Y-90847619D01*
X144957142Y-90895238D01*
X144933333Y-90990476D01*
X144933333Y-91061904D01*
X144957142Y-91157142D01*
X144980952Y-91204761D01*
X145028571Y-91252380D01*
X145100000Y-91276190D01*
X145147619Y-91276190D01*
X145219047Y-91252380D01*
X145242857Y-91228571D01*
X145242857Y-91061904D01*
X145147619Y-91061904D01*
X145457142Y-91276190D02*
X145457142Y-90776190D01*
X145742857Y-91276190D01*
X145742857Y-90776190D01*
X145980952Y-91276190D02*
X145980952Y-90776190D01*
X146100000Y-90776190D01*
X146171428Y-90800000D01*
X146219047Y-90847619D01*
X146242857Y-90895238D01*
X146266666Y-90990476D01*
X146266666Y-91061904D01*
X146242857Y-91157142D01*
X146219047Y-91204761D01*
X146171428Y-91252380D01*
X146100000Y-91276190D01*
X145980952Y-91276190D01*
X142554761Y-72423690D02*
X142554761Y-71923690D01*
X142673809Y-71923690D01*
X142745238Y-71947500D01*
X142792857Y-71995119D01*
X142816666Y-72042738D01*
X142840476Y-72137976D01*
X142840476Y-72209404D01*
X142816666Y-72304642D01*
X142792857Y-72352261D01*
X142745238Y-72399880D01*
X142673809Y-72423690D01*
X142554761Y-72423690D01*
X143054761Y-72423690D02*
X143054761Y-71923690D01*
X143578571Y-72423690D02*
X143411904Y-72185595D01*
X143292857Y-72423690D02*
X143292857Y-71923690D01*
X143483333Y-71923690D01*
X143530952Y-71947500D01*
X143554761Y-71971309D01*
X143578571Y-72018928D01*
X143578571Y-72090357D01*
X143554761Y-72137976D01*
X143530952Y-72161785D01*
X143483333Y-72185595D01*
X143292857Y-72185595D01*
X144150000Y-72399880D02*
X144221428Y-72423690D01*
X144340476Y-72423690D01*
X144388095Y-72399880D01*
X144411904Y-72376071D01*
X144435714Y-72328452D01*
X144435714Y-72280833D01*
X144411904Y-72233214D01*
X144388095Y-72209404D01*
X144340476Y-72185595D01*
X144245238Y-72161785D01*
X144197619Y-72137976D01*
X144173809Y-72114166D01*
X144150000Y-72066547D01*
X144150000Y-72018928D01*
X144173809Y-71971309D01*
X144197619Y-71947500D01*
X144245238Y-71923690D01*
X144364285Y-71923690D01*
X144435714Y-71947500D01*
X144840476Y-72399880D02*
X144792857Y-72423690D01*
X144697619Y-72423690D01*
X144650000Y-72399880D01*
X144626190Y-72352261D01*
X144626190Y-72161785D01*
X144650000Y-72114166D01*
X144697619Y-72090357D01*
X144792857Y-72090357D01*
X144840476Y-72114166D01*
X144864285Y-72161785D01*
X144864285Y-72209404D01*
X144626190Y-72257023D01*
X145150000Y-72423690D02*
X145102380Y-72399880D01*
X145078571Y-72352261D01*
X145078571Y-71923690D01*
X145530952Y-72399880D02*
X145483333Y-72423690D01*
X145388095Y-72423690D01*
X145340476Y-72399880D01*
X145316666Y-72352261D01*
X145316666Y-72161785D01*
X145340476Y-72114166D01*
X145388095Y-72090357D01*
X145483333Y-72090357D01*
X145530952Y-72114166D01*
X145554761Y-72161785D01*
X145554761Y-72209404D01*
X145316666Y-72257023D01*
X145983333Y-72399880D02*
X145935714Y-72423690D01*
X145840476Y-72423690D01*
X145792857Y-72399880D01*
X145769047Y-72376071D01*
X145745238Y-72328452D01*
X145745238Y-72185595D01*
X145769047Y-72137976D01*
X145792857Y-72114166D01*
X145840476Y-72090357D01*
X145935714Y-72090357D01*
X145983333Y-72114166D01*
X146126190Y-72090357D02*
X146316666Y-72090357D01*
X146197619Y-71923690D02*
X146197619Y-72352261D01*
X146221428Y-72399880D01*
X146269047Y-72423690D01*
X146316666Y-72423690D01*
X143066666Y-73228690D02*
X142900000Y-72990595D01*
X142780952Y-73228690D02*
X142780952Y-72728690D01*
X142971428Y-72728690D01*
X143019047Y-72752500D01*
X143042857Y-72776309D01*
X143066666Y-72823928D01*
X143066666Y-72895357D01*
X143042857Y-72942976D01*
X143019047Y-72966785D01*
X142971428Y-72990595D01*
X142780952Y-72990595D01*
X143257142Y-72776309D02*
X143280952Y-72752500D01*
X143328571Y-72728690D01*
X143447619Y-72728690D01*
X143495238Y-72752500D01*
X143519047Y-72776309D01*
X143542857Y-72823928D01*
X143542857Y-72871547D01*
X143519047Y-72942976D01*
X143233333Y-73228690D01*
X143542857Y-73228690D01*
X144209523Y-73228690D02*
X144161904Y-73204880D01*
X144138095Y-73181071D01*
X144114285Y-73133452D01*
X144114285Y-72990595D01*
X144138095Y-72942976D01*
X144161904Y-72919166D01*
X144209523Y-72895357D01*
X144280952Y-72895357D01*
X144328571Y-72919166D01*
X144352380Y-72942976D01*
X144376190Y-72990595D01*
X144376190Y-73133452D01*
X144352380Y-73181071D01*
X144328571Y-73204880D01*
X144280952Y-73228690D01*
X144209523Y-73228690D01*
X144590476Y-73228690D02*
X144590476Y-72895357D01*
X144590476Y-72990595D02*
X144614285Y-72942976D01*
X144638095Y-72919166D01*
X144685714Y-72895357D01*
X144733333Y-72895357D01*
X145566666Y-73228690D02*
X145400000Y-72990595D01*
X145280952Y-73228690D02*
X145280952Y-72728690D01*
X145471428Y-72728690D01*
X145519047Y-72752500D01*
X145542857Y-72776309D01*
X145566666Y-72823928D01*
X145566666Y-72895357D01*
X145542857Y-72942976D01*
X145519047Y-72966785D01*
X145471428Y-72990595D01*
X145280952Y-72990595D01*
X146042857Y-73228690D02*
X145757142Y-73228690D01*
X145900000Y-73228690D02*
X145900000Y-72728690D01*
X145852380Y-72800119D01*
X145804761Y-72847738D01*
X145757142Y-72871547D01*
X153364285Y-90557142D02*
X153388095Y-90485714D01*
X153411904Y-90461904D01*
X153459523Y-90438095D01*
X153530952Y-90438095D01*
X153578571Y-90461904D01*
X153602380Y-90485714D01*
X153626190Y-90533333D01*
X153626190Y-90723809D01*
X153126190Y-90723809D01*
X153126190Y-90557142D01*
X153150000Y-90509523D01*
X153173809Y-90485714D01*
X153221428Y-90461904D01*
X153269047Y-90461904D01*
X153316666Y-90485714D01*
X153340476Y-90509523D01*
X153364285Y-90557142D01*
X153364285Y-90723809D01*
X153626190Y-90152380D02*
X153602380Y-90200000D01*
X153554761Y-90223809D01*
X153126190Y-90223809D01*
X153626190Y-89747619D02*
X153126190Y-89747619D01*
X153602380Y-89747619D02*
X153626190Y-89795238D01*
X153626190Y-89890476D01*
X153602380Y-89938095D01*
X153578571Y-89961904D01*
X153530952Y-89985714D01*
X153388095Y-89985714D01*
X153340476Y-89961904D01*
X153316666Y-89938095D01*
X153292857Y-89890476D01*
X153292857Y-89795238D01*
X153316666Y-89747619D01*
X153626190Y-89128571D02*
X153126190Y-89128571D01*
X153126190Y-89009523D01*
X153150000Y-88938095D01*
X153197619Y-88890476D01*
X153245238Y-88866666D01*
X153340476Y-88842857D01*
X153411904Y-88842857D01*
X153507142Y-88866666D01*
X153554761Y-88890476D01*
X153602380Y-88938095D01*
X153626190Y-89009523D01*
X153626190Y-89128571D01*
X153626190Y-88414285D02*
X153364285Y-88414285D01*
X153316666Y-88438095D01*
X153292857Y-88485714D01*
X153292857Y-88580952D01*
X153316666Y-88628571D01*
X153602380Y-88414285D02*
X153626190Y-88461904D01*
X153626190Y-88580952D01*
X153602380Y-88628571D01*
X153554761Y-88652380D01*
X153507142Y-88652380D01*
X153459523Y-88628571D01*
X153435714Y-88580952D01*
X153435714Y-88461904D01*
X153411904Y-88414285D01*
X153292857Y-88247619D02*
X153292857Y-88057142D01*
X153126190Y-88176190D02*
X153554761Y-88176190D01*
X153602380Y-88152380D01*
X153626190Y-88104761D01*
X153626190Y-88057142D01*
X153602380Y-87700000D02*
X153626190Y-87747619D01*
X153626190Y-87842857D01*
X153602380Y-87890476D01*
X153554761Y-87914285D01*
X153364285Y-87914285D01*
X153316666Y-87890476D01*
X153292857Y-87842857D01*
X153292857Y-87747619D01*
X153316666Y-87700000D01*
X153364285Y-87676190D01*
X153411904Y-87676190D01*
X153459523Y-87914285D01*
X153578571Y-87461904D02*
X153602380Y-87438095D01*
X153626190Y-87461904D01*
X153602380Y-87485714D01*
X153578571Y-87461904D01*
X153626190Y-87461904D01*
X153316666Y-87461904D02*
X153340476Y-87438095D01*
X153364285Y-87461904D01*
X153340476Y-87485714D01*
X153316666Y-87461904D01*
X153364285Y-87461904D01*
X153173809Y-86866666D02*
X153150000Y-86842857D01*
X153126190Y-86795238D01*
X153126190Y-86676190D01*
X153150000Y-86628571D01*
X153173809Y-86604761D01*
X153221428Y-86580952D01*
X153269047Y-86580952D01*
X153340476Y-86604761D01*
X153626190Y-86890476D01*
X153626190Y-86580952D01*
X153126190Y-86271428D02*
X153126190Y-86223809D01*
X153150000Y-86176190D01*
X153173809Y-86152380D01*
X153221428Y-86128571D01*
X153316666Y-86104761D01*
X153435714Y-86104761D01*
X153530952Y-86128571D01*
X153578571Y-86152380D01*
X153602380Y-86176190D01*
X153626190Y-86223809D01*
X153626190Y-86271428D01*
X153602380Y-86319047D01*
X153578571Y-86342857D01*
X153530952Y-86366666D01*
X153435714Y-86390476D01*
X153316666Y-86390476D01*
X153221428Y-86366666D01*
X153173809Y-86342857D01*
X153150000Y-86319047D01*
X153126190Y-86271428D01*
X153173809Y-85914285D02*
X153150000Y-85890476D01*
X153126190Y-85842857D01*
X153126190Y-85723809D01*
X153150000Y-85676190D01*
X153173809Y-85652380D01*
X153221428Y-85628571D01*
X153269047Y-85628571D01*
X153340476Y-85652380D01*
X153626190Y-85938095D01*
X153626190Y-85628571D01*
X153173809Y-85438095D02*
X153150000Y-85414285D01*
X153126190Y-85366666D01*
X153126190Y-85247619D01*
X153150000Y-85200000D01*
X153173809Y-85176190D01*
X153221428Y-85152380D01*
X153269047Y-85152380D01*
X153340476Y-85176190D01*
X153626190Y-85461904D01*
X153626190Y-85152380D01*
X147378571Y-81223690D02*
X147378571Y-80723690D01*
X147545238Y-81080833D01*
X147711904Y-80723690D01*
X147711904Y-81223690D01*
X147926190Y-81080833D02*
X148164285Y-81080833D01*
X147878571Y-81223690D02*
X148045238Y-80723690D01*
X148211904Y-81223690D01*
X148640476Y-80747500D02*
X148592857Y-80723690D01*
X148521428Y-80723690D01*
X148450000Y-80747500D01*
X148402380Y-80795119D01*
X148378571Y-80842738D01*
X148354761Y-80937976D01*
X148354761Y-81009404D01*
X148378571Y-81104642D01*
X148402380Y-81152261D01*
X148450000Y-81199880D01*
X148521428Y-81223690D01*
X148569047Y-81223690D01*
X148640476Y-81199880D01*
X148664285Y-81176071D01*
X148664285Y-81009404D01*
X148569047Y-81009404D01*
X146830952Y-81766785D02*
X146997619Y-81766785D01*
X147069047Y-82028690D02*
X146830952Y-82028690D01*
X146830952Y-81528690D01*
X147069047Y-81528690D01*
X147283333Y-81695357D02*
X147283333Y-82028690D01*
X147283333Y-81742976D02*
X147307142Y-81719166D01*
X147354761Y-81695357D01*
X147426190Y-81695357D01*
X147473809Y-81719166D01*
X147497619Y-81766785D01*
X147497619Y-82028690D01*
X147950000Y-82004880D02*
X147902380Y-82028690D01*
X147807142Y-82028690D01*
X147759523Y-82004880D01*
X147735714Y-81981071D01*
X147711904Y-81933452D01*
X147711904Y-81790595D01*
X147735714Y-81742976D01*
X147759523Y-81719166D01*
X147807142Y-81695357D01*
X147902380Y-81695357D01*
X147950000Y-81719166D01*
X148235714Y-82028690D02*
X148188095Y-82004880D01*
X148164285Y-81981071D01*
X148140476Y-81933452D01*
X148140476Y-81790595D01*
X148164285Y-81742976D01*
X148188095Y-81719166D01*
X148235714Y-81695357D01*
X148307142Y-81695357D01*
X148354761Y-81719166D01*
X148378571Y-81742976D01*
X148402380Y-81790595D01*
X148402380Y-81933452D01*
X148378571Y-81981071D01*
X148354761Y-82004880D01*
X148307142Y-82028690D01*
X148235714Y-82028690D01*
X148830952Y-82028690D02*
X148830952Y-81528690D01*
X148830952Y-82004880D02*
X148783333Y-82028690D01*
X148688095Y-82028690D01*
X148640476Y-82004880D01*
X148616666Y-81981071D01*
X148592857Y-81933452D01*
X148592857Y-81790595D01*
X148616666Y-81742976D01*
X148640476Y-81719166D01*
X148688095Y-81695357D01*
X148783333Y-81695357D01*
X148830952Y-81719166D01*
X149259523Y-82004880D02*
X149211904Y-82028690D01*
X149116666Y-82028690D01*
X149069047Y-82004880D01*
X149045238Y-81957261D01*
X149045238Y-81766785D01*
X149069047Y-81719166D01*
X149116666Y-81695357D01*
X149211904Y-81695357D01*
X149259523Y-81719166D01*
X149283333Y-81766785D01*
X149283333Y-81814404D01*
X149045238Y-81862023D01*
X149497619Y-82028690D02*
X149497619Y-81695357D01*
X149497619Y-81790595D02*
X149521428Y-81742976D01*
X149545238Y-81719166D01*
X149592857Y-81695357D01*
X149640476Y-81695357D01*
D11*
X145783333Y-77490357D02*
X145783333Y-77823690D01*
X145664285Y-77299880D02*
X145545238Y-77657023D01*
X145854761Y-77657023D01*
X146021428Y-77371309D02*
X146045238Y-77347500D01*
X146092857Y-77323690D01*
X146211904Y-77323690D01*
X146259523Y-77347500D01*
X146283333Y-77371309D01*
X146307142Y-77418928D01*
X146307142Y-77466547D01*
X146283333Y-77537976D01*
X145997619Y-77823690D01*
X146307142Y-77823690D01*
X146473809Y-77323690D02*
X146807142Y-77323690D01*
X146592857Y-77823690D01*
X146973809Y-77371309D02*
X146997619Y-77347500D01*
X147045238Y-77323690D01*
X147164285Y-77323690D01*
X147211904Y-77347500D01*
X147235714Y-77371309D01*
X147259523Y-77418928D01*
X147259523Y-77466547D01*
X147235714Y-77537976D01*
X146950000Y-77823690D01*
X147259523Y-77823690D01*
X147854761Y-77823690D02*
X147854761Y-77323690D01*
X148021428Y-77680833D01*
X148188095Y-77323690D01*
X148188095Y-77823690D01*
X148640476Y-77823690D02*
X148640476Y-77561785D01*
X148616666Y-77514166D01*
X148569047Y-77490357D01*
X148473809Y-77490357D01*
X148426190Y-77514166D01*
X148640476Y-77799880D02*
X148592857Y-77823690D01*
X148473809Y-77823690D01*
X148426190Y-77799880D01*
X148402380Y-77752261D01*
X148402380Y-77704642D01*
X148426190Y-77657023D01*
X148473809Y-77633214D01*
X148592857Y-77633214D01*
X148640476Y-77609404D01*
X148830952Y-77490357D02*
X148950000Y-77823690D01*
X149069047Y-77490357D01*
X149450000Y-77799880D02*
X149402380Y-77823690D01*
X149307142Y-77823690D01*
X149259523Y-77799880D01*
X149235714Y-77752261D01*
X149235714Y-77561785D01*
X149259523Y-77514166D01*
X149307142Y-77490357D01*
X149402380Y-77490357D01*
X149450000Y-77514166D01*
X149473809Y-77561785D01*
X149473809Y-77609404D01*
X149235714Y-77657023D01*
X149688095Y-77823690D02*
X149688095Y-77490357D01*
X149688095Y-77585595D02*
X149711904Y-77537976D01*
X149735714Y-77514166D01*
X149783333Y-77490357D01*
X149830952Y-77490357D01*
X149997619Y-77823690D02*
X149997619Y-77490357D01*
X149997619Y-77323690D02*
X149973809Y-77347500D01*
X149997619Y-77371309D01*
X150021428Y-77347500D01*
X149997619Y-77323690D01*
X149997619Y-77371309D01*
X150450000Y-77799880D02*
X150402380Y-77823690D01*
X150307142Y-77823690D01*
X150259523Y-77799880D01*
X150235714Y-77776071D01*
X150211904Y-77728452D01*
X150211904Y-77585595D01*
X150235714Y-77537976D01*
X150259523Y-77514166D01*
X150307142Y-77490357D01*
X150402380Y-77490357D01*
X150450000Y-77514166D01*
X150664285Y-77823690D02*
X150664285Y-77323690D01*
X150711904Y-77633214D02*
X150854761Y-77823690D01*
X150854761Y-77490357D02*
X150664285Y-77680833D01*
X146997619Y-78628690D02*
X146830952Y-78390595D01*
X146711904Y-78628690D02*
X146711904Y-78128690D01*
X146902380Y-78128690D01*
X146950000Y-78152500D01*
X146973809Y-78176309D01*
X146997619Y-78223928D01*
X146997619Y-78295357D01*
X146973809Y-78342976D01*
X146950000Y-78366785D01*
X146902380Y-78390595D01*
X146711904Y-78390595D01*
X147283333Y-78628690D02*
X147235714Y-78604880D01*
X147211904Y-78581071D01*
X147188095Y-78533452D01*
X147188095Y-78390595D01*
X147211904Y-78342976D01*
X147235714Y-78319166D01*
X147283333Y-78295357D01*
X147354761Y-78295357D01*
X147402380Y-78319166D01*
X147426190Y-78342976D01*
X147450000Y-78390595D01*
X147450000Y-78533452D01*
X147426190Y-78581071D01*
X147402380Y-78604880D01*
X147354761Y-78628690D01*
X147283333Y-78628690D01*
X147664285Y-78628690D02*
X147664285Y-78128690D01*
X147664285Y-78319166D02*
X147711904Y-78295357D01*
X147807142Y-78295357D01*
X147854761Y-78319166D01*
X147878571Y-78342976D01*
X147902380Y-78390595D01*
X147902380Y-78533452D01*
X147878571Y-78581071D01*
X147854761Y-78604880D01*
X147807142Y-78628690D01*
X147711904Y-78628690D01*
X147664285Y-78604880D01*
X148188095Y-78628690D02*
X148140476Y-78604880D01*
X148116666Y-78581071D01*
X148092857Y-78533452D01*
X148092857Y-78390595D01*
X148116666Y-78342976D01*
X148140476Y-78319166D01*
X148188095Y-78295357D01*
X148259523Y-78295357D01*
X148307142Y-78319166D01*
X148330952Y-78342976D01*
X148354761Y-78390595D01*
X148354761Y-78533452D01*
X148330952Y-78581071D01*
X148307142Y-78604880D01*
X148259523Y-78628690D01*
X148188095Y-78628690D01*
X148497619Y-78295357D02*
X148688095Y-78295357D01*
X148569047Y-78128690D02*
X148569047Y-78557261D01*
X148592857Y-78604880D01*
X148640476Y-78628690D01*
X148688095Y-78628690D01*
X148854761Y-78628690D02*
X148854761Y-78295357D01*
X148854761Y-78128690D02*
X148830952Y-78152500D01*
X148854761Y-78176309D01*
X148878571Y-78152500D01*
X148854761Y-78128690D01*
X148854761Y-78176309D01*
X149307142Y-78604880D02*
X149259523Y-78628690D01*
X149164285Y-78628690D01*
X149116666Y-78604880D01*
X149092857Y-78581071D01*
X149069047Y-78533452D01*
X149069047Y-78390595D01*
X149092857Y-78342976D01*
X149116666Y-78319166D01*
X149164285Y-78295357D01*
X149259523Y-78295357D01*
X149307142Y-78319166D01*
X149497619Y-78604880D02*
X149545238Y-78628690D01*
X149640476Y-78628690D01*
X149688095Y-78604880D01*
X149711904Y-78557261D01*
X149711904Y-78533452D01*
X149688095Y-78485833D01*
X149640476Y-78462023D01*
X149569047Y-78462023D01*
X149521428Y-78438214D01*
X149497619Y-78390595D01*
X149497619Y-78366785D01*
X149521428Y-78319166D01*
X149569047Y-78295357D01*
X149640476Y-78295357D01*
X149688095Y-78319166D01*
D12*
%TO.C,R1*%
X146452380Y-75916666D02*
X145976190Y-76250000D01*
X146452380Y-76488095D02*
X145452380Y-76488095D01*
X145452380Y-76107142D01*
X145500000Y-76011904D01*
X145547619Y-75964285D01*
X145642857Y-75916666D01*
X145785714Y-75916666D01*
X145880952Y-75964285D01*
X145928571Y-76011904D01*
X145976190Y-76107142D01*
X145976190Y-76488095D01*
X146452380Y-74964285D02*
X146452380Y-75535714D01*
X146452380Y-75250000D02*
X145452380Y-75250000D01*
X145595238Y-75345238D01*
X145690476Y-75440476D01*
X145738095Y-75535714D01*
%TO.C,C2*%
X153866666Y-77485714D02*
X153828571Y-77523809D01*
X153714285Y-77561904D01*
X153638095Y-77561904D01*
X153523809Y-77523809D01*
X153447619Y-77447619D01*
X153409523Y-77371428D01*
X153371428Y-77219047D01*
X153371428Y-77104761D01*
X153409523Y-76952380D01*
X153447619Y-76876190D01*
X153523809Y-76800000D01*
X153638095Y-76761904D01*
X153714285Y-76761904D01*
X153828571Y-76800000D01*
X153866666Y-76838095D01*
X154171428Y-76838095D02*
X154209523Y-76800000D01*
X154285714Y-76761904D01*
X154476190Y-76761904D01*
X154552380Y-76800000D01*
X154590476Y-76838095D01*
X154628571Y-76914285D01*
X154628571Y-76990476D01*
X154590476Y-77104761D01*
X154133333Y-77561904D01*
X154628571Y-77561904D01*
%TO.C,TVS1*%
X142333333Y-82102380D02*
X142904761Y-82102380D01*
X142619047Y-83102380D02*
X142619047Y-82102380D01*
X143095238Y-82102380D02*
X143428571Y-83102380D01*
X143761904Y-82102380D01*
X144047619Y-83054761D02*
X144190476Y-83102380D01*
X144428571Y-83102380D01*
X144523809Y-83054761D01*
X144571428Y-83007142D01*
X144619047Y-82911904D01*
X144619047Y-82816666D01*
X144571428Y-82721428D01*
X144523809Y-82673809D01*
X144428571Y-82626190D01*
X144238095Y-82578571D01*
X144142857Y-82530952D01*
X144095238Y-82483333D01*
X144047619Y-82388095D01*
X144047619Y-82292857D01*
X144095238Y-82197619D01*
X144142857Y-82150000D01*
X144238095Y-82102380D01*
X144476190Y-82102380D01*
X144619047Y-82150000D01*
X145571428Y-83102380D02*
X145000000Y-83102380D01*
X145285714Y-83102380D02*
X145285714Y-82102380D01*
X145190476Y-82245238D01*
X145095238Y-82340476D01*
X145000000Y-82388095D01*
%TO.C,R7*%
X155382380Y-75166666D02*
X154906190Y-75500000D01*
X155382380Y-75738095D02*
X154382380Y-75738095D01*
X154382380Y-75357142D01*
X154430000Y-75261904D01*
X154477619Y-75214285D01*
X154572857Y-75166666D01*
X154715714Y-75166666D01*
X154810952Y-75214285D01*
X154858571Y-75261904D01*
X154906190Y-75357142D01*
X154906190Y-75738095D01*
X154382380Y-74833333D02*
X154382380Y-74166666D01*
X155382380Y-74595238D01*
%TO.C,R3*%
X149552380Y-76016666D02*
X149076190Y-76350000D01*
X149552380Y-76588095D02*
X148552380Y-76588095D01*
X148552380Y-76207142D01*
X148600000Y-76111904D01*
X148647619Y-76064285D01*
X148742857Y-76016666D01*
X148885714Y-76016666D01*
X148980952Y-76064285D01*
X149028571Y-76111904D01*
X149076190Y-76207142D01*
X149076190Y-76588095D01*
X148552380Y-75683333D02*
X148552380Y-75064285D01*
X148933333Y-75397619D01*
X148933333Y-75254761D01*
X148980952Y-75159523D01*
X149028571Y-75111904D01*
X149123809Y-75064285D01*
X149361904Y-75064285D01*
X149457142Y-75111904D01*
X149504761Y-75159523D01*
X149552380Y-75254761D01*
X149552380Y-75540476D01*
X149504761Y-75635714D01*
X149457142Y-75683333D01*
%TO.C,LED3*%
X150360714Y-71939285D02*
X150003571Y-71939285D01*
X150003571Y-71189285D01*
X150610714Y-71546428D02*
X150860714Y-71546428D01*
X150967857Y-71939285D02*
X150610714Y-71939285D01*
X150610714Y-71189285D01*
X150967857Y-71189285D01*
X151289285Y-71939285D02*
X151289285Y-71189285D01*
X151467857Y-71189285D01*
X151575000Y-71225000D01*
X151646428Y-71296428D01*
X151682142Y-71367857D01*
X151717857Y-71510714D01*
X151717857Y-71617857D01*
X151682142Y-71760714D01*
X151646428Y-71832142D01*
X151575000Y-71903571D01*
X151467857Y-71939285D01*
X151289285Y-71939285D01*
X151967857Y-71189285D02*
X152432142Y-71189285D01*
X152182142Y-71475000D01*
X152289285Y-71475000D01*
X152360714Y-71510714D01*
X152396428Y-71546428D01*
X152432142Y-71617857D01*
X152432142Y-71796428D01*
X152396428Y-71867857D01*
X152360714Y-71903571D01*
X152289285Y-71939285D01*
X152075000Y-71939285D01*
X152003571Y-71903571D01*
X151967857Y-71867857D01*
%TO.C,C3*%
X141557142Y-79166666D02*
X141604761Y-79214285D01*
X141652380Y-79357142D01*
X141652380Y-79452380D01*
X141604761Y-79595238D01*
X141509523Y-79690476D01*
X141414285Y-79738095D01*
X141223809Y-79785714D01*
X141080952Y-79785714D01*
X140890476Y-79738095D01*
X140795238Y-79690476D01*
X140700000Y-79595238D01*
X140652380Y-79452380D01*
X140652380Y-79357142D01*
X140700000Y-79214285D01*
X140747619Y-79166666D01*
X140652380Y-78833333D02*
X140652380Y-78214285D01*
X141033333Y-78547619D01*
X141033333Y-78404761D01*
X141080952Y-78309523D01*
X141128571Y-78261904D01*
X141223809Y-78214285D01*
X141461904Y-78214285D01*
X141557142Y-78261904D01*
X141604761Y-78309523D01*
X141652380Y-78404761D01*
X141652380Y-78690476D01*
X141604761Y-78785714D01*
X141557142Y-78833333D01*
%TO.C,R6*%
X152382380Y-75166666D02*
X151906190Y-75500000D01*
X152382380Y-75738095D02*
X151382380Y-75738095D01*
X151382380Y-75357142D01*
X151430000Y-75261904D01*
X151477619Y-75214285D01*
X151572857Y-75166666D01*
X151715714Y-75166666D01*
X151810952Y-75214285D01*
X151858571Y-75261904D01*
X151906190Y-75357142D01*
X151906190Y-75738095D01*
X151382380Y-74309523D02*
X151382380Y-74500000D01*
X151430000Y-74595238D01*
X151477619Y-74642857D01*
X151620476Y-74738095D01*
X151810952Y-74785714D01*
X152191904Y-74785714D01*
X152287142Y-74738095D01*
X152334761Y-74690476D01*
X152382380Y-74595238D01*
X152382380Y-74404761D01*
X152334761Y-74309523D01*
X152287142Y-74261904D01*
X152191904Y-74214285D01*
X151953809Y-74214285D01*
X151858571Y-74261904D01*
X151810952Y-74309523D01*
X151763333Y-74404761D01*
X151763333Y-74595238D01*
X151810952Y-74690476D01*
X151858571Y-74738095D01*
X151953809Y-74785714D01*
%TO.C,R2*%
X143632380Y-75666666D02*
X143156190Y-76000000D01*
X143632380Y-76238095D02*
X142632380Y-76238095D01*
X142632380Y-75857142D01*
X142680000Y-75761904D01*
X142727619Y-75714285D01*
X142822857Y-75666666D01*
X142965714Y-75666666D01*
X143060952Y-75714285D01*
X143108571Y-75761904D01*
X143156190Y-75857142D01*
X143156190Y-76238095D01*
X142727619Y-75285714D02*
X142680000Y-75238095D01*
X142632380Y-75142857D01*
X142632380Y-74904761D01*
X142680000Y-74809523D01*
X142727619Y-74761904D01*
X142822857Y-74714285D01*
X142918095Y-74714285D01*
X143060952Y-74761904D01*
X143632380Y-75333333D01*
X143632380Y-74714285D01*
%TO.C,C1*%
X152283333Y-82357142D02*
X152235714Y-82404761D01*
X152092857Y-82452380D01*
X151997619Y-82452380D01*
X151854761Y-82404761D01*
X151759523Y-82309523D01*
X151711904Y-82214285D01*
X151664285Y-82023809D01*
X151664285Y-81880952D01*
X151711904Y-81690476D01*
X151759523Y-81595238D01*
X151854761Y-81500000D01*
X151997619Y-81452380D01*
X152092857Y-81452380D01*
X152235714Y-81500000D01*
X152283333Y-81547619D01*
X153235714Y-82452380D02*
X152664285Y-82452380D01*
X152950000Y-82452380D02*
X152950000Y-81452380D01*
X152854761Y-81595238D01*
X152759523Y-81690476D01*
X152664285Y-81738095D01*
D13*
%TO.C,R1*%
X143977500Y-75254724D02*
X143977500Y-74745276D01*
X145022500Y-75254724D02*
X145022500Y-74745276D01*
%TO.C,C2*%
X153701248Y-79235000D02*
X154223752Y-79235000D01*
X153701248Y-77765000D02*
X154223752Y-77765000D01*
%TO.C,TVS1*%
X141940000Y-86000000D02*
X141940000Y-86650000D01*
X145060000Y-86000000D02*
X145060000Y-84325000D01*
X145060000Y-86000000D02*
X145060000Y-86650000D01*
X141940000Y-86000000D02*
X141940000Y-85350000D01*
%TO.C,R7*%
X152977500Y-74745276D02*
X152977500Y-75254724D01*
X154022500Y-74745276D02*
X154022500Y-75254724D01*
%TO.C,R3*%
X146977500Y-75254724D02*
X146977500Y-74745276D01*
X148022500Y-75254724D02*
X148022500Y-74745276D01*
%TO.C,LED3*%
X148925000Y-70765000D02*
X146465000Y-70765000D01*
X146465000Y-70765000D02*
X146465000Y-72235000D01*
X146465000Y-72235000D02*
X148925000Y-72235000D01*
%TO.C,C3*%
X143510000Y-79783767D02*
X143510000Y-79491233D01*
X142490000Y-79783767D02*
X142490000Y-79491233D01*
%TO.C,R6*%
X151022500Y-74745276D02*
X151022500Y-75254724D01*
X149977500Y-74745276D02*
X149977500Y-75254724D01*
%TO.C,R2*%
X141227500Y-74745276D02*
X141227500Y-75254724D01*
X142272500Y-74745276D02*
X142272500Y-75254724D01*
%TO.C,C1*%
X153353733Y-81010000D02*
X153646267Y-81010000D01*
X153353733Y-79990000D02*
X153646267Y-79990000D01*
%TD*%
M02*
