M48
; DRILL file {KiCad (6.0.7)} date Tue Sep 20 18:48:00 2022
; FORMAT={-:-/ absolute / inch / decimal}
; #@! TF.CreationDate,2022-09-20T18:48:00-04:00
; #@! TF.GenerationSoftware,Kicad,Pcbnew,(6.0.7)
; #@! TF.FileFunction,Plated,1,2,PTH
FMAT,2
INCH
; #@! TA.AperFunction,Plated,PTH,ViaDrill
T1C0.0157
; #@! TA.AperFunction,Plated,PTH,ComponentDrill
T2C0.0394
%
G90
G05
T1
X5.5591Y-3.0
X5.5728Y-3.1909
X5.6496Y-2.8701
X5.6496Y-2.9213
X5.6614Y-3.2835
X5.6693Y-3.1378
X5.6732Y-3.2087
X5.7362Y-2.8268
X5.7441Y-3.3819
X5.748Y-2.9331
X5.8071Y-3.1496
X5.8622Y-3.1437
X5.876Y-2.937
X5.9252Y-2.8543
X5.9409Y-3.1949
X5.9902Y-3.3681
X5.9941Y-3.0157
X6.0315Y-3.6299
X6.0551Y-3.2283
X6.0827Y-2.9488
T2
X5.7323Y-3.5079
X5.8323Y-3.5079
X5.9323Y-3.5079
T0
M30
