%TF.GenerationSoftware,KiCad,Pcbnew,(6.0.6)*%
%TF.CreationDate,2022-07-19T20:12:23-04:00*%
%TF.ProjectId,4272SparkMaxBreakout,34323732-5370-4617-926b-4d6178427265,rev?*%
%TF.SameCoordinates,Original*%
%TF.FileFunction,Legend,Bot*%
%TF.FilePolarity,Positive*%
%FSLAX46Y46*%
G04 Gerber Fmt 4.6, Leading zero omitted, Abs format (unit mm)*
G04 Created by KiCad (PCBNEW (6.0.6)) date 2022-07-19 20:12:23*
%MOMM*%
%LPD*%
G01*
G04 APERTURE LIST*
%ADD10C,0.254000*%
%ADD11C,0.100000*%
G04 APERTURE END LIST*
D10*
%TO.C,J500*%
X118582857Y-105054523D02*
X118582857Y-105961666D01*
X118643333Y-106143095D01*
X118764285Y-106264047D01*
X118945714Y-106324523D01*
X119066666Y-106324523D01*
X117373333Y-105054523D02*
X117978095Y-105054523D01*
X118038571Y-105659285D01*
X117978095Y-105598809D01*
X117857142Y-105538333D01*
X117554761Y-105538333D01*
X117433809Y-105598809D01*
X117373333Y-105659285D01*
X117312857Y-105780238D01*
X117312857Y-106082619D01*
X117373333Y-106203571D01*
X117433809Y-106264047D01*
X117554761Y-106324523D01*
X117857142Y-106324523D01*
X117978095Y-106264047D01*
X118038571Y-106203571D01*
X116526666Y-105054523D02*
X116405714Y-105054523D01*
X116284761Y-105115000D01*
X116224285Y-105175476D01*
X116163809Y-105296428D01*
X116103333Y-105538333D01*
X116103333Y-105840714D01*
X116163809Y-106082619D01*
X116224285Y-106203571D01*
X116284761Y-106264047D01*
X116405714Y-106324523D01*
X116526666Y-106324523D01*
X116647619Y-106264047D01*
X116708095Y-106203571D01*
X116768571Y-106082619D01*
X116829047Y-105840714D01*
X116829047Y-105538333D01*
X116768571Y-105296428D01*
X116708095Y-105175476D01*
X116647619Y-105115000D01*
X116526666Y-105054523D01*
X115317142Y-105054523D02*
X115196190Y-105054523D01*
X115075238Y-105115000D01*
X115014761Y-105175476D01*
X114954285Y-105296428D01*
X114893809Y-105538333D01*
X114893809Y-105840714D01*
X114954285Y-106082619D01*
X115014761Y-106203571D01*
X115075238Y-106264047D01*
X115196190Y-106324523D01*
X115317142Y-106324523D01*
X115438095Y-106264047D01*
X115498571Y-106203571D01*
X115559047Y-106082619D01*
X115619523Y-105840714D01*
X115619523Y-105538333D01*
X115559047Y-105296428D01*
X115498571Y-105175476D01*
X115438095Y-105115000D01*
X115317142Y-105054523D01*
D11*
X121285000Y-103785000D02*
X122235000Y-103785000D01*
X119135000Y-94335000D02*
X120050000Y-94335000D01*
X119135000Y-103785000D02*
X119135000Y-102260000D01*
X122235000Y-94335000D02*
X121485000Y-94335000D01*
X122235000Y-95860000D02*
X122235000Y-94335000D01*
X119135000Y-95860000D02*
X119135000Y-94335000D01*
X122235000Y-103785000D02*
X122235000Y-102260000D01*
X120085000Y-103785000D02*
X119135000Y-103785000D01*
%TD*%
M02*
