%TF.GenerationSoftware,KiCad,Pcbnew,(6.0.6)*%
%TF.CreationDate,2022-07-19T20:12:23-04:00*%
%TF.ProjectId,4272SparkMaxBreakout,34323732-5370-4617-926b-4d6178427265,rev?*%
%TF.SameCoordinates,Original*%
%TF.FileFunction,Copper,L2,Bot*%
%TF.FilePolarity,Positive*%
%FSLAX46Y46*%
G04 Gerber Fmt 4.6, Leading zero omitted, Abs format (unit mm)*
G04 Created by KiCad (PCBNEW (6.0.6)) date 2022-07-19 20:12:23*
%MOMM*%
%LPD*%
G01*
G04 APERTURE LIST*
%TA.AperFunction,SMDPad,CuDef*%
%ADD10R,2.610000X0.740000*%
%TD*%
%TA.AperFunction,ViaPad*%
%ADD11C,0.800000*%
%TD*%
%TA.AperFunction,Conductor*%
%ADD12C,0.381000*%
%TD*%
%TA.AperFunction,Conductor*%
%ADD13C,0.250000*%
%TD*%
G04 APERTURE END LIST*
D10*
%TO.P,J500,1*%
%TO.N,+3.3V*%
X123190000Y-101600000D03*
%TO.P,J500,2*%
%TO.N,+5V*%
X118180000Y-101600000D03*
%TO.P,J500,3*%
%TO.N,/ANALOG_IN*%
X123190000Y-100330000D03*
%TO.P,J500,4*%
%TO.N,/FWD_LIM_SW*%
X118180000Y-100330000D03*
%TO.P,J500,5*%
%TO.N,/ENC_B*%
X123190000Y-99060000D03*
%TO.P,J500,6*%
%TO.N,unconnected-(J500-Pad6)*%
X118180000Y-99060000D03*
%TO.P,J500,7*%
%TO.N,/ENC_A*%
X123190000Y-97790000D03*
%TO.P,J500,8*%
%TO.N,/RVS_LIM_SW*%
X118180000Y-97790000D03*
%TO.P,J500,9*%
%TO.N,/INDEX*%
X123190000Y-96520000D03*
%TO.P,J500,10*%
%TO.N,GND*%
X118180000Y-96520000D03*
%TD*%
D11*
%TO.N,+3.3V*%
X127000000Y-102362000D03*
X123444000Y-103124000D03*
%TO.N,+5V*%
X106700000Y-92900000D03*
X135509000Y-90678000D03*
%TO.N,/ANALOG_IN*%
X130810000Y-102235000D03*
%TO.N,/FWD_LIM_SW*%
X120650000Y-88900000D03*
%TO.N,/ENC_B*%
X125730000Y-99060000D03*
%TO.N,/ENC_A*%
X125730000Y-97790000D03*
%TO.N,/RVS_LIM_SW*%
X118304799Y-89729799D03*
%TO.N,/INDEX*%
X105410000Y-102870000D03*
X125730000Y-96520000D03*
X106680000Y-90170000D03*
%TO.N,GND*%
X121218138Y-104232632D03*
X134700000Y-94450000D03*
X122800000Y-95100000D03*
X120050000Y-91400000D03*
X101854000Y-110109000D03*
X127400000Y-91350000D03*
X127950000Y-101300000D03*
X106900000Y-91400000D03*
X134874000Y-105410000D03*
X106807000Y-105283000D03*
X123550000Y-106550000D03*
X131350000Y-101000000D03*
X106100000Y-94000000D03*
X115400000Y-100350000D03*
X135255000Y-88138000D03*
X116205000Y-96520000D03*
X111252000Y-86233000D03*
%TD*%
D12*
%TO.N,+3.3V*%
X127000000Y-102362000D02*
X126238000Y-101600000D01*
X126238000Y-101600000D02*
X123190000Y-101600000D01*
X123190000Y-101600000D02*
X123190000Y-102870000D01*
X123190000Y-102870000D02*
X123444000Y-103124000D01*
%TO.N,+5V*%
X107172349Y-96618663D02*
X112153686Y-101600000D01*
X106700000Y-92900000D02*
X107172349Y-93372349D01*
X132350000Y-93837000D02*
X132350000Y-102850000D01*
X120400000Y-105250000D02*
X118180000Y-103030000D01*
X129950000Y-105250000D02*
X120400000Y-105250000D01*
X132350000Y-102850000D02*
X129950000Y-105250000D01*
X112153686Y-101600000D02*
X118180000Y-101600000D01*
X118180000Y-103030000D02*
X118180000Y-101600000D01*
X107172349Y-93372349D02*
X107172349Y-96618663D01*
X135509000Y-90678000D02*
X132350000Y-93837000D01*
D13*
%TO.N,/ANALOG_IN*%
X130810000Y-102235000D02*
X128905000Y-100330000D01*
X128905000Y-100330000D02*
X123190000Y-100330000D01*
%TO.N,/FWD_LIM_SW*%
X117230000Y-100330000D02*
X118180000Y-100330000D01*
X120650000Y-88900000D02*
X118110000Y-88900000D01*
X114500000Y-92510000D02*
X114500000Y-97600000D01*
X118110000Y-88900000D02*
X114500000Y-92510000D01*
X114500000Y-97600000D02*
X117230000Y-100330000D01*
%TO.N,/ENC_B*%
X125730000Y-99060000D02*
X123190000Y-99060000D01*
%TO.N,/ENC_A*%
X125730000Y-97790000D02*
X123190000Y-97790000D01*
%TO.N,/RVS_LIM_SW*%
X118042201Y-89729799D02*
X115000000Y-92772000D01*
X115570000Y-97790000D02*
X118180000Y-97790000D01*
X115000000Y-97220000D02*
X115570000Y-97790000D01*
X115000000Y-92772000D02*
X115000000Y-97220000D01*
X118304799Y-89729799D02*
X118042201Y-89729799D01*
%TO.N,/INDEX*%
X105150000Y-102610000D02*
X105150000Y-91700000D01*
X105150000Y-91700000D02*
X106680000Y-90170000D01*
X125730000Y-96520000D02*
X123190000Y-96520000D01*
X105410000Y-102870000D02*
X105150000Y-102610000D01*
D12*
%TO.N,GND*%
X116205000Y-96520000D02*
X118180000Y-96520000D01*
%TD*%
%TA.AperFunction,Conductor*%
%TO.N,GND*%
G36*
X111608838Y-82697002D02*
G01*
X111655417Y-82750849D01*
X111667208Y-82776782D01*
X111673069Y-82783584D01*
X111683970Y-82796235D01*
X111695073Y-82811239D01*
X111708776Y-82832958D01*
X111715501Y-82838897D01*
X111715504Y-82838901D01*
X111730938Y-82852532D01*
X111742982Y-82864724D01*
X111756427Y-82880327D01*
X111756430Y-82880329D01*
X111762287Y-82887127D01*
X111769816Y-82892007D01*
X111769817Y-82892008D01*
X111783835Y-82901094D01*
X111798709Y-82912385D01*
X111806270Y-82919062D01*
X111817951Y-82929378D01*
X111844711Y-82941942D01*
X111859691Y-82950263D01*
X111876983Y-82961471D01*
X111876988Y-82961473D01*
X111884515Y-82966352D01*
X111893108Y-82968922D01*
X111893113Y-82968924D01*
X111909120Y-82973711D01*
X111926564Y-82980372D01*
X111941676Y-82987467D01*
X111941678Y-82987468D01*
X111949800Y-82991281D01*
X111958667Y-82992662D01*
X111958668Y-82992662D01*
X111968310Y-82994163D01*
X111979017Y-82995830D01*
X111995732Y-82999613D01*
X112015466Y-83005515D01*
X112015472Y-83005516D01*
X112024066Y-83008086D01*
X112033037Y-83008141D01*
X112033038Y-83008141D01*
X112043097Y-83008202D01*
X112058506Y-83008296D01*
X112059289Y-83008329D01*
X112060386Y-83008500D01*
X112091377Y-83008500D01*
X112092147Y-83008502D01*
X112165785Y-83008952D01*
X112165786Y-83008952D01*
X112169721Y-83008976D01*
X112171065Y-83008592D01*
X112172410Y-83008500D01*
X144165500Y-83008500D01*
X144233621Y-83028502D01*
X144280114Y-83082158D01*
X144291500Y-83134500D01*
X144291500Y-86720216D01*
X144274516Y-86778059D01*
X144289464Y-86807809D01*
X144291500Y-86830367D01*
X144291500Y-97140216D01*
X144274516Y-97198059D01*
X144289464Y-97227809D01*
X144291500Y-97250367D01*
X144291500Y-114935500D01*
X144271498Y-115003621D01*
X144217842Y-115050114D01*
X144165500Y-115061500D01*
X136209337Y-115061500D01*
X136208567Y-115061498D01*
X136207751Y-115061493D01*
X136130993Y-115061024D01*
X136108632Y-115067415D01*
X136102561Y-115069150D01*
X136085799Y-115072728D01*
X136056527Y-115076920D01*
X136048359Y-115080634D01*
X136048358Y-115080634D01*
X136033152Y-115087548D01*
X136015628Y-115093996D01*
X135990943Y-115101051D01*
X135983349Y-115105843D01*
X135983346Y-115105844D01*
X135965934Y-115116830D01*
X135950851Y-115124969D01*
X135923932Y-115137208D01*
X135917130Y-115143069D01*
X135904479Y-115153970D01*
X135889475Y-115165073D01*
X135867756Y-115178776D01*
X135861817Y-115185501D01*
X135861813Y-115185504D01*
X135848182Y-115200938D01*
X135835990Y-115212982D01*
X135820387Y-115226427D01*
X135820385Y-115226430D01*
X135813587Y-115232287D01*
X135808707Y-115239816D01*
X135808706Y-115239817D01*
X135799620Y-115253835D01*
X135788329Y-115268709D01*
X135777283Y-115281217D01*
X135771336Y-115287951D01*
X135758772Y-115314711D01*
X135750451Y-115329691D01*
X135739245Y-115346981D01*
X135734362Y-115354515D01*
X135731791Y-115363112D01*
X135728677Y-115369851D01*
X135681946Y-115423300D01*
X135614297Y-115443000D01*
X129772443Y-115443000D01*
X129704322Y-115422998D01*
X129665881Y-115384235D01*
X129653883Y-115365219D01*
X129645744Y-115350135D01*
X129644310Y-115346981D01*
X129633506Y-115323218D01*
X129616744Y-115303765D01*
X129605641Y-115288761D01*
X129591938Y-115267042D01*
X129585213Y-115261103D01*
X129585210Y-115261099D01*
X129569776Y-115247468D01*
X129557732Y-115235276D01*
X129544287Y-115219673D01*
X129544284Y-115219671D01*
X129538427Y-115212873D01*
X129516879Y-115198906D01*
X129502005Y-115187615D01*
X129489497Y-115176569D01*
X129489496Y-115176568D01*
X129482763Y-115170622D01*
X129456001Y-115158057D01*
X129441023Y-115149737D01*
X129423731Y-115138529D01*
X129423726Y-115138527D01*
X129416199Y-115133648D01*
X129407606Y-115131078D01*
X129407601Y-115131076D01*
X129391594Y-115126289D01*
X129374150Y-115119628D01*
X129359038Y-115112533D01*
X129359036Y-115112532D01*
X129350914Y-115108719D01*
X129342047Y-115107338D01*
X129342046Y-115107338D01*
X129332404Y-115105837D01*
X129321697Y-115104170D01*
X129304982Y-115100387D01*
X129285248Y-115094485D01*
X129285242Y-115094484D01*
X129276648Y-115091914D01*
X129267677Y-115091859D01*
X129267676Y-115091859D01*
X129257617Y-115091798D01*
X129242208Y-115091704D01*
X129241425Y-115091671D01*
X129240328Y-115091500D01*
X129209337Y-115091500D01*
X129208567Y-115091498D01*
X129134929Y-115091048D01*
X129134928Y-115091048D01*
X129130993Y-115091024D01*
X129129649Y-115091408D01*
X129128304Y-115091500D01*
X97154500Y-115091500D01*
X97086379Y-115071498D01*
X97039886Y-115017842D01*
X97028500Y-114965500D01*
X97028500Y-111789774D01*
X139233681Y-111789774D01*
X139233768Y-111793775D01*
X139233768Y-111793783D01*
X139238055Y-111990226D01*
X139240329Y-112094438D01*
X139285635Y-112395789D01*
X139368865Y-112688939D01*
X139488669Y-112969138D01*
X139643105Y-113231843D01*
X139829671Y-113472796D01*
X139832519Y-113475639D01*
X139971638Y-113614515D01*
X140045340Y-113688089D01*
X140286618Y-113874233D01*
X140549592Y-114028211D01*
X140553277Y-114029779D01*
X140553285Y-114029783D01*
X140733906Y-114106637D01*
X140830000Y-114147526D01*
X141123295Y-114230244D01*
X141343045Y-114262890D01*
X141421425Y-114274534D01*
X141421427Y-114274534D01*
X141424724Y-114275024D01*
X141428055Y-114275164D01*
X141428059Y-114275164D01*
X141464396Y-114276687D01*
X141507659Y-114278500D01*
X141702096Y-114278500D01*
X141825523Y-114270626D01*
X141925111Y-114264274D01*
X141925116Y-114264273D01*
X141929119Y-114264018D01*
X141933058Y-114263256D01*
X142224370Y-114206895D01*
X142224374Y-114206894D01*
X142228307Y-114206133D01*
X142517716Y-114110700D01*
X142792652Y-113979267D01*
X142796017Y-113977094D01*
X142796021Y-113977092D01*
X143045294Y-113816139D01*
X143045300Y-113816134D01*
X143048660Y-113813965D01*
X143281588Y-113617474D01*
X143365406Y-113526163D01*
X143484946Y-113395936D01*
X143484948Y-113395934D01*
X143487661Y-113392978D01*
X143663539Y-113144117D01*
X143806369Y-112874926D01*
X143875069Y-112692637D01*
X143912420Y-112593529D01*
X143912422Y-112593523D01*
X143913837Y-112589768D01*
X143984200Y-112293266D01*
X144016319Y-111990226D01*
X144012033Y-111793783D01*
X144009759Y-111689579D01*
X144009759Y-111689574D01*
X144009671Y-111685562D01*
X143964365Y-111384211D01*
X143881135Y-111091061D01*
X143761331Y-110810862D01*
X143606895Y-110548157D01*
X143420329Y-110307204D01*
X143324189Y-110211232D01*
X143207503Y-110094749D01*
X143204660Y-110091911D01*
X142963382Y-109905767D01*
X142700408Y-109751789D01*
X142696723Y-109750221D01*
X142696715Y-109750217D01*
X142503590Y-109668042D01*
X142420000Y-109632474D01*
X142126705Y-109549756D01*
X141897638Y-109515726D01*
X141828575Y-109505466D01*
X141828573Y-109505466D01*
X141825276Y-109504976D01*
X141821945Y-109504836D01*
X141821941Y-109504836D01*
X141785604Y-109503313D01*
X141742341Y-109501500D01*
X141547904Y-109501500D01*
X141424477Y-109509374D01*
X141324889Y-109515726D01*
X141324884Y-109515727D01*
X141320881Y-109515982D01*
X141316943Y-109516744D01*
X141316942Y-109516744D01*
X141025630Y-109573105D01*
X141025626Y-109573106D01*
X141021693Y-109573867D01*
X140732284Y-109669300D01*
X140457348Y-109800733D01*
X140453983Y-109802906D01*
X140453979Y-109802908D01*
X140204706Y-109963861D01*
X140204700Y-109963866D01*
X140201340Y-109966035D01*
X139968412Y-110162526D01*
X139965696Y-110165485D01*
X139838217Y-110304361D01*
X139762339Y-110387022D01*
X139586461Y-110635883D01*
X139443631Y-110905074D01*
X139442216Y-110908830D01*
X139442215Y-110908831D01*
X139372079Y-111094933D01*
X139336163Y-111190232D01*
X139265800Y-111486734D01*
X139233681Y-111789774D01*
X97028500Y-111789774D01*
X97028500Y-106856880D01*
X97561992Y-106856880D01*
X97562355Y-106861028D01*
X97562355Y-106861032D01*
X97587487Y-107148293D01*
X97587488Y-107148301D01*
X97587852Y-107152459D01*
X97652577Y-107442021D01*
X97654019Y-107445941D01*
X97654021Y-107445947D01*
X97724619Y-107637827D01*
X97755029Y-107720480D01*
X97893410Y-107982942D01*
X98065288Y-108224797D01*
X98267642Y-108441796D01*
X98496918Y-108630125D01*
X98749088Y-108786477D01*
X99019722Y-108908105D01*
X99192390Y-108959580D01*
X99300065Y-108991679D01*
X99300067Y-108991679D01*
X99304064Y-108992871D01*
X99308184Y-108993524D01*
X99308186Y-108993524D01*
X99427106Y-109012359D01*
X99597119Y-109039286D01*
X99642146Y-109041331D01*
X99688497Y-109043436D01*
X99688516Y-109043436D01*
X99689916Y-109043500D01*
X99875264Y-109043500D01*
X100096056Y-109028835D01*
X100386910Y-108970188D01*
X100667453Y-108873590D01*
X100671196Y-108871716D01*
X100671200Y-108871714D01*
X100929012Y-108742611D01*
X100929014Y-108742610D01*
X100932756Y-108740736D01*
X101178158Y-108573961D01*
X101399346Y-108376196D01*
X101592436Y-108150914D01*
X101594711Y-108147411D01*
X101751763Y-107905572D01*
X101751765Y-107905569D01*
X101754035Y-107902073D01*
X101881304Y-107634046D01*
X101941696Y-107445947D01*
X101970726Y-107355530D01*
X101970727Y-107355524D01*
X101972006Y-107351542D01*
X102007091Y-107156548D01*
X102023809Y-107063632D01*
X102023810Y-107063627D01*
X102024548Y-107059523D01*
X102033751Y-106856880D01*
X102037819Y-106767290D01*
X102037819Y-106767285D01*
X102038008Y-106763120D01*
X102037645Y-106758968D01*
X102012513Y-106471707D01*
X102012512Y-106471699D01*
X102012148Y-106467541D01*
X101995970Y-106395164D01*
X101948336Y-106182063D01*
X101948336Y-106182061D01*
X101947423Y-106177979D01*
X101935725Y-106146182D01*
X101846418Y-105903452D01*
X101846416Y-105903448D01*
X101844971Y-105899520D01*
X101842395Y-105894633D01*
X101708543Y-105640762D01*
X101708542Y-105640761D01*
X101706590Y-105637058D01*
X101534712Y-105395203D01*
X101332358Y-105178204D01*
X101103082Y-104989875D01*
X100850912Y-104833523D01*
X100580278Y-104711895D01*
X100407610Y-104660420D01*
X100299935Y-104628321D01*
X100299933Y-104628321D01*
X100295936Y-104627129D01*
X100291816Y-104626476D01*
X100291814Y-104626476D01*
X100172894Y-104607641D01*
X100002881Y-104580714D01*
X99957854Y-104578669D01*
X99911503Y-104576564D01*
X99911484Y-104576564D01*
X99910084Y-104576500D01*
X99724736Y-104576500D01*
X99503944Y-104591165D01*
X99213090Y-104649812D01*
X98932547Y-104746410D01*
X98928804Y-104748284D01*
X98928800Y-104748286D01*
X98754179Y-104835730D01*
X98667244Y-104879264D01*
X98663779Y-104881619D01*
X98497053Y-104994926D01*
X98421842Y-105046039D01*
X98200654Y-105243804D01*
X98007564Y-105469086D01*
X98005290Y-105472588D01*
X98005289Y-105472589D01*
X97900698Y-105633646D01*
X97845965Y-105717927D01*
X97844177Y-105721693D01*
X97844174Y-105721698D01*
X97817355Y-105778179D01*
X97718696Y-105985954D01*
X97717417Y-105989937D01*
X97717416Y-105989940D01*
X97639713Y-106231958D01*
X97627994Y-106268458D01*
X97627253Y-106272577D01*
X97592174Y-106467541D01*
X97575452Y-106560477D01*
X97575263Y-106564644D01*
X97575262Y-106564651D01*
X97566060Y-106767290D01*
X97561992Y-106856880D01*
X97028500Y-106856880D01*
X97028500Y-102870000D01*
X104496496Y-102870000D01*
X104497186Y-102876565D01*
X104514863Y-103044749D01*
X104516458Y-103059928D01*
X104575473Y-103241556D01*
X104670960Y-103406944D01*
X104675378Y-103411851D01*
X104675379Y-103411852D01*
X104762111Y-103508178D01*
X104798747Y-103548866D01*
X104953248Y-103661118D01*
X104959276Y-103663802D01*
X104959278Y-103663803D01*
X105121681Y-103736109D01*
X105127712Y-103738794D01*
X105221112Y-103758647D01*
X105308056Y-103777128D01*
X105308061Y-103777128D01*
X105314513Y-103778500D01*
X105505487Y-103778500D01*
X105511939Y-103777128D01*
X105511944Y-103777128D01*
X105598887Y-103758647D01*
X105692288Y-103738794D01*
X105698319Y-103736109D01*
X105860722Y-103663803D01*
X105860724Y-103663802D01*
X105866752Y-103661118D01*
X106021253Y-103548866D01*
X106057889Y-103508178D01*
X106144621Y-103411852D01*
X106144622Y-103411851D01*
X106149040Y-103406944D01*
X106244527Y-103241556D01*
X106303542Y-103059928D01*
X106305138Y-103044749D01*
X106322814Y-102876565D01*
X106323504Y-102870000D01*
X106312597Y-102766226D01*
X106304232Y-102686635D01*
X106304232Y-102686633D01*
X106303542Y-102680072D01*
X106244527Y-102498444D01*
X106238224Y-102487526D01*
X106165751Y-102362000D01*
X106149040Y-102333056D01*
X106131860Y-102313975D01*
X106025675Y-102196045D01*
X106025674Y-102196044D01*
X106021253Y-102191134D01*
X105866752Y-102078882D01*
X105860725Y-102076199D01*
X105860717Y-102076194D01*
X105858250Y-102075096D01*
X105857054Y-102074080D01*
X105854999Y-102072893D01*
X105855216Y-102072517D01*
X105804155Y-102029116D01*
X105783500Y-101959990D01*
X105783500Y-93568095D01*
X105803502Y-93499974D01*
X105857158Y-93453481D01*
X105927432Y-93443377D01*
X105992012Y-93472871D01*
X106003134Y-93483783D01*
X106042954Y-93528008D01*
X106079883Y-93569021D01*
X106088747Y-93578866D01*
X106144693Y-93619513D01*
X106230353Y-93681749D01*
X106243248Y-93691118D01*
X106249276Y-93693802D01*
X106249278Y-93693803D01*
X106398598Y-93760284D01*
X106452694Y-93806264D01*
X106473349Y-93875391D01*
X106473349Y-96590064D01*
X106473057Y-96598634D01*
X106471745Y-96617885D01*
X106469179Y-96655515D01*
X106470484Y-96662991D01*
X106470484Y-96662995D01*
X106480012Y-96717587D01*
X106480975Y-96724112D01*
X106487215Y-96775671D01*
X106488540Y-96786623D01*
X106491224Y-96793725D01*
X106492068Y-96797163D01*
X106495932Y-96811286D01*
X106496962Y-96814697D01*
X106498268Y-96822180D01*
X106501321Y-96829135D01*
X106523588Y-96879861D01*
X106526079Y-96885967D01*
X106544483Y-96934669D01*
X106548343Y-96944885D01*
X106552642Y-96951140D01*
X106554284Y-96954281D01*
X106561382Y-96967035D01*
X106563219Y-96970141D01*
X106566272Y-96977096D01*
X106570897Y-96983123D01*
X106570899Y-96983127D01*
X106604614Y-97027065D01*
X106608478Y-97032383D01*
X106644170Y-97084315D01*
X106649840Y-97089367D01*
X106649841Y-97089368D01*
X106690037Y-97125181D01*
X106695313Y-97130162D01*
X111639189Y-102074038D01*
X111645042Y-102080303D01*
X111682528Y-102123274D01*
X111688742Y-102127641D01*
X111734075Y-102159502D01*
X111739370Y-102163435D01*
X111788925Y-102202291D01*
X111795849Y-102205417D01*
X111798898Y-102207264D01*
X111811564Y-102214489D01*
X111814729Y-102216186D01*
X111820947Y-102220556D01*
X111879682Y-102243456D01*
X111885695Y-102245983D01*
X111943121Y-102271912D01*
X111950589Y-102273296D01*
X111953997Y-102274364D01*
X111968036Y-102278364D01*
X111971500Y-102279253D01*
X111978575Y-102282012D01*
X111986104Y-102283003D01*
X111986107Y-102283004D01*
X112041031Y-102290235D01*
X112047545Y-102291267D01*
X112102003Y-102301360D01*
X112102006Y-102301360D01*
X112109472Y-102302744D01*
X112117052Y-102302307D01*
X112117053Y-102302307D01*
X112170780Y-102299209D01*
X112178033Y-102299000D01*
X116427087Y-102299000D01*
X116495208Y-102319002D01*
X116509966Y-102330896D01*
X116511739Y-102333261D01*
X116628295Y-102420615D01*
X116764684Y-102471745D01*
X116826866Y-102478500D01*
X117355000Y-102478500D01*
X117423121Y-102498502D01*
X117469614Y-102552158D01*
X117481000Y-102604500D01*
X117481000Y-103001401D01*
X117480708Y-103009971D01*
X117477619Y-103055281D01*
X117476830Y-103066852D01*
X117478135Y-103074328D01*
X117478135Y-103074332D01*
X117487663Y-103128924D01*
X117488626Y-103135449D01*
X117494874Y-103187075D01*
X117496191Y-103197960D01*
X117498875Y-103205062D01*
X117499719Y-103208500D01*
X117503583Y-103222623D01*
X117504613Y-103226034D01*
X117505919Y-103233517D01*
X117508972Y-103240472D01*
X117531239Y-103291198D01*
X117533730Y-103297304D01*
X117543459Y-103323049D01*
X117555994Y-103356222D01*
X117560293Y-103362477D01*
X117561935Y-103365618D01*
X117569033Y-103378372D01*
X117570870Y-103381478D01*
X117573923Y-103388433D01*
X117578548Y-103394460D01*
X117578550Y-103394464D01*
X117612265Y-103438402D01*
X117616129Y-103443720D01*
X117651821Y-103495652D01*
X117657491Y-103500704D01*
X117657492Y-103500705D01*
X117697688Y-103536518D01*
X117702964Y-103541499D01*
X119885503Y-105724038D01*
X119891356Y-105730303D01*
X119928842Y-105773274D01*
X119974341Y-105805251D01*
X119980378Y-105809494D01*
X119985674Y-105813427D01*
X120029263Y-105847606D01*
X120029266Y-105847608D01*
X120035240Y-105852292D01*
X120042164Y-105855418D01*
X120045199Y-105857256D01*
X120057898Y-105864500D01*
X120061046Y-105866188D01*
X120067261Y-105870556D01*
X120125950Y-105893438D01*
X120131995Y-105895978D01*
X120189435Y-105921913D01*
X120196908Y-105923298D01*
X120200326Y-105924369D01*
X120214315Y-105928354D01*
X120217807Y-105929251D01*
X120224889Y-105932012D01*
X120232422Y-105933004D01*
X120232423Y-105933004D01*
X120287330Y-105940233D01*
X120293843Y-105941265D01*
X120348318Y-105951361D01*
X120348320Y-105951361D01*
X120355787Y-105952745D01*
X120363367Y-105952308D01*
X120363368Y-105952308D01*
X120417112Y-105949209D01*
X120424365Y-105949000D01*
X129921401Y-105949000D01*
X129929971Y-105949292D01*
X129979277Y-105952654D01*
X129979281Y-105952654D01*
X129986852Y-105953170D01*
X129994328Y-105951865D01*
X129994332Y-105951865D01*
X130048924Y-105942337D01*
X130055449Y-105941374D01*
X130110418Y-105934722D01*
X130110420Y-105934721D01*
X130117960Y-105933809D01*
X130125062Y-105931125D01*
X130128500Y-105930281D01*
X130142623Y-105926417D01*
X130146034Y-105925387D01*
X130153517Y-105924081D01*
X130165577Y-105918787D01*
X130211198Y-105898761D01*
X130217304Y-105896270D01*
X130269117Y-105876691D01*
X130269118Y-105876690D01*
X130276222Y-105874006D01*
X130282477Y-105869707D01*
X130285618Y-105868065D01*
X130298372Y-105860967D01*
X130301478Y-105859130D01*
X130308433Y-105856077D01*
X130314460Y-105851452D01*
X130314464Y-105851450D01*
X130358402Y-105817735D01*
X130363720Y-105813871D01*
X130415652Y-105778179D01*
X130456535Y-105732293D01*
X130461498Y-105727037D01*
X132278762Y-103909774D01*
X139233681Y-103909774D01*
X139233768Y-103913775D01*
X139233768Y-103913783D01*
X139239386Y-104171235D01*
X139240329Y-104214438D01*
X139285635Y-104515789D01*
X139286731Y-104519649D01*
X139286732Y-104519654D01*
X139295632Y-104551000D01*
X139368865Y-104808939D01*
X139488669Y-105089138D01*
X139643105Y-105351843D01*
X139829671Y-105592796D01*
X139832519Y-105595639D01*
X139971638Y-105734515D01*
X140045340Y-105808089D01*
X140159050Y-105895815D01*
X140275887Y-105985954D01*
X140286618Y-105994233D01*
X140549592Y-106148211D01*
X140553277Y-106149779D01*
X140553285Y-106149783D01*
X140733906Y-106226637D01*
X140830000Y-106267526D01*
X141123295Y-106350244D01*
X141343045Y-106382890D01*
X141421425Y-106394534D01*
X141421427Y-106394534D01*
X141424724Y-106395024D01*
X141428055Y-106395164D01*
X141428059Y-106395164D01*
X141464396Y-106396687D01*
X141507659Y-106398500D01*
X141702096Y-106398500D01*
X141825523Y-106390626D01*
X141925111Y-106384274D01*
X141925116Y-106384273D01*
X141929119Y-106384018D01*
X141933058Y-106383256D01*
X142224370Y-106326895D01*
X142224374Y-106326894D01*
X142228307Y-106326133D01*
X142517716Y-106230700D01*
X142792652Y-106099267D01*
X142796017Y-106097094D01*
X142796021Y-106097092D01*
X143045294Y-105936139D01*
X143045300Y-105936134D01*
X143048660Y-105933965D01*
X143281588Y-105737474D01*
X143373763Y-105637058D01*
X143484946Y-105515936D01*
X143484948Y-105515934D01*
X143487661Y-105512978D01*
X143663539Y-105264117D01*
X143806369Y-104994926D01*
X143849959Y-104879264D01*
X143912420Y-104713529D01*
X143912422Y-104713523D01*
X143913837Y-104709768D01*
X143933603Y-104626476D01*
X143983271Y-104417182D01*
X143983272Y-104417177D01*
X143984200Y-104413266D01*
X144016319Y-104110226D01*
X144013787Y-103994166D01*
X144009759Y-103809579D01*
X144009759Y-103809574D01*
X144009671Y-103805562D01*
X143964365Y-103504211D01*
X143960159Y-103489395D01*
X143902818Y-103287432D01*
X143881135Y-103211061D01*
X143875534Y-103197960D01*
X143847399Y-103132158D01*
X143761331Y-102930862D01*
X143606895Y-102668157D01*
X143420329Y-102427204D01*
X143283121Y-102290235D01*
X143207503Y-102214749D01*
X143204660Y-102211911D01*
X143034088Y-102080316D01*
X142966562Y-102028220D01*
X142966558Y-102028218D01*
X142963382Y-102025767D01*
X142700408Y-101871789D01*
X142696723Y-101870221D01*
X142696715Y-101870217D01*
X142503590Y-101788042D01*
X142420000Y-101752474D01*
X142126705Y-101669756D01*
X141897638Y-101635726D01*
X141828575Y-101625466D01*
X141828573Y-101625466D01*
X141825276Y-101624976D01*
X141821945Y-101624836D01*
X141821941Y-101624836D01*
X141785604Y-101623313D01*
X141742341Y-101621500D01*
X141547904Y-101621500D01*
X141424477Y-101629374D01*
X141324889Y-101635726D01*
X141324884Y-101635727D01*
X141320881Y-101635982D01*
X141316943Y-101636744D01*
X141316942Y-101636744D01*
X141025630Y-101693105D01*
X141025626Y-101693106D01*
X141021693Y-101693867D01*
X140732284Y-101789300D01*
X140457348Y-101920733D01*
X140453983Y-101922906D01*
X140453979Y-101922908D01*
X140204706Y-102083861D01*
X140204700Y-102083866D01*
X140201340Y-102086035D01*
X140046439Y-102216705D01*
X139978088Y-102274364D01*
X139968412Y-102282526D01*
X139901486Y-102355435D01*
X139838217Y-102424361D01*
X139762339Y-102507022D01*
X139586461Y-102755883D01*
X139443631Y-103025074D01*
X139442216Y-103028830D01*
X139442215Y-103028831D01*
X139342964Y-103292187D01*
X139336163Y-103310232D01*
X139335234Y-103314147D01*
X139272591Y-103578119D01*
X139265800Y-103606734D01*
X139233681Y-103909774D01*
X132278762Y-103909774D01*
X132824046Y-103364490D01*
X132830312Y-103358636D01*
X132867547Y-103326154D01*
X132873274Y-103321158D01*
X132909498Y-103269617D01*
X132913423Y-103264332D01*
X132947607Y-103220735D01*
X132952292Y-103214760D01*
X132955416Y-103207842D01*
X132957245Y-103204821D01*
X132964500Y-103192102D01*
X132966188Y-103188954D01*
X132970556Y-103182739D01*
X132993438Y-103124050D01*
X132995978Y-103118005D01*
X133021913Y-103060565D01*
X133023298Y-103053092D01*
X133024369Y-103049674D01*
X133028354Y-103035685D01*
X133029251Y-103032193D01*
X133032012Y-103025111D01*
X133038447Y-102976232D01*
X133040233Y-102962670D01*
X133041265Y-102956157D01*
X133051361Y-102901682D01*
X133051361Y-102901680D01*
X133052745Y-102894213D01*
X133051728Y-102876565D01*
X133049209Y-102832888D01*
X133049000Y-102825635D01*
X133049000Y-97023725D01*
X139208652Y-97023725D01*
X139208739Y-97027726D01*
X139208739Y-97027733D01*
X139215282Y-97327561D01*
X139215370Y-97331578D01*
X139261150Y-97636082D01*
X139262246Y-97639942D01*
X139262247Y-97639947D01*
X139298084Y-97766170D01*
X139345251Y-97932302D01*
X139346831Y-97935998D01*
X139346832Y-97936000D01*
X139352045Y-97948192D01*
X139466309Y-98215433D01*
X139622362Y-98480888D01*
X139810880Y-98724362D01*
X140028806Y-98941909D01*
X140031987Y-98944363D01*
X140031988Y-98944364D01*
X140269416Y-99127539D01*
X140269420Y-99127542D01*
X140272609Y-99130002D01*
X140276088Y-99132039D01*
X140456828Y-99237866D01*
X140538336Y-99285591D01*
X140542021Y-99287159D01*
X140542025Y-99287161D01*
X140715696Y-99361059D01*
X140821679Y-99406155D01*
X140889460Y-99425271D01*
X141114177Y-99488648D01*
X141114186Y-99488650D01*
X141118044Y-99489738D01*
X141237605Y-99507500D01*
X141419329Y-99534497D01*
X141419331Y-99534497D01*
X141422628Y-99534987D01*
X141425959Y-99535127D01*
X141425963Y-99535127D01*
X141462632Y-99536664D01*
X141506445Y-99538500D01*
X141702895Y-99538500D01*
X141827497Y-99530552D01*
X141928294Y-99524122D01*
X141928299Y-99524121D01*
X141932302Y-99523866D01*
X141936241Y-99523104D01*
X142230685Y-99466137D01*
X142230689Y-99466136D01*
X142234622Y-99465375D01*
X142373585Y-99419552D01*
X142523242Y-99370202D01*
X142523247Y-99370200D01*
X142527059Y-99368943D01*
X142804873Y-99236135D01*
X142808238Y-99233962D01*
X142808242Y-99233960D01*
X143060192Y-99071278D01*
X143060195Y-99071276D01*
X143063560Y-99069103D01*
X143298927Y-98870555D01*
X143433123Y-98724362D01*
X143504442Y-98646667D01*
X143504444Y-98646665D01*
X143507157Y-98643709D01*
X143684875Y-98392244D01*
X143829201Y-98120235D01*
X143937793Y-97832092D01*
X143983413Y-97639856D01*
X144007964Y-97536402D01*
X144007965Y-97536397D01*
X144008893Y-97532486D01*
X144040202Y-97237087D01*
X144057341Y-97195533D01*
X144044604Y-97175714D01*
X144039530Y-97142965D01*
X144034718Y-96922439D01*
X144034718Y-96922434D01*
X144034630Y-96918422D01*
X143988850Y-96613918D01*
X143960322Y-96513435D01*
X143945997Y-96462982D01*
X143904749Y-96317698D01*
X143783691Y-96034567D01*
X143627638Y-95769112D01*
X143439120Y-95525638D01*
X143221194Y-95308091D01*
X143091558Y-95208077D01*
X142980584Y-95122461D01*
X142980580Y-95122458D01*
X142977391Y-95119998D01*
X142945191Y-95101144D01*
X142715128Y-94966437D01*
X142715125Y-94966435D01*
X142711664Y-94964409D01*
X142707979Y-94962841D01*
X142707975Y-94962839D01*
X142432015Y-94845417D01*
X142428321Y-94843845D01*
X142301400Y-94808050D01*
X142135823Y-94761352D01*
X142135814Y-94761350D01*
X142131956Y-94760262D01*
X141902231Y-94726134D01*
X141830671Y-94715503D01*
X141830669Y-94715503D01*
X141827372Y-94715013D01*
X141824041Y-94714873D01*
X141824037Y-94714873D01*
X141787368Y-94713336D01*
X141743555Y-94711500D01*
X141547105Y-94711500D01*
X141422503Y-94719448D01*
X141321706Y-94725878D01*
X141321701Y-94725879D01*
X141317698Y-94726134D01*
X141313760Y-94726896D01*
X141313759Y-94726896D01*
X141019315Y-94783863D01*
X141019311Y-94783864D01*
X141015378Y-94784625D01*
X140876415Y-94830448D01*
X140726758Y-94879798D01*
X140726753Y-94879800D01*
X140722941Y-94881057D01*
X140445127Y-95013865D01*
X140441762Y-95016038D01*
X140441758Y-95016040D01*
X140265194Y-95130046D01*
X140186440Y-95180897D01*
X140160576Y-95202715D01*
X139988148Y-95348170D01*
X139951073Y-95379445D01*
X139948355Y-95382406D01*
X139948354Y-95382407D01*
X139778137Y-95567842D01*
X139742843Y-95606291D01*
X139565125Y-95857756D01*
X139420799Y-96129765D01*
X139419384Y-96133521D01*
X139419383Y-96133522D01*
X139415916Y-96142721D01*
X139312207Y-96417908D01*
X139311278Y-96421823D01*
X139244465Y-96703365D01*
X139241107Y-96717514D01*
X139208652Y-97023725D01*
X133049000Y-97023725D01*
X133049000Y-94178725D01*
X133069002Y-94110604D01*
X133085905Y-94089630D01*
X135558473Y-91617063D01*
X135621370Y-91582911D01*
X135791288Y-91546794D01*
X135829709Y-91529688D01*
X135959722Y-91471803D01*
X135959724Y-91471802D01*
X135965752Y-91469118D01*
X136120253Y-91356866D01*
X136124675Y-91351955D01*
X136243621Y-91219852D01*
X136243622Y-91219851D01*
X136248040Y-91214944D01*
X136343527Y-91049556D01*
X136402542Y-90867928D01*
X136404138Y-90852749D01*
X136421814Y-90684565D01*
X136422504Y-90678000D01*
X136402542Y-90488072D01*
X136343527Y-90306444D01*
X136248040Y-90141056D01*
X136120253Y-89999134D01*
X135965752Y-89886882D01*
X135959724Y-89884198D01*
X135959722Y-89884197D01*
X135797319Y-89811891D01*
X135797318Y-89811891D01*
X135791288Y-89809206D01*
X135697887Y-89789353D01*
X135610944Y-89770872D01*
X135610939Y-89770872D01*
X135604487Y-89769500D01*
X135413513Y-89769500D01*
X135407061Y-89770872D01*
X135407056Y-89770872D01*
X135320113Y-89789353D01*
X135226712Y-89809206D01*
X135220682Y-89811891D01*
X135220681Y-89811891D01*
X135058278Y-89884197D01*
X135058276Y-89884198D01*
X135052248Y-89886882D01*
X134897747Y-89999134D01*
X134769960Y-90141056D01*
X134674473Y-90306444D01*
X134672431Y-90312729D01*
X134644231Y-90399520D01*
X134615458Y-90488072D01*
X134614768Y-90494635D01*
X134614768Y-90494637D01*
X134608972Y-90549783D01*
X134581959Y-90615440D01*
X134572757Y-90625708D01*
X131875962Y-93322503D01*
X131869697Y-93328356D01*
X131826726Y-93365842D01*
X131808083Y-93392368D01*
X131790506Y-93417378D01*
X131786573Y-93422674D01*
X131752394Y-93466263D01*
X131752392Y-93466266D01*
X131747708Y-93472240D01*
X131744582Y-93479164D01*
X131742744Y-93482199D01*
X131735500Y-93494898D01*
X131733812Y-93498046D01*
X131729444Y-93504261D01*
X131714171Y-93543436D01*
X131706567Y-93562939D01*
X131704022Y-93568995D01*
X131678087Y-93626435D01*
X131676702Y-93633908D01*
X131675631Y-93637326D01*
X131671646Y-93651315D01*
X131670749Y-93654807D01*
X131667988Y-93661889D01*
X131666996Y-93669422D01*
X131666996Y-93669423D01*
X131659767Y-93724330D01*
X131658735Y-93730843D01*
X131649510Y-93780620D01*
X131647255Y-93792787D01*
X131647692Y-93800367D01*
X131647692Y-93800368D01*
X131650791Y-93854112D01*
X131651000Y-93861365D01*
X131651000Y-101483053D01*
X131630998Y-101551174D01*
X131577342Y-101597667D01*
X131507068Y-101607771D01*
X131442488Y-101578277D01*
X131431365Y-101567365D01*
X131421253Y-101556134D01*
X131266752Y-101443882D01*
X131260724Y-101441198D01*
X131260722Y-101441197D01*
X131098319Y-101368891D01*
X131098318Y-101368891D01*
X131092288Y-101366206D01*
X130998887Y-101346353D01*
X130911944Y-101327872D01*
X130911939Y-101327872D01*
X130905487Y-101326500D01*
X130849594Y-101326500D01*
X130781473Y-101306498D01*
X130760499Y-101289595D01*
X129408652Y-99937747D01*
X129401112Y-99929461D01*
X129397000Y-99922982D01*
X129347348Y-99876356D01*
X129344507Y-99873602D01*
X129324770Y-99853865D01*
X129321573Y-99851385D01*
X129312551Y-99843680D01*
X129286100Y-99818841D01*
X129280321Y-99813414D01*
X129273375Y-99809595D01*
X129273372Y-99809593D01*
X129262566Y-99803652D01*
X129246047Y-99792801D01*
X129245583Y-99792441D01*
X129230041Y-99780386D01*
X129222772Y-99777241D01*
X129222768Y-99777238D01*
X129189463Y-99762826D01*
X129178813Y-99757609D01*
X129140060Y-99736305D01*
X129120437Y-99731267D01*
X129101734Y-99724863D01*
X129090420Y-99719967D01*
X129090419Y-99719967D01*
X129083145Y-99716819D01*
X129075322Y-99715580D01*
X129075312Y-99715577D01*
X129039476Y-99709901D01*
X129027856Y-99707495D01*
X128992711Y-99698472D01*
X128992710Y-99698472D01*
X128985030Y-99696500D01*
X128964776Y-99696500D01*
X128945065Y-99694949D01*
X128932886Y-99693020D01*
X128925057Y-99691780D01*
X128917165Y-99692526D01*
X128881039Y-99695941D01*
X128869181Y-99696500D01*
X126629800Y-99696500D01*
X126561679Y-99676498D01*
X126515186Y-99622842D01*
X126505082Y-99552568D01*
X126520681Y-99507500D01*
X126561223Y-99437279D01*
X126561224Y-99437278D01*
X126564527Y-99431556D01*
X126623542Y-99249928D01*
X126635933Y-99132039D01*
X126642814Y-99066565D01*
X126643504Y-99060000D01*
X126623542Y-98870072D01*
X126564527Y-98688444D01*
X126536806Y-98640429D01*
X126472341Y-98528774D01*
X126469040Y-98523056D01*
X126456662Y-98509309D01*
X126425946Y-98445303D01*
X126434710Y-98374850D01*
X126456661Y-98340693D01*
X126469040Y-98326944D01*
X126564527Y-98161556D01*
X126623542Y-97979928D01*
X126639492Y-97828177D01*
X126642814Y-97796565D01*
X126643504Y-97790000D01*
X126640999Y-97766170D01*
X126624232Y-97606635D01*
X126624232Y-97606633D01*
X126623542Y-97600072D01*
X126564527Y-97418444D01*
X126469040Y-97253056D01*
X126456662Y-97239309D01*
X126425946Y-97175303D01*
X126434710Y-97104850D01*
X126456661Y-97070693D01*
X126469040Y-97056944D01*
X126564527Y-96891556D01*
X126623542Y-96709928D01*
X126635690Y-96594351D01*
X126642814Y-96526565D01*
X126643504Y-96520000D01*
X126623542Y-96330072D01*
X126564527Y-96148444D01*
X126557701Y-96136620D01*
X126501734Y-96039684D01*
X126469040Y-95983056D01*
X126456425Y-95969045D01*
X126345675Y-95846045D01*
X126345674Y-95846044D01*
X126341253Y-95841134D01*
X126186752Y-95728882D01*
X126180724Y-95726198D01*
X126180722Y-95726197D01*
X126018319Y-95653891D01*
X126018318Y-95653891D01*
X126012288Y-95651206D01*
X125918888Y-95631353D01*
X125831944Y-95612872D01*
X125831939Y-95612872D01*
X125825487Y-95611500D01*
X125634513Y-95611500D01*
X125628061Y-95612872D01*
X125628056Y-95612872D01*
X125541112Y-95631353D01*
X125447712Y-95651206D01*
X125441682Y-95653891D01*
X125441681Y-95653891D01*
X125279278Y-95726197D01*
X125279276Y-95726198D01*
X125273248Y-95728882D01*
X125267907Y-95732762D01*
X125267906Y-95732763D01*
X125217876Y-95769112D01*
X125118747Y-95841134D01*
X125114332Y-95846037D01*
X125109420Y-95850460D01*
X125108295Y-95849211D01*
X125054986Y-95882051D01*
X125021800Y-95886500D01*
X124996055Y-95886500D01*
X124927934Y-95866498D01*
X124895229Y-95836065D01*
X124863643Y-95793920D01*
X124858261Y-95786739D01*
X124741705Y-95699385D01*
X124605316Y-95648255D01*
X124543134Y-95641500D01*
X121944486Y-95641500D01*
X121876365Y-95621498D01*
X121829872Y-95567842D01*
X121819768Y-95497568D01*
X121829112Y-95464855D01*
X121880333Y-95348170D01*
X121882588Y-95343033D01*
X121891567Y-95305636D01*
X121933722Y-95130046D01*
X121933722Y-95130045D01*
X121935032Y-95124589D01*
X121939879Y-95040525D01*
X121947640Y-94905917D01*
X121947640Y-94905914D01*
X121947963Y-94900310D01*
X121920975Y-94677285D01*
X121854918Y-94462565D01*
X121789798Y-94336396D01*
X121754454Y-94267919D01*
X121754454Y-94267918D01*
X121751882Y-94262936D01*
X121615123Y-94084708D01*
X121448964Y-93933515D01*
X121444217Y-93930537D01*
X121444214Y-93930535D01*
X121263405Y-93817115D01*
X121258656Y-93814136D01*
X121050217Y-93730344D01*
X120830233Y-93684787D01*
X120825622Y-93684521D01*
X120825621Y-93684521D01*
X120775048Y-93681605D01*
X120775044Y-93681605D01*
X120773225Y-93681500D01*
X120628001Y-93681500D01*
X120625214Y-93681749D01*
X120625208Y-93681749D01*
X120563718Y-93687237D01*
X120461238Y-93696383D01*
X120455824Y-93697864D01*
X120455819Y-93697865D01*
X120359082Y-93724330D01*
X120244549Y-93755663D01*
X120239491Y-93758075D01*
X120239487Y-93758077D01*
X120182376Y-93785318D01*
X120041782Y-93852378D01*
X119859346Y-93983471D01*
X119855439Y-93987503D01*
X119756471Y-94089630D01*
X119703008Y-94144799D01*
X119577710Y-94331262D01*
X119487412Y-94536967D01*
X119434968Y-94755411D01*
X119433328Y-94783863D01*
X119423009Y-94962839D01*
X119422037Y-94979690D01*
X119449025Y-95202715D01*
X119515082Y-95417435D01*
X119517654Y-95422418D01*
X119517656Y-95422423D01*
X119536127Y-95458209D01*
X119549597Y-95527916D01*
X119523242Y-95593840D01*
X119465430Y-95635050D01*
X119424162Y-95642000D01*
X118452115Y-95642000D01*
X118436876Y-95646475D01*
X118435671Y-95647865D01*
X118434000Y-95655548D01*
X118434000Y-96247885D01*
X118438475Y-96263124D01*
X118439865Y-96264329D01*
X118447548Y-96266000D01*
X119974884Y-96266000D01*
X119990123Y-96261525D01*
X119991328Y-96260135D01*
X119992999Y-96252452D01*
X119992999Y-96204741D01*
X120013001Y-96136620D01*
X120066657Y-96090127D01*
X120136931Y-96080023D01*
X120165995Y-96087834D01*
X120279648Y-96133522D01*
X120319783Y-96149656D01*
X120539767Y-96195213D01*
X120544378Y-96195479D01*
X120544379Y-96195479D01*
X120594952Y-96198395D01*
X120594956Y-96198395D01*
X120596775Y-96198500D01*
X120741999Y-96198500D01*
X120744786Y-96198251D01*
X120744792Y-96198251D01*
X120814929Y-96191991D01*
X120908762Y-96183617D01*
X120914176Y-96182136D01*
X120914181Y-96182135D01*
X121080552Y-96136620D01*
X121125451Y-96124337D01*
X121130509Y-96121925D01*
X121130513Y-96121923D01*
X121196256Y-96090565D01*
X121266352Y-96079292D01*
X121331415Y-96107705D01*
X121370788Y-96166784D01*
X121376500Y-96204291D01*
X121376500Y-96938134D01*
X121383255Y-97000316D01*
X121386027Y-97007712D01*
X121386029Y-97007718D01*
X121424662Y-97110771D01*
X121429845Y-97181578D01*
X121424662Y-97199229D01*
X121386029Y-97302282D01*
X121386027Y-97302288D01*
X121383255Y-97309684D01*
X121376500Y-97371866D01*
X121376500Y-98208134D01*
X121383255Y-98270316D01*
X121386027Y-98277712D01*
X121386029Y-98277718D01*
X121424662Y-98380771D01*
X121429845Y-98451578D01*
X121424662Y-98469229D01*
X121386029Y-98572282D01*
X121386027Y-98572288D01*
X121383255Y-98579684D01*
X121376500Y-98641866D01*
X121376500Y-99478134D01*
X121383255Y-99540316D01*
X121386027Y-99547712D01*
X121386029Y-99547718D01*
X121424662Y-99650771D01*
X121429845Y-99721578D01*
X121424662Y-99739229D01*
X121386029Y-99842282D01*
X121386027Y-99842288D01*
X121383255Y-99849684D01*
X121376500Y-99911866D01*
X121376500Y-100748134D01*
X121383255Y-100810316D01*
X121386027Y-100817712D01*
X121386029Y-100817718D01*
X121424662Y-100920771D01*
X121429845Y-100991578D01*
X121424662Y-101009229D01*
X121386029Y-101112282D01*
X121386027Y-101112288D01*
X121383255Y-101119684D01*
X121376500Y-101181866D01*
X121376500Y-102018134D01*
X121383255Y-102080316D01*
X121386027Y-102087712D01*
X121386029Y-102087718D01*
X121420924Y-102180799D01*
X121426107Y-102251606D01*
X121392186Y-102313975D01*
X121329931Y-102348104D01*
X121259107Y-102343157D01*
X121242241Y-102335443D01*
X121175951Y-102299000D01*
X121084213Y-102248567D01*
X121078346Y-102246706D01*
X121078344Y-102246705D01*
X120901564Y-102190627D01*
X120901563Y-102190627D01*
X120895694Y-102188765D01*
X120741773Y-102171500D01*
X120635231Y-102171500D01*
X120632175Y-102171800D01*
X120632168Y-102171800D01*
X120573660Y-102177537D01*
X120488167Y-102185920D01*
X120482266Y-102187702D01*
X120482264Y-102187702D01*
X120408947Y-102209838D01*
X120298831Y-102243084D01*
X120138848Y-102328148D01*
X120126873Y-102334515D01*
X120057336Y-102348834D01*
X119991095Y-102323286D01*
X119949182Y-102265981D01*
X119944905Y-102195114D01*
X119949738Y-102179034D01*
X119983971Y-102087718D01*
X119983973Y-102087712D01*
X119986745Y-102080316D01*
X119993500Y-102018134D01*
X119993500Y-101181866D01*
X119986745Y-101119684D01*
X119983973Y-101112288D01*
X119983971Y-101112282D01*
X119945338Y-101009229D01*
X119940155Y-100938422D01*
X119945338Y-100920771D01*
X119983971Y-100817718D01*
X119983973Y-100817712D01*
X119986745Y-100810316D01*
X119993500Y-100748134D01*
X119993500Y-99911866D01*
X119986745Y-99849684D01*
X119983973Y-99842288D01*
X119983971Y-99842282D01*
X119945338Y-99739229D01*
X119940155Y-99668422D01*
X119945338Y-99650771D01*
X119983971Y-99547718D01*
X119983973Y-99547712D01*
X119986745Y-99540316D01*
X119993500Y-99478134D01*
X119993500Y-98641866D01*
X119986745Y-98579684D01*
X119983973Y-98572288D01*
X119983971Y-98572282D01*
X119945338Y-98469229D01*
X119940155Y-98398422D01*
X119945338Y-98380771D01*
X119983971Y-98277718D01*
X119983973Y-98277712D01*
X119986745Y-98270316D01*
X119993500Y-98208134D01*
X119993500Y-97371866D01*
X119986745Y-97309684D01*
X119983973Y-97302288D01*
X119983971Y-97302282D01*
X119945071Y-97198517D01*
X119939888Y-97127710D01*
X119945071Y-97110059D01*
X119983478Y-97007609D01*
X119987105Y-96992351D01*
X119992631Y-96941486D01*
X119993000Y-96934672D01*
X119993000Y-96792115D01*
X119988525Y-96776876D01*
X119987135Y-96775671D01*
X119979452Y-96774000D01*
X116385116Y-96774000D01*
X116369877Y-96778475D01*
X116368672Y-96779865D01*
X116367001Y-96787548D01*
X116367001Y-96934669D01*
X116367371Y-96941490D01*
X116372895Y-96992352D01*
X116375035Y-97001353D01*
X116371334Y-97072253D01*
X116329889Y-97129897D01*
X116263858Y-97155983D01*
X116252453Y-97156500D01*
X115884595Y-97156500D01*
X115816474Y-97136498D01*
X115795499Y-97119595D01*
X115670404Y-96994499D01*
X115636379Y-96932187D01*
X115633500Y-96905404D01*
X115633500Y-96247885D01*
X116367000Y-96247885D01*
X116371475Y-96263124D01*
X116372865Y-96264329D01*
X116380548Y-96266000D01*
X117907885Y-96266000D01*
X117923124Y-96261525D01*
X117924329Y-96260135D01*
X117926000Y-96252452D01*
X117926000Y-95660116D01*
X117921525Y-95644877D01*
X117920135Y-95643672D01*
X117912452Y-95642001D01*
X116830331Y-95642001D01*
X116823510Y-95642371D01*
X116772648Y-95647895D01*
X116757396Y-95651521D01*
X116636946Y-95696676D01*
X116621351Y-95705214D01*
X116519276Y-95781715D01*
X116506715Y-95794276D01*
X116430214Y-95896351D01*
X116421676Y-95911946D01*
X116376522Y-96032394D01*
X116372895Y-96047649D01*
X116367369Y-96098514D01*
X116367000Y-96105328D01*
X116367000Y-96247885D01*
X115633500Y-96247885D01*
X115633500Y-93086594D01*
X115653502Y-93018473D01*
X115670405Y-92997499D01*
X118012732Y-90655173D01*
X118075044Y-90621147D01*
X118128023Y-90621021D01*
X118194234Y-90635094D01*
X118209312Y-90638299D01*
X118400286Y-90638299D01*
X118406738Y-90636927D01*
X118406743Y-90636927D01*
X118493686Y-90618446D01*
X118587087Y-90598593D01*
X118593118Y-90595908D01*
X118755521Y-90523602D01*
X118755523Y-90523601D01*
X118761551Y-90520917D01*
X118916052Y-90408665D01*
X119043839Y-90266743D01*
X119139326Y-90101355D01*
X119198341Y-89919727D01*
X119200561Y-89898610D01*
X119217613Y-89736364D01*
X119218303Y-89729799D01*
X119213201Y-89681256D01*
X119212299Y-89672670D01*
X119225072Y-89602831D01*
X119273574Y-89550985D01*
X119337609Y-89533500D01*
X119941800Y-89533500D01*
X120009921Y-89553502D01*
X120029147Y-89569843D01*
X120029420Y-89569540D01*
X120034332Y-89573963D01*
X120038747Y-89578866D01*
X120060329Y-89594546D01*
X120167857Y-89672670D01*
X120193248Y-89691118D01*
X120199276Y-89693802D01*
X120199278Y-89693803D01*
X120305328Y-89741019D01*
X120367712Y-89768794D01*
X120461112Y-89788647D01*
X120548056Y-89807128D01*
X120548061Y-89807128D01*
X120554513Y-89808500D01*
X120745487Y-89808500D01*
X120751939Y-89807128D01*
X120751944Y-89807128D01*
X120838887Y-89788647D01*
X120932288Y-89768794D01*
X120994672Y-89741019D01*
X121100722Y-89693803D01*
X121100724Y-89693802D01*
X121106752Y-89691118D01*
X121132144Y-89672670D01*
X121228268Y-89602831D01*
X121261253Y-89578866D01*
X121290811Y-89546039D01*
X121384621Y-89441852D01*
X121384622Y-89441851D01*
X121389040Y-89436944D01*
X121484527Y-89271556D01*
X121543542Y-89089928D01*
X121544511Y-89080714D01*
X121562814Y-88906565D01*
X121563504Y-88900000D01*
X121559674Y-88863563D01*
X121544232Y-88716635D01*
X121544232Y-88716633D01*
X121543542Y-88710072D01*
X121484527Y-88528444D01*
X121389040Y-88363056D01*
X121372882Y-88345110D01*
X121265675Y-88226045D01*
X121265674Y-88226044D01*
X121261253Y-88221134D01*
X121106752Y-88108882D01*
X121100724Y-88106198D01*
X121100722Y-88106197D01*
X120938319Y-88033891D01*
X120938318Y-88033891D01*
X120932288Y-88031206D01*
X120838887Y-88011353D01*
X120751944Y-87992872D01*
X120751939Y-87992872D01*
X120745487Y-87991500D01*
X120554513Y-87991500D01*
X120548061Y-87992872D01*
X120548056Y-87992872D01*
X120461113Y-88011353D01*
X120367712Y-88031206D01*
X120361682Y-88033891D01*
X120361681Y-88033891D01*
X120199278Y-88106197D01*
X120199276Y-88106198D01*
X120193248Y-88108882D01*
X120038747Y-88221134D01*
X120034332Y-88226037D01*
X120029420Y-88230460D01*
X120028295Y-88229211D01*
X119974986Y-88262051D01*
X119941800Y-88266500D01*
X118188767Y-88266500D01*
X118177584Y-88265973D01*
X118170091Y-88264298D01*
X118162165Y-88264547D01*
X118162164Y-88264547D01*
X118102001Y-88266438D01*
X118098043Y-88266500D01*
X118070144Y-88266500D01*
X118066154Y-88267004D01*
X118054320Y-88267936D01*
X118010111Y-88269326D01*
X118002497Y-88271538D01*
X118002492Y-88271539D01*
X117990659Y-88274977D01*
X117971296Y-88278988D01*
X117951203Y-88281526D01*
X117943836Y-88284443D01*
X117943831Y-88284444D01*
X117910092Y-88297802D01*
X117898865Y-88301646D01*
X117856407Y-88313982D01*
X117849581Y-88318019D01*
X117838972Y-88324293D01*
X117821224Y-88332988D01*
X117802383Y-88340448D01*
X117795967Y-88345110D01*
X117795966Y-88345110D01*
X117766613Y-88366436D01*
X117756693Y-88372952D01*
X117725465Y-88391420D01*
X117725462Y-88391422D01*
X117718638Y-88395458D01*
X117704317Y-88409779D01*
X117689284Y-88422619D01*
X117672893Y-88434528D01*
X117657487Y-88453151D01*
X117644702Y-88468605D01*
X117636712Y-88477384D01*
X114107747Y-92006348D01*
X114099461Y-92013888D01*
X114092982Y-92018000D01*
X114087557Y-92023777D01*
X114046357Y-92067651D01*
X114043602Y-92070493D01*
X114023865Y-92090230D01*
X114021385Y-92093427D01*
X114013682Y-92102447D01*
X113983414Y-92134679D01*
X113979595Y-92141625D01*
X113979593Y-92141628D01*
X113973652Y-92152434D01*
X113962801Y-92168953D01*
X113950386Y-92184959D01*
X113947241Y-92192228D01*
X113947238Y-92192232D01*
X113932826Y-92225537D01*
X113927609Y-92236187D01*
X113906305Y-92274940D01*
X113904334Y-92282615D01*
X113904334Y-92282616D01*
X113901267Y-92294562D01*
X113894863Y-92313266D01*
X113886819Y-92331855D01*
X113885580Y-92339678D01*
X113885577Y-92339688D01*
X113879901Y-92375524D01*
X113877495Y-92387144D01*
X113873662Y-92402073D01*
X113866500Y-92429970D01*
X113866500Y-92450224D01*
X113864949Y-92469934D01*
X113861780Y-92489943D01*
X113862526Y-92497835D01*
X113865941Y-92533961D01*
X113866500Y-92545819D01*
X113866500Y-97521233D01*
X113865973Y-97532416D01*
X113864298Y-97539909D01*
X113864547Y-97547835D01*
X113864547Y-97547836D01*
X113866438Y-97607986D01*
X113866500Y-97611945D01*
X113866500Y-97639856D01*
X113866997Y-97643790D01*
X113866997Y-97643791D01*
X113867005Y-97643856D01*
X113867938Y-97655693D01*
X113869327Y-97699889D01*
X113874978Y-97719339D01*
X113878987Y-97738700D01*
X113881526Y-97758797D01*
X113884445Y-97766168D01*
X113884445Y-97766170D01*
X113897804Y-97799912D01*
X113901649Y-97811142D01*
X113908828Y-97835853D01*
X113913982Y-97853593D01*
X113918015Y-97860412D01*
X113918017Y-97860417D01*
X113924293Y-97871028D01*
X113932988Y-97888776D01*
X113940448Y-97907617D01*
X113945110Y-97914033D01*
X113945110Y-97914034D01*
X113966436Y-97943387D01*
X113972952Y-97953307D01*
X113988696Y-97979928D01*
X113995458Y-97991362D01*
X114009779Y-98005683D01*
X114022619Y-98020716D01*
X114034528Y-98037107D01*
X114040634Y-98042158D01*
X114068605Y-98065298D01*
X114077384Y-98073288D01*
X116329595Y-100325500D01*
X116363621Y-100387812D01*
X116366500Y-100414595D01*
X116366500Y-100748134D01*
X116366868Y-100751524D01*
X116366869Y-100751538D01*
X116367940Y-100761395D01*
X116355411Y-100831277D01*
X116307089Y-100883292D01*
X116242677Y-100901000D01*
X112495412Y-100901000D01*
X112427291Y-100880998D01*
X112406317Y-100864095D01*
X107908254Y-96366033D01*
X107874228Y-96303721D01*
X107871349Y-96276938D01*
X107871349Y-93400938D01*
X107871641Y-93392368D01*
X107875002Y-93343073D01*
X107875002Y-93343069D01*
X107875518Y-93335497D01*
X107873781Y-93325541D01*
X107864687Y-93273439D01*
X107863724Y-93266913D01*
X107857071Y-93211931D01*
X107857070Y-93211928D01*
X107856158Y-93204389D01*
X107853472Y-93197280D01*
X107852626Y-93193837D01*
X107848763Y-93179712D01*
X107847735Y-93176307D01*
X107846430Y-93168831D01*
X107821114Y-93111159D01*
X107818626Y-93105064D01*
X107799039Y-93053229D01*
X107799038Y-93053227D01*
X107796355Y-93046127D01*
X107792058Y-93039875D01*
X107790415Y-93036732D01*
X107783320Y-93023984D01*
X107781479Y-93020872D01*
X107778426Y-93013916D01*
X107740081Y-92963942D01*
X107736210Y-92958615D01*
X107726472Y-92944445D01*
X107700528Y-92906697D01*
X107693012Y-92900000D01*
X107654670Y-92865839D01*
X107649394Y-92860858D01*
X107636243Y-92847707D01*
X107602217Y-92785395D01*
X107600028Y-92771782D01*
X107594232Y-92716637D01*
X107593542Y-92710072D01*
X107534527Y-92528444D01*
X107439040Y-92363056D01*
X107418000Y-92339688D01*
X107315675Y-92226045D01*
X107315674Y-92226044D01*
X107311253Y-92221134D01*
X107156752Y-92108882D01*
X107150724Y-92106198D01*
X107150722Y-92106197D01*
X106988319Y-92033891D01*
X106988318Y-92033891D01*
X106982288Y-92031206D01*
X106888887Y-92011353D01*
X106801944Y-91992872D01*
X106801939Y-91992872D01*
X106795487Y-91991500D01*
X106604513Y-91991500D01*
X106598061Y-91992872D01*
X106598056Y-91992872D01*
X106511113Y-92011353D01*
X106417712Y-92031206D01*
X106411682Y-92033891D01*
X106411681Y-92033891D01*
X106249278Y-92106197D01*
X106249276Y-92106198D01*
X106243248Y-92108882D01*
X106088747Y-92221134D01*
X106084326Y-92226044D01*
X106084325Y-92226045D01*
X106079049Y-92231905D01*
X106033389Y-92282616D01*
X106003136Y-92316215D01*
X105942690Y-92353455D01*
X105871707Y-92352103D01*
X105812722Y-92312590D01*
X105784464Y-92247459D01*
X105783500Y-92231905D01*
X105783500Y-92014595D01*
X105803502Y-91946474D01*
X105820405Y-91925499D01*
X106630501Y-91115404D01*
X106692813Y-91081379D01*
X106719596Y-91078500D01*
X106775487Y-91078500D01*
X106781939Y-91077128D01*
X106781944Y-91077128D01*
X106879609Y-91056368D01*
X106962288Y-91038794D01*
X107122326Y-90967541D01*
X107130722Y-90963803D01*
X107130724Y-90963802D01*
X107136752Y-90961118D01*
X107291253Y-90848866D01*
X107363653Y-90768458D01*
X107414621Y-90711852D01*
X107414622Y-90711851D01*
X107419040Y-90706944D01*
X107514527Y-90541556D01*
X107573542Y-90359928D01*
X107588835Y-90214428D01*
X107592814Y-90176565D01*
X107593504Y-90170000D01*
X107576062Y-90004045D01*
X107574232Y-89986635D01*
X107574232Y-89986633D01*
X107573542Y-89980072D01*
X107514527Y-89798444D01*
X107419040Y-89633056D01*
X107373744Y-89582749D01*
X107295675Y-89496045D01*
X107295674Y-89496044D01*
X107291253Y-89491134D01*
X107136752Y-89378882D01*
X107130724Y-89376198D01*
X107130722Y-89376197D01*
X106968319Y-89303891D01*
X106968318Y-89303891D01*
X106962288Y-89301206D01*
X106849721Y-89277279D01*
X106781944Y-89262872D01*
X106781939Y-89262872D01*
X106775487Y-89261500D01*
X106584513Y-89261500D01*
X106578061Y-89262872D01*
X106578056Y-89262872D01*
X106510279Y-89277279D01*
X106397712Y-89301206D01*
X106391682Y-89303891D01*
X106391681Y-89303891D01*
X106229278Y-89376197D01*
X106229276Y-89376198D01*
X106223248Y-89378882D01*
X106068747Y-89491134D01*
X106064326Y-89496044D01*
X106064325Y-89496045D01*
X105986257Y-89582749D01*
X105940960Y-89633056D01*
X105845473Y-89798444D01*
X105786458Y-89980072D01*
X105785768Y-89986633D01*
X105785768Y-89986635D01*
X105783938Y-90004045D01*
X105769959Y-90137058D01*
X105769093Y-90145293D01*
X105742080Y-90210950D01*
X105732887Y-90221209D01*
X104757736Y-91196359D01*
X104749462Y-91203888D01*
X104742982Y-91208000D01*
X104737557Y-91213777D01*
X104696357Y-91257651D01*
X104693602Y-91260493D01*
X104673865Y-91280230D01*
X104671385Y-91283427D01*
X104663682Y-91292447D01*
X104633414Y-91324679D01*
X104629595Y-91331625D01*
X104629593Y-91331628D01*
X104623652Y-91342434D01*
X104612801Y-91358953D01*
X104600386Y-91374959D01*
X104597241Y-91382228D01*
X104597238Y-91382232D01*
X104582826Y-91415537D01*
X104577609Y-91426187D01*
X104556305Y-91464940D01*
X104554334Y-91472615D01*
X104554334Y-91472616D01*
X104551267Y-91484562D01*
X104544863Y-91503266D01*
X104536819Y-91521855D01*
X104535580Y-91529678D01*
X104535577Y-91529688D01*
X104529901Y-91565524D01*
X104527495Y-91577144D01*
X104525093Y-91586500D01*
X104516500Y-91619970D01*
X104516500Y-91640224D01*
X104514949Y-91659934D01*
X104511780Y-91679943D01*
X104512526Y-91687835D01*
X104515941Y-91723961D01*
X104516500Y-91735819D01*
X104516500Y-102531233D01*
X104515973Y-102542416D01*
X104514298Y-102549909D01*
X104514547Y-102557835D01*
X104514547Y-102557836D01*
X104516438Y-102617986D01*
X104516500Y-102621945D01*
X104516500Y-102649856D01*
X104516996Y-102653784D01*
X104517227Y-102657455D01*
X104515575Y-102679979D01*
X104516458Y-102680072D01*
X104496496Y-102870000D01*
X97028500Y-102870000D01*
X97028500Y-91356880D01*
X97561992Y-91356880D01*
X97562355Y-91361028D01*
X97562355Y-91361032D01*
X97587487Y-91648293D01*
X97587488Y-91648301D01*
X97587852Y-91652459D01*
X97588766Y-91656548D01*
X97595760Y-91687835D01*
X97652577Y-91942021D01*
X97654019Y-91945941D01*
X97654021Y-91945947D01*
X97741960Y-92184959D01*
X97755029Y-92220480D01*
X97756980Y-92224180D01*
X97756982Y-92224185D01*
X97839867Y-92381389D01*
X97893410Y-92482942D01*
X98065288Y-92724797D01*
X98267642Y-92941796D01*
X98496918Y-93130125D01*
X98749088Y-93286477D01*
X99019722Y-93408105D01*
X99068593Y-93422674D01*
X99300065Y-93491679D01*
X99300067Y-93491679D01*
X99304064Y-93492871D01*
X99308184Y-93493524D01*
X99308186Y-93493524D01*
X99375978Y-93504261D01*
X99597119Y-93539286D01*
X99642146Y-93541331D01*
X99688497Y-93543436D01*
X99688516Y-93543436D01*
X99689916Y-93543500D01*
X99875264Y-93543500D01*
X100096056Y-93528835D01*
X100386910Y-93470188D01*
X100667453Y-93373590D01*
X100671196Y-93371716D01*
X100671200Y-93371714D01*
X100929012Y-93242611D01*
X100929014Y-93242610D01*
X100932756Y-93240736D01*
X101127867Y-93108139D01*
X101174699Y-93076312D01*
X101174702Y-93076310D01*
X101178158Y-93073961D01*
X101399346Y-92876196D01*
X101410290Y-92863428D01*
X101589718Y-92654085D01*
X101592436Y-92650914D01*
X101594711Y-92647411D01*
X101751763Y-92405572D01*
X101751765Y-92405569D01*
X101754035Y-92402073D01*
X101766642Y-92375524D01*
X101805085Y-92294562D01*
X101881304Y-92134046D01*
X101888137Y-92112763D01*
X101970726Y-91855530D01*
X101970727Y-91855524D01*
X101972006Y-91851542D01*
X102007091Y-91656548D01*
X102023809Y-91563632D01*
X102023810Y-91563627D01*
X102024548Y-91559523D01*
X102028532Y-91471803D01*
X102037819Y-91267290D01*
X102037819Y-91267285D01*
X102038008Y-91263120D01*
X102032713Y-91202593D01*
X102012513Y-90971707D01*
X102012512Y-90971699D01*
X102012148Y-90967541D01*
X101954995Y-90711852D01*
X101948336Y-90682063D01*
X101948336Y-90682061D01*
X101947423Y-90677979D01*
X101945016Y-90671435D01*
X101846418Y-90403452D01*
X101846416Y-90403448D01*
X101844971Y-90399520D01*
X101827407Y-90366206D01*
X101708543Y-90140762D01*
X101708542Y-90140761D01*
X101706590Y-90137058D01*
X101534712Y-89895203D01*
X101332358Y-89678204D01*
X101156192Y-89533500D01*
X101106307Y-89492524D01*
X101103082Y-89489875D01*
X100850912Y-89333523D01*
X100580278Y-89211895D01*
X100407610Y-89160420D01*
X100299935Y-89128321D01*
X100299933Y-89128321D01*
X100295936Y-89127129D01*
X100291816Y-89126476D01*
X100291814Y-89126476D01*
X100100694Y-89096206D01*
X100002881Y-89080714D01*
X99957854Y-89078669D01*
X99911503Y-89076564D01*
X99911484Y-89076564D01*
X99910084Y-89076500D01*
X99724736Y-89076500D01*
X99503944Y-89091165D01*
X99213090Y-89149812D01*
X98932547Y-89246410D01*
X98928804Y-89248284D01*
X98928800Y-89248286D01*
X98670988Y-89377389D01*
X98667244Y-89379264D01*
X98590784Y-89431226D01*
X98440293Y-89533500D01*
X98421842Y-89546039D01*
X98200654Y-89743804D01*
X98007564Y-89969086D01*
X98005290Y-89972588D01*
X98005289Y-89972589D01*
X97866747Y-90185926D01*
X97845965Y-90217927D01*
X97718696Y-90485954D01*
X97717417Y-90489937D01*
X97717416Y-90489940D01*
X97649580Y-90701226D01*
X97627994Y-90768458D01*
X97627253Y-90772577D01*
X97592174Y-90967541D01*
X97575452Y-91060477D01*
X97575263Y-91064644D01*
X97575262Y-91064651D01*
X97562181Y-91352710D01*
X97561992Y-91356880D01*
X97028500Y-91356880D01*
X97028500Y-86603725D01*
X139208652Y-86603725D01*
X139208739Y-86607726D01*
X139208739Y-86607733D01*
X139215282Y-86907561D01*
X139215370Y-86911578D01*
X139261150Y-87216082D01*
X139345251Y-87512302D01*
X139466309Y-87795433D01*
X139622362Y-88060888D01*
X139810880Y-88304362D01*
X140028806Y-88521909D01*
X140031987Y-88524363D01*
X140031988Y-88524364D01*
X140269416Y-88707539D01*
X140269420Y-88707542D01*
X140272609Y-88710002D01*
X140276088Y-88712039D01*
X140456828Y-88817866D01*
X140538336Y-88865591D01*
X140542021Y-88867159D01*
X140542025Y-88867161D01*
X140603773Y-88893435D01*
X140821679Y-88986155D01*
X140948600Y-89021950D01*
X141114177Y-89068648D01*
X141114186Y-89068650D01*
X141118044Y-89069738D01*
X141191927Y-89080714D01*
X141419329Y-89114497D01*
X141419331Y-89114497D01*
X141422628Y-89114987D01*
X141425959Y-89115127D01*
X141425963Y-89115127D01*
X141462632Y-89116664D01*
X141506445Y-89118500D01*
X141702895Y-89118500D01*
X141827497Y-89110552D01*
X141928294Y-89104122D01*
X141928299Y-89104121D01*
X141932302Y-89103866D01*
X141936241Y-89103104D01*
X142230685Y-89046137D01*
X142230689Y-89046136D01*
X142234622Y-89045375D01*
X142373585Y-88999552D01*
X142523242Y-88950202D01*
X142523247Y-88950200D01*
X142527059Y-88948943D01*
X142804873Y-88816135D01*
X142808238Y-88813962D01*
X142808242Y-88813960D01*
X143060192Y-88651278D01*
X143060195Y-88651276D01*
X143063560Y-88649103D01*
X143211431Y-88524364D01*
X143295850Y-88453151D01*
X143295853Y-88453148D01*
X143298927Y-88450555D01*
X143313639Y-88434528D01*
X143504442Y-88226667D01*
X143504444Y-88226665D01*
X143507157Y-88223709D01*
X143684875Y-87972244D01*
X143829201Y-87700235D01*
X143937793Y-87412092D01*
X143983391Y-87219947D01*
X144007964Y-87116402D01*
X144007965Y-87116397D01*
X144008893Y-87112486D01*
X144040202Y-86817087D01*
X144057341Y-86775533D01*
X144044604Y-86755714D01*
X144039530Y-86722965D01*
X144034718Y-86502439D01*
X144034718Y-86502434D01*
X144034630Y-86498422D01*
X143988850Y-86193918D01*
X143904749Y-85897698D01*
X143783691Y-85614567D01*
X143627638Y-85349112D01*
X143439120Y-85105638D01*
X143221194Y-84888091D01*
X143218012Y-84885636D01*
X142980584Y-84702461D01*
X142980580Y-84702458D01*
X142977391Y-84699998D01*
X142945191Y-84681144D01*
X142715128Y-84546437D01*
X142715125Y-84546435D01*
X142711664Y-84544409D01*
X142707979Y-84542841D01*
X142707975Y-84542839D01*
X142432015Y-84425417D01*
X142428321Y-84423845D01*
X142301400Y-84388050D01*
X142135823Y-84341352D01*
X142135814Y-84341350D01*
X142131956Y-84340262D01*
X141902231Y-84306134D01*
X141830671Y-84295503D01*
X141830669Y-84295503D01*
X141827372Y-84295013D01*
X141824041Y-84294873D01*
X141824037Y-84294873D01*
X141787368Y-84293336D01*
X141743555Y-84291500D01*
X141547105Y-84291500D01*
X141422503Y-84299448D01*
X141321706Y-84305878D01*
X141321701Y-84305879D01*
X141317698Y-84306134D01*
X141313760Y-84306896D01*
X141313759Y-84306896D01*
X141019315Y-84363863D01*
X141019311Y-84363864D01*
X141015378Y-84364625D01*
X140876415Y-84410448D01*
X140726758Y-84459798D01*
X140726753Y-84459800D01*
X140722941Y-84461057D01*
X140445127Y-84593865D01*
X140441762Y-84596038D01*
X140441758Y-84596040D01*
X140276941Y-84702461D01*
X140186440Y-84760897D01*
X139951073Y-84959445D01*
X139948355Y-84962406D01*
X139948354Y-84962407D01*
X139813955Y-85108822D01*
X139742843Y-85186291D01*
X139565125Y-85437756D01*
X139420799Y-85709765D01*
X139312207Y-85997908D01*
X139311278Y-86001823D01*
X139265692Y-86193918D01*
X139241107Y-86297514D01*
X139208652Y-86603725D01*
X97028500Y-86603725D01*
X97028500Y-83184500D01*
X97048502Y-83116379D01*
X97102158Y-83069886D01*
X97154500Y-83058500D01*
X105091377Y-83058500D01*
X105092148Y-83058502D01*
X105169721Y-83058976D01*
X105198152Y-83050850D01*
X105214915Y-83047272D01*
X105244187Y-83043080D01*
X105267564Y-83032451D01*
X105285087Y-83026004D01*
X105309771Y-83018949D01*
X105317365Y-83014157D01*
X105317368Y-83014156D01*
X105334780Y-83003170D01*
X105349865Y-82995030D01*
X105376782Y-82982792D01*
X105384210Y-82976392D01*
X105396235Y-82966030D01*
X105411239Y-82954927D01*
X105432958Y-82941224D01*
X105438897Y-82934499D01*
X105438901Y-82934496D01*
X105452532Y-82919062D01*
X105464724Y-82907018D01*
X105480327Y-82893573D01*
X105480329Y-82893570D01*
X105487127Y-82887713D01*
X105501094Y-82866165D01*
X105512385Y-82851291D01*
X105523431Y-82838783D01*
X105523432Y-82838782D01*
X105529378Y-82832049D01*
X105541943Y-82805287D01*
X105550263Y-82790309D01*
X105561469Y-82773019D01*
X105561470Y-82773018D01*
X105566352Y-82765485D01*
X105568923Y-82756888D01*
X105572037Y-82750149D01*
X105618768Y-82696700D01*
X105686417Y-82677000D01*
X111540717Y-82677000D01*
X111608838Y-82697002D01*
G37*
%TD.AperFunction*%
%TA.AperFunction,Conductor*%
G36*
X128658527Y-100983502D02*
G01*
X128679501Y-101000405D01*
X129862878Y-102183783D01*
X129896904Y-102246095D01*
X129899093Y-102259708D01*
X129915439Y-102415229D01*
X129916458Y-102424928D01*
X129975473Y-102606556D01*
X129978776Y-102612278D01*
X129978777Y-102612279D01*
X129986185Y-102625110D01*
X130070960Y-102771944D01*
X130075378Y-102776851D01*
X130075379Y-102776852D01*
X130194325Y-102908955D01*
X130198747Y-102913866D01*
X130261422Y-102959402D01*
X130331024Y-103009971D01*
X130353248Y-103026118D01*
X130359276Y-103028802D01*
X130359278Y-103028803D01*
X130521681Y-103101109D01*
X130527712Y-103103794D01*
X130608584Y-103120984D01*
X130708056Y-103142128D01*
X130708061Y-103142128D01*
X130714513Y-103143500D01*
X130763775Y-103143500D01*
X130831896Y-103163502D01*
X130878389Y-103217158D01*
X130888493Y-103287432D01*
X130858999Y-103352012D01*
X130852870Y-103358595D01*
X129697370Y-104514095D01*
X129635058Y-104548121D01*
X129608275Y-104551000D01*
X120741725Y-104551000D01*
X120673604Y-104530998D01*
X120652630Y-104514095D01*
X120542130Y-104403595D01*
X120508104Y-104341283D01*
X120513169Y-104270468D01*
X120555716Y-104213632D01*
X120622236Y-104188821D01*
X120631225Y-104188500D01*
X120734769Y-104188500D01*
X120737825Y-104188200D01*
X120737832Y-104188200D01*
X120796340Y-104182463D01*
X120881833Y-104174080D01*
X120887734Y-104172298D01*
X120887736Y-104172298D01*
X120961053Y-104150162D01*
X121071169Y-104116916D01*
X121245796Y-104024066D01*
X121332062Y-103953709D01*
X121394287Y-103902960D01*
X121394290Y-103902957D01*
X121399062Y-103899065D01*
X121402991Y-103894316D01*
X121521201Y-103751425D01*
X121521203Y-103751421D01*
X121525130Y-103746675D01*
X121619198Y-103572701D01*
X121677682Y-103383768D01*
X121679708Y-103364490D01*
X121697711Y-103193204D01*
X121697711Y-103193202D01*
X121698355Y-103187075D01*
X121690776Y-103103794D01*
X121680989Y-102996251D01*
X121680988Y-102996248D01*
X121680430Y-102990112D01*
X121665869Y-102940635D01*
X121645080Y-102870000D01*
X121624590Y-102800381D01*
X121614915Y-102781873D01*
X121535815Y-102630571D01*
X121532960Y-102625110D01*
X121530934Y-102622591D01*
X121510661Y-102555612D01*
X121530096Y-102487327D01*
X121583363Y-102440390D01*
X121653551Y-102429702D01*
X121680887Y-102436582D01*
X121774684Y-102471745D01*
X121836866Y-102478500D01*
X122365000Y-102478500D01*
X122433121Y-102498502D01*
X122479614Y-102552158D01*
X122491000Y-102604500D01*
X122491000Y-102841401D01*
X122490708Y-102849971D01*
X122487692Y-102894213D01*
X122486830Y-102906852D01*
X122488135Y-102914328D01*
X122488135Y-102914332D01*
X122497663Y-102968924D01*
X122498626Y-102975449D01*
X122504632Y-103025074D01*
X122506191Y-103037960D01*
X122508875Y-103045062D01*
X122509719Y-103048500D01*
X122513586Y-103062633D01*
X122514613Y-103066034D01*
X122515919Y-103073517D01*
X122518972Y-103080471D01*
X122518972Y-103080472D01*
X122520559Y-103084087D01*
X122528968Y-103124161D01*
X122530496Y-103124000D01*
X122545894Y-103270500D01*
X122550458Y-103313928D01*
X122609473Y-103495556D01*
X122704960Y-103660944D01*
X122832747Y-103802866D01*
X122841987Y-103809579D01*
X122979893Y-103909774D01*
X122987248Y-103915118D01*
X122993276Y-103917802D01*
X122993278Y-103917803D01*
X123155681Y-103990109D01*
X123161712Y-103992794D01*
X123255113Y-104012647D01*
X123342056Y-104031128D01*
X123342061Y-104031128D01*
X123348513Y-104032500D01*
X123539487Y-104032500D01*
X123545939Y-104031128D01*
X123545944Y-104031128D01*
X123632887Y-104012647D01*
X123726288Y-103992794D01*
X123732319Y-103990109D01*
X123894722Y-103917803D01*
X123894724Y-103917802D01*
X123900752Y-103915118D01*
X123908108Y-103909774D01*
X124046013Y-103809579D01*
X124055253Y-103802866D01*
X124183040Y-103660944D01*
X124278527Y-103495556D01*
X124337542Y-103313928D01*
X124342107Y-103270500D01*
X124356814Y-103130565D01*
X124357504Y-103124000D01*
X124356039Y-103110061D01*
X124338232Y-102940635D01*
X124338232Y-102940633D01*
X124337542Y-102934072D01*
X124278527Y-102752444D01*
X124229483Y-102667498D01*
X124212746Y-102598505D01*
X124235966Y-102531413D01*
X124291773Y-102487526D01*
X124338603Y-102478500D01*
X124543134Y-102478500D01*
X124605316Y-102471745D01*
X124741705Y-102420615D01*
X124858261Y-102333261D01*
X124858377Y-102333416D01*
X124916130Y-102301879D01*
X124942913Y-102299000D01*
X125896274Y-102299000D01*
X125964395Y-102319002D01*
X125985370Y-102335905D01*
X126063758Y-102414294D01*
X126097783Y-102476607D01*
X126099972Y-102490217D01*
X126106458Y-102551928D01*
X126165473Y-102733556D01*
X126168776Y-102739278D01*
X126168777Y-102739279D01*
X126180007Y-102758729D01*
X126260960Y-102898944D01*
X126265378Y-102903851D01*
X126265379Y-102903852D01*
X126384082Y-103035685D01*
X126388747Y-103040866D01*
X126458368Y-103091449D01*
X126528122Y-103142128D01*
X126543248Y-103153118D01*
X126549276Y-103155802D01*
X126549278Y-103155803D01*
X126711681Y-103228109D01*
X126717712Y-103230794D01*
X126811112Y-103250647D01*
X126898056Y-103269128D01*
X126898061Y-103269128D01*
X126904513Y-103270500D01*
X127095487Y-103270500D01*
X127101939Y-103269128D01*
X127101944Y-103269128D01*
X127188887Y-103250647D01*
X127282288Y-103230794D01*
X127288319Y-103228109D01*
X127450722Y-103155803D01*
X127450724Y-103155802D01*
X127456752Y-103153118D01*
X127471879Y-103142128D01*
X127541632Y-103091449D01*
X127611253Y-103040866D01*
X127615918Y-103035685D01*
X127734621Y-102903852D01*
X127734622Y-102903851D01*
X127739040Y-102898944D01*
X127819993Y-102758729D01*
X127831223Y-102739279D01*
X127831224Y-102739278D01*
X127834527Y-102733556D01*
X127893542Y-102551928D01*
X127901459Y-102476607D01*
X127912814Y-102368565D01*
X127913504Y-102362000D01*
X127907131Y-102301360D01*
X127894232Y-102178635D01*
X127894232Y-102178633D01*
X127893542Y-102172072D01*
X127834527Y-101990444D01*
X127739040Y-101825056D01*
X127708407Y-101791034D01*
X127615675Y-101688045D01*
X127615674Y-101688044D01*
X127611253Y-101683134D01*
X127493618Y-101597667D01*
X127462094Y-101574763D01*
X127462093Y-101574762D01*
X127456752Y-101570882D01*
X127450724Y-101568198D01*
X127450722Y-101568197D01*
X127288319Y-101495891D01*
X127288318Y-101495891D01*
X127282288Y-101493206D01*
X127112369Y-101457088D01*
X127049472Y-101422937D01*
X126805130Y-101178595D01*
X126771104Y-101116283D01*
X126776169Y-101045468D01*
X126818716Y-100988632D01*
X126885236Y-100963821D01*
X126894225Y-100963500D01*
X128590406Y-100963500D01*
X128658527Y-100983502D01*
G37*
%TD.AperFunction*%
%TD*%
M02*
