%TF.GenerationSoftware,KiCad,Pcbnew,(6.0.6)*%
%TF.CreationDate,2022-07-19T20:12:23-04:00*%
%TF.ProjectId,4272SparkMaxBreakout,34323732-5370-4617-926b-4d6178427265,rev?*%
%TF.SameCoordinates,Original*%
%TF.FileFunction,Legend,Top*%
%TF.FilePolarity,Positive*%
%FSLAX46Y46*%
G04 Gerber Fmt 4.6, Leading zero omitted, Abs format (unit mm)*
G04 Created by KiCad (PCBNEW (6.0.6)) date 2022-07-19 20:12:23*
%MOMM*%
%LPD*%
G01*
G04 APERTURE LIST*
%ADD10C,0.150000*%
%ADD11C,0.254000*%
%ADD12C,0.100000*%
%ADD13C,0.200000*%
%ADD14C,0.120000*%
G04 APERTURE END LIST*
D10*
X97871428Y-113935714D02*
X97871428Y-114602380D01*
X97633333Y-113554761D02*
X97395238Y-114269047D01*
X98014285Y-114269047D01*
X98347619Y-113697619D02*
X98395238Y-113650000D01*
X98490476Y-113602380D01*
X98728571Y-113602380D01*
X98823809Y-113650000D01*
X98871428Y-113697619D01*
X98919047Y-113792857D01*
X98919047Y-113888095D01*
X98871428Y-114030952D01*
X98300000Y-114602380D01*
X98919047Y-114602380D01*
X99252380Y-113602380D02*
X99919047Y-113602380D01*
X99490476Y-114602380D01*
X100252380Y-113697619D02*
X100300000Y-113650000D01*
X100395238Y-113602380D01*
X100633333Y-113602380D01*
X100728571Y-113650000D01*
X100776190Y-113697619D01*
X100823809Y-113792857D01*
X100823809Y-113888095D01*
X100776190Y-114030952D01*
X100204761Y-114602380D01*
X100823809Y-114602380D01*
X102014285Y-114602380D02*
X102014285Y-113602380D01*
X102347619Y-114316666D01*
X102680952Y-113602380D01*
X102680952Y-114602380D01*
X103585714Y-114602380D02*
X103585714Y-114078571D01*
X103538095Y-113983333D01*
X103442857Y-113935714D01*
X103252380Y-113935714D01*
X103157142Y-113983333D01*
X103585714Y-114554761D02*
X103490476Y-114602380D01*
X103252380Y-114602380D01*
X103157142Y-114554761D01*
X103109523Y-114459523D01*
X103109523Y-114364285D01*
X103157142Y-114269047D01*
X103252380Y-114221428D01*
X103490476Y-114221428D01*
X103585714Y-114173809D01*
X103966666Y-113935714D02*
X104204761Y-114602380D01*
X104442857Y-113935714D01*
X105204761Y-114554761D02*
X105109523Y-114602380D01*
X104919047Y-114602380D01*
X104823809Y-114554761D01*
X104776190Y-114459523D01*
X104776190Y-114078571D01*
X104823809Y-113983333D01*
X104919047Y-113935714D01*
X105109523Y-113935714D01*
X105204761Y-113983333D01*
X105252380Y-114078571D01*
X105252380Y-114173809D01*
X104776190Y-114269047D01*
X105680952Y-114602380D02*
X105680952Y-113935714D01*
X105680952Y-114126190D02*
X105728571Y-114030952D01*
X105776190Y-113983333D01*
X105871428Y-113935714D01*
X105966666Y-113935714D01*
X106300000Y-114602380D02*
X106300000Y-113935714D01*
X106300000Y-113602380D02*
X106252380Y-113650000D01*
X106300000Y-113697619D01*
X106347619Y-113650000D01*
X106300000Y-113602380D01*
X106300000Y-113697619D01*
X107204761Y-114554761D02*
X107109523Y-114602380D01*
X106919047Y-114602380D01*
X106823809Y-114554761D01*
X106776190Y-114507142D01*
X106728571Y-114411904D01*
X106728571Y-114126190D01*
X106776190Y-114030952D01*
X106823809Y-113983333D01*
X106919047Y-113935714D01*
X107109523Y-113935714D01*
X107204761Y-113983333D01*
X107633333Y-114602380D02*
X107633333Y-113602380D01*
X107728571Y-114221428D02*
X108014285Y-114602380D01*
X108014285Y-113935714D02*
X107633333Y-114316666D01*
X109776190Y-114602380D02*
X109442857Y-114126190D01*
X109204761Y-114602380D02*
X109204761Y-113602380D01*
X109585714Y-113602380D01*
X109680952Y-113650000D01*
X109728571Y-113697619D01*
X109776190Y-113792857D01*
X109776190Y-113935714D01*
X109728571Y-114030952D01*
X109680952Y-114078571D01*
X109585714Y-114126190D01*
X109204761Y-114126190D01*
X110347619Y-114602380D02*
X110252380Y-114554761D01*
X110204761Y-114507142D01*
X110157142Y-114411904D01*
X110157142Y-114126190D01*
X110204761Y-114030952D01*
X110252380Y-113983333D01*
X110347619Y-113935714D01*
X110490476Y-113935714D01*
X110585714Y-113983333D01*
X110633333Y-114030952D01*
X110680952Y-114126190D01*
X110680952Y-114411904D01*
X110633333Y-114507142D01*
X110585714Y-114554761D01*
X110490476Y-114602380D01*
X110347619Y-114602380D01*
X111109523Y-114602380D02*
X111109523Y-113602380D01*
X111109523Y-113983333D02*
X111204761Y-113935714D01*
X111395238Y-113935714D01*
X111490476Y-113983333D01*
X111538095Y-114030952D01*
X111585714Y-114126190D01*
X111585714Y-114411904D01*
X111538095Y-114507142D01*
X111490476Y-114554761D01*
X111395238Y-114602380D01*
X111204761Y-114602380D01*
X111109523Y-114554761D01*
X112157142Y-114602380D02*
X112061904Y-114554761D01*
X112014285Y-114507142D01*
X111966666Y-114411904D01*
X111966666Y-114126190D01*
X112014285Y-114030952D01*
X112061904Y-113983333D01*
X112157142Y-113935714D01*
X112300000Y-113935714D01*
X112395238Y-113983333D01*
X112442857Y-114030952D01*
X112490476Y-114126190D01*
X112490476Y-114411904D01*
X112442857Y-114507142D01*
X112395238Y-114554761D01*
X112300000Y-114602380D01*
X112157142Y-114602380D01*
X112776190Y-113935714D02*
X113157142Y-113935714D01*
X112919047Y-113602380D02*
X112919047Y-114459523D01*
X112966666Y-114554761D01*
X113061904Y-114602380D01*
X113157142Y-114602380D01*
X113490476Y-114602380D02*
X113490476Y-113935714D01*
X113490476Y-113602380D02*
X113442857Y-113650000D01*
X113490476Y-113697619D01*
X113538095Y-113650000D01*
X113490476Y-113602380D01*
X113490476Y-113697619D01*
X114395238Y-114554761D02*
X114300000Y-114602380D01*
X114109523Y-114602380D01*
X114014285Y-114554761D01*
X113966666Y-114507142D01*
X113919047Y-114411904D01*
X113919047Y-114126190D01*
X113966666Y-114030952D01*
X114014285Y-113983333D01*
X114109523Y-113935714D01*
X114300000Y-113935714D01*
X114395238Y-113983333D01*
X114776190Y-114554761D02*
X114871428Y-114602380D01*
X115061904Y-114602380D01*
X115157142Y-114554761D01*
X115204761Y-114459523D01*
X115204761Y-114411904D01*
X115157142Y-114316666D01*
X115061904Y-114269047D01*
X114919047Y-114269047D01*
X114823809Y-114221428D01*
X114776190Y-114126190D01*
X114776190Y-114078571D01*
X114823809Y-113983333D01*
X114919047Y-113935714D01*
X115061904Y-113935714D01*
X115157142Y-113983333D01*
X97785714Y-83828571D02*
X97928571Y-83876190D01*
X97976190Y-83923809D01*
X98023809Y-84019047D01*
X98023809Y-84161904D01*
X97976190Y-84257142D01*
X97928571Y-84304761D01*
X97833333Y-84352380D01*
X97452380Y-84352380D01*
X97452380Y-83352380D01*
X97785714Y-83352380D01*
X97880952Y-83400000D01*
X97928571Y-83447619D01*
X97976190Y-83542857D01*
X97976190Y-83638095D01*
X97928571Y-83733333D01*
X97880952Y-83780952D01*
X97785714Y-83828571D01*
X97452380Y-83828571D01*
X98595238Y-84352380D02*
X98500000Y-84304761D01*
X98452380Y-84209523D01*
X98452380Y-83352380D01*
X99404761Y-84352380D02*
X99404761Y-83352380D01*
X99404761Y-84304761D02*
X99309523Y-84352380D01*
X99119047Y-84352380D01*
X99023809Y-84304761D01*
X98976190Y-84257142D01*
X98928571Y-84161904D01*
X98928571Y-83876190D01*
X98976190Y-83780952D01*
X99023809Y-83733333D01*
X99119047Y-83685714D01*
X99309523Y-83685714D01*
X99404761Y-83733333D01*
X100642857Y-84352380D02*
X100642857Y-83352380D01*
X100880952Y-83352380D01*
X101023809Y-83400000D01*
X101119047Y-83495238D01*
X101166666Y-83590476D01*
X101214285Y-83780952D01*
X101214285Y-83923809D01*
X101166666Y-84114285D01*
X101119047Y-84209523D01*
X101023809Y-84304761D01*
X100880952Y-84352380D01*
X100642857Y-84352380D01*
X102071428Y-84352380D02*
X102071428Y-83828571D01*
X102023809Y-83733333D01*
X101928571Y-83685714D01*
X101738095Y-83685714D01*
X101642857Y-83733333D01*
X102071428Y-84304761D02*
X101976190Y-84352380D01*
X101738095Y-84352380D01*
X101642857Y-84304761D01*
X101595238Y-84209523D01*
X101595238Y-84114285D01*
X101642857Y-84019047D01*
X101738095Y-83971428D01*
X101976190Y-83971428D01*
X102071428Y-83923809D01*
X102404761Y-83685714D02*
X102785714Y-83685714D01*
X102547619Y-83352380D02*
X102547619Y-84209523D01*
X102595238Y-84304761D01*
X102690476Y-84352380D01*
X102785714Y-84352380D01*
X103500000Y-84304761D02*
X103404761Y-84352380D01*
X103214285Y-84352380D01*
X103119047Y-84304761D01*
X103071428Y-84209523D01*
X103071428Y-83828571D01*
X103119047Y-83733333D01*
X103214285Y-83685714D01*
X103404761Y-83685714D01*
X103500000Y-83733333D01*
X103547619Y-83828571D01*
X103547619Y-83923809D01*
X103071428Y-84019047D01*
X103976190Y-84257142D02*
X104023809Y-84304761D01*
X103976190Y-84352380D01*
X103928571Y-84304761D01*
X103976190Y-84257142D01*
X103976190Y-84352380D01*
X103976190Y-83733333D02*
X104023809Y-83780952D01*
X103976190Y-83828571D01*
X103928571Y-83780952D01*
X103976190Y-83733333D01*
X103976190Y-83828571D01*
X105166666Y-83447619D02*
X105214285Y-83400000D01*
X105309523Y-83352380D01*
X105547619Y-83352380D01*
X105642857Y-83400000D01*
X105690476Y-83447619D01*
X105738095Y-83542857D01*
X105738095Y-83638095D01*
X105690476Y-83780952D01*
X105119047Y-84352380D01*
X105738095Y-84352380D01*
X106357142Y-83352380D02*
X106452380Y-83352380D01*
X106547619Y-83400000D01*
X106595238Y-83447619D01*
X106642857Y-83542857D01*
X106690476Y-83733333D01*
X106690476Y-83971428D01*
X106642857Y-84161904D01*
X106595238Y-84257142D01*
X106547619Y-84304761D01*
X106452380Y-84352380D01*
X106357142Y-84352380D01*
X106261904Y-84304761D01*
X106214285Y-84257142D01*
X106166666Y-84161904D01*
X106119047Y-83971428D01*
X106119047Y-83733333D01*
X106166666Y-83542857D01*
X106214285Y-83447619D01*
X106261904Y-83400000D01*
X106357142Y-83352380D01*
X107071428Y-83447619D02*
X107119047Y-83400000D01*
X107214285Y-83352380D01*
X107452380Y-83352380D01*
X107547619Y-83400000D01*
X107595238Y-83447619D01*
X107642857Y-83542857D01*
X107642857Y-83638095D01*
X107595238Y-83780952D01*
X107023809Y-84352380D01*
X107642857Y-84352380D01*
X108023809Y-83447619D02*
X108071428Y-83400000D01*
X108166666Y-83352380D01*
X108404761Y-83352380D01*
X108500000Y-83400000D01*
X108547619Y-83447619D01*
X108595238Y-83542857D01*
X108595238Y-83638095D01*
X108547619Y-83780952D01*
X107976190Y-84352380D01*
X108595238Y-84352380D01*
D11*
%TO.C,P1*%
X110112619Y-108524523D02*
X110112619Y-107254523D01*
X110596428Y-107254523D01*
X110717380Y-107315000D01*
X110777857Y-107375476D01*
X110838333Y-107496428D01*
X110838333Y-107677857D01*
X110777857Y-107798809D01*
X110717380Y-107859285D01*
X110596428Y-107919761D01*
X110112619Y-107919761D01*
X112047857Y-108524523D02*
X111322142Y-108524523D01*
X111685000Y-108524523D02*
X111685000Y-107254523D01*
X111564047Y-107435952D01*
X111443095Y-107556904D01*
X111322142Y-107617380D01*
D10*
%TO.C,R1*%
X122102380Y-86516666D02*
X121626190Y-86850000D01*
X122102380Y-87088095D02*
X121102380Y-87088095D01*
X121102380Y-86707142D01*
X121150000Y-86611904D01*
X121197619Y-86564285D01*
X121292857Y-86516666D01*
X121435714Y-86516666D01*
X121530952Y-86564285D01*
X121578571Y-86611904D01*
X121626190Y-86707142D01*
X121626190Y-87088095D01*
X122102380Y-85564285D02*
X122102380Y-86135714D01*
X122102380Y-85850000D02*
X121102380Y-85850000D01*
X121245238Y-85945238D01*
X121340476Y-86040476D01*
X121388095Y-86135714D01*
%TO.C,*%
%TO.C,R5*%
X109283333Y-88102380D02*
X108950000Y-87626190D01*
X108711904Y-88102380D02*
X108711904Y-87102380D01*
X109092857Y-87102380D01*
X109188095Y-87150000D01*
X109235714Y-87197619D01*
X109283333Y-87292857D01*
X109283333Y-87435714D01*
X109235714Y-87530952D01*
X109188095Y-87578571D01*
X109092857Y-87626190D01*
X108711904Y-87626190D01*
X110188095Y-87102380D02*
X109711904Y-87102380D01*
X109664285Y-87578571D01*
X109711904Y-87530952D01*
X109807142Y-87483333D01*
X110045238Y-87483333D01*
X110140476Y-87530952D01*
X110188095Y-87578571D01*
X110235714Y-87673809D01*
X110235714Y-87911904D01*
X110188095Y-88007142D01*
X110140476Y-88054761D01*
X110045238Y-88102380D01*
X109807142Y-88102380D01*
X109711904Y-88054761D01*
X109664285Y-88007142D01*
D11*
%TO.C,LED3*%
X97478809Y-112424523D02*
X96874047Y-112424523D01*
X96874047Y-111154523D01*
X97902142Y-111759285D02*
X98325476Y-111759285D01*
X98506904Y-112424523D02*
X97902142Y-112424523D01*
X97902142Y-111154523D01*
X98506904Y-111154523D01*
X99051190Y-112424523D02*
X99051190Y-111154523D01*
X99353571Y-111154523D01*
X99535000Y-111215000D01*
X99655952Y-111335952D01*
X99716428Y-111456904D01*
X99776904Y-111698809D01*
X99776904Y-111880238D01*
X99716428Y-112122142D01*
X99655952Y-112243095D01*
X99535000Y-112364047D01*
X99353571Y-112424523D01*
X99051190Y-112424523D01*
X100200238Y-111154523D02*
X100986428Y-111154523D01*
X100563095Y-111638333D01*
X100744523Y-111638333D01*
X100865476Y-111698809D01*
X100925952Y-111759285D01*
X100986428Y-111880238D01*
X100986428Y-112182619D01*
X100925952Y-112303571D01*
X100865476Y-112364047D01*
X100744523Y-112424523D01*
X100381666Y-112424523D01*
X100260714Y-112364047D01*
X100200238Y-112303571D01*
D10*
%TO.C,R2*%
X118152380Y-88066666D02*
X117676190Y-88400000D01*
X118152380Y-88638095D02*
X117152380Y-88638095D01*
X117152380Y-88257142D01*
X117200000Y-88161904D01*
X117247619Y-88114285D01*
X117342857Y-88066666D01*
X117485714Y-88066666D01*
X117580952Y-88114285D01*
X117628571Y-88161904D01*
X117676190Y-88257142D01*
X117676190Y-88638095D01*
X117247619Y-87685714D02*
X117200000Y-87638095D01*
X117152380Y-87542857D01*
X117152380Y-87304761D01*
X117200000Y-87209523D01*
X117247619Y-87161904D01*
X117342857Y-87114285D01*
X117438095Y-87114285D01*
X117580952Y-87161904D01*
X118152380Y-87733333D01*
X118152380Y-87114285D01*
D11*
%TO.C,P3*%
X129112619Y-114124523D02*
X129112619Y-112854523D01*
X129596428Y-112854523D01*
X129717380Y-112915000D01*
X129777857Y-112975476D01*
X129838333Y-113096428D01*
X129838333Y-113277857D01*
X129777857Y-113398809D01*
X129717380Y-113459285D01*
X129596428Y-113519761D01*
X129112619Y-113519761D01*
X130261666Y-112854523D02*
X131047857Y-112854523D01*
X130624523Y-113338333D01*
X130805952Y-113338333D01*
X130926904Y-113398809D01*
X130987380Y-113459285D01*
X131047857Y-113580238D01*
X131047857Y-113882619D01*
X130987380Y-114003571D01*
X130926904Y-114064047D01*
X130805952Y-114124523D01*
X130443095Y-114124523D01*
X130322142Y-114064047D01*
X130261666Y-114003571D01*
%TO.C,P2*%
X129512619Y-98474523D02*
X129512619Y-97204523D01*
X129996428Y-97204523D01*
X130117380Y-97265000D01*
X130177857Y-97325476D01*
X130238333Y-97446428D01*
X130238333Y-97627857D01*
X130177857Y-97748809D01*
X130117380Y-97809285D01*
X129996428Y-97869761D01*
X129512619Y-97869761D01*
X130722142Y-97325476D02*
X130782619Y-97265000D01*
X130903571Y-97204523D01*
X131205952Y-97204523D01*
X131326904Y-97265000D01*
X131387380Y-97325476D01*
X131447857Y-97446428D01*
X131447857Y-97567380D01*
X131387380Y-97748809D01*
X130661666Y-98474523D01*
X131447857Y-98474523D01*
D10*
%TO.C,R3*%
X108483333Y-110652380D02*
X108150000Y-110176190D01*
X107911904Y-110652380D02*
X107911904Y-109652380D01*
X108292857Y-109652380D01*
X108388095Y-109700000D01*
X108435714Y-109747619D01*
X108483333Y-109842857D01*
X108483333Y-109985714D01*
X108435714Y-110080952D01*
X108388095Y-110128571D01*
X108292857Y-110176190D01*
X107911904Y-110176190D01*
X108816666Y-109652380D02*
X109435714Y-109652380D01*
X109102380Y-110033333D01*
X109245238Y-110033333D01*
X109340476Y-110080952D01*
X109388095Y-110128571D01*
X109435714Y-110223809D01*
X109435714Y-110461904D01*
X109388095Y-110557142D01*
X109340476Y-110604761D01*
X109245238Y-110652380D01*
X108959523Y-110652380D01*
X108864285Y-110604761D01*
X108816666Y-110557142D01*
D11*
%TO.C,LED5*%
X97828809Y-86824523D02*
X97224047Y-86824523D01*
X97224047Y-85554523D01*
X98252142Y-86159285D02*
X98675476Y-86159285D01*
X98856904Y-86824523D02*
X98252142Y-86824523D01*
X98252142Y-85554523D01*
X98856904Y-85554523D01*
X99401190Y-86824523D02*
X99401190Y-85554523D01*
X99703571Y-85554523D01*
X99885000Y-85615000D01*
X100005952Y-85735952D01*
X100066428Y-85856904D01*
X100126904Y-86098809D01*
X100126904Y-86280238D01*
X100066428Y-86522142D01*
X100005952Y-86643095D01*
X99885000Y-86764047D01*
X99703571Y-86824523D01*
X99401190Y-86824523D01*
X101275952Y-85554523D02*
X100671190Y-85554523D01*
X100610714Y-86159285D01*
X100671190Y-86098809D01*
X100792142Y-86038333D01*
X101094523Y-86038333D01*
X101215476Y-86098809D01*
X101275952Y-86159285D01*
X101336428Y-86280238D01*
X101336428Y-86582619D01*
X101275952Y-86703571D01*
X101215476Y-86764047D01*
X101094523Y-86824523D01*
X100792142Y-86824523D01*
X100671190Y-86764047D01*
X100610714Y-86703571D01*
D12*
%TO.C,P1*%
X109400000Y-108595000D02*
X101490000Y-108595000D01*
D13*
X113890000Y-105010000D02*
X113890000Y-105010000D01*
D12*
X109400000Y-89525000D02*
X101490000Y-89525000D01*
X109400000Y-91310000D02*
X109400000Y-89525000D01*
D13*
X113890000Y-105210000D02*
X113890000Y-105210000D01*
D12*
X109400000Y-107210000D02*
X109400000Y-108595000D01*
D13*
X113890000Y-105210000D02*
G75*
G03*
X113890000Y-105010000I0J100000D01*
G01*
X113890000Y-105010000D02*
G75*
G03*
X113890000Y-105210000I0J-100000D01*
G01*
D14*
%TO.C,R1*%
X123712500Y-88242224D02*
X123712500Y-87732776D01*
X122667500Y-88242224D02*
X122667500Y-87732776D01*
%TO.C,R5*%
X108607776Y-85837500D02*
X109117224Y-85837500D01*
X108607776Y-86882500D02*
X109117224Y-86882500D01*
D13*
%TO.C,LED3*%
X101270000Y-112585000D02*
X103670000Y-112585000D01*
X103670000Y-110935000D02*
X101270000Y-110935000D01*
X101270000Y-110935000D02*
X101270000Y-112585000D01*
D14*
%TO.C,R2*%
X119902500Y-88645276D02*
X119902500Y-89154724D01*
X118857500Y-88645276D02*
X118857500Y-89154724D01*
D13*
%TO.C,P3*%
X127230000Y-105410000D02*
X127230000Y-105410000D01*
X132325000Y-102225000D02*
X139930000Y-102225000D01*
X127430000Y-105410000D02*
X127430000Y-105410000D01*
X132325000Y-103950000D02*
X132325000Y-102225000D01*
X139930000Y-102225000D02*
X140430000Y-102225000D01*
X140430000Y-113675000D02*
X132325000Y-113675000D01*
X132325000Y-113675000D02*
X132325000Y-111890000D01*
X127230000Y-105410000D02*
G75*
G03*
X127430000Y-105410000I100000J0D01*
G01*
X127430000Y-105410000D02*
G75*
G03*
X127230000Y-105410000I-100000J0D01*
G01*
D12*
%TO.C,P2*%
X132325000Y-98910000D02*
X139930000Y-98910000D01*
X132325000Y-86705000D02*
X132325000Y-84920000D01*
D13*
X127430000Y-88105000D02*
X127430000Y-88105000D01*
D12*
X132325000Y-84920000D02*
X139930000Y-84915000D01*
X132325000Y-96915000D02*
X132325000Y-98910000D01*
D13*
X127230000Y-88105000D02*
X127230000Y-88105000D01*
X127430000Y-88105000D02*
G75*
G03*
X127230000Y-88105000I-100000J0D01*
G01*
X127230000Y-88105000D02*
G75*
G03*
X127430000Y-88105000I100000J0D01*
G01*
D14*
%TO.C,R3*%
X108794724Y-112087500D02*
X108285276Y-112087500D01*
X108794724Y-111042500D02*
X108285276Y-111042500D01*
D13*
%TO.C,LED5*%
X104912500Y-85535000D02*
X102512500Y-85535000D01*
X102512500Y-87185000D02*
X104912500Y-87185000D01*
X104912500Y-87185000D02*
X104912500Y-85535000D01*
%TD*%
M02*
