M48
; DRILL file {KiCad (6.0.6)} date Tue Jul 19 20:12:26 2022
; FORMAT={-:-/ absolute / inch / decimal}
; #@! TF.CreationDate,2022-07-19T20:12:26-04:00
; #@! TF.GenerationSoftware,Kicad,Pcbnew,(6.0.6)
; #@! TF.FileFunction,Plated,1,2,PTH
FMAT,2
INCH
; #@! TA.AperFunction,Plated,PTH,ViaDrill
T1C0.0157
%
G90
G05
T1
X4.01Y-4.335
X4.15Y-4.05
X4.1772Y-3.7008
X4.2Y-3.55
X4.2008Y-3.6575
X4.205Y-4.145
X4.2087Y-3.5984
X4.38Y-3.395
X4.5433Y-3.9508
X4.575Y-3.8
X4.6577Y-3.5327
X4.7264Y-3.5984
X4.75Y-3.5
X4.7724Y-4.1036
X4.8346Y-3.7441
X4.86Y-4.06
X4.8642Y-4.1949
X4.95Y-3.8
X4.95Y-3.85
X4.95Y-3.9
X5.0Y-4.03
X5.0157Y-3.5965
X5.0374Y-3.9882
X5.15Y-4.025
X5.1713Y-3.9764
X5.3031Y-3.7185
X5.31Y-4.15
X5.325Y-3.47
X5.335Y-3.57
T0
M30
